G04 #@! TF.GenerationSoftware,KiCad,Pcbnew,8.0.0*
G04 #@! TF.CreationDate,2025-02-24T10:50:18+08:00*
G04 #@! TF.ProjectId,CM2_MesoScope,434d325f-4d65-4736-9f53-636f70652e6b,rev?*
G04 #@! TF.SameCoordinates,Original*
G04 #@! TF.FileFunction,Copper,L4,Bot*
G04 #@! TF.FilePolarity,Positive*
%FSLAX46Y46*%
G04 Gerber Fmt 4.6, Leading zero omitted, Abs format (unit mm)*
G04 Created by KiCad (PCBNEW 8.0.0) date 2025-02-24 10:50:18*
%MOMM*%
%LPD*%
G01*
G04 APERTURE LIST*
G04 Aperture macros list*
%AMRoundRect*
0 Rectangle with rounded corners*
0 $1 Rounding radius*
0 $2 $3 $4 $5 $6 $7 $8 $9 X,Y pos of 4 corners*
0 Add a 4 corners polygon primitive as box body*
4,1,4,$2,$3,$4,$5,$6,$7,$8,$9,$2,$3,0*
0 Add four circle primitives for the rounded corners*
1,1,$1+$1,$2,$3*
1,1,$1+$1,$4,$5*
1,1,$1+$1,$6,$7*
1,1,$1+$1,$8,$9*
0 Add four rect primitives between the rounded corners*
20,1,$1+$1,$2,$3,$4,$5,0*
20,1,$1+$1,$4,$5,$6,$7,0*
20,1,$1+$1,$6,$7,$8,$9,0*
20,1,$1+$1,$8,$9,$2,$3,0*%
G04 Aperture macros list end*
G04 #@! TA.AperFunction,SMDPad,CuDef*
%ADD10R,0.500000X1.248000*%
G04 #@! TD*
G04 #@! TA.AperFunction,SMDPad,CuDef*
%ADD11R,0.500000X0.740000*%
G04 #@! TD*
G04 #@! TA.AperFunction,SMDPad,CuDef*
%ADD12R,0.740000X0.500000*%
G04 #@! TD*
G04 #@! TA.AperFunction,SMDPad,CuDef*
%ADD13R,0.340000X0.310000*%
G04 #@! TD*
G04 #@! TA.AperFunction,SMDPad,CuDef*
%ADD14R,0.310000X0.340000*%
G04 #@! TD*
G04 #@! TA.AperFunction,SMDPad,CuDef*
%ADD15R,2.120000X1.090000*%
G04 #@! TD*
G04 #@! TA.AperFunction,SMDPad,CuDef*
%ADD16R,0.660000X0.260000*%
G04 #@! TD*
G04 #@! TA.AperFunction,SMDPad,CuDef*
%ADD17R,1.800000X2.500000*%
G04 #@! TD*
G04 #@! TA.AperFunction,SMDPad,CuDef*
%ADD18RoundRect,0.145000X-0.170000X0.145000X-0.170000X-0.145000X0.170000X-0.145000X0.170000X0.145000X0*%
G04 #@! TD*
G04 #@! TA.AperFunction,SMDPad,CuDef*
%ADD19R,0.610000X0.220000*%
G04 #@! TD*
G04 #@! TA.AperFunction,SMDPad,CuDef*
%ADD20R,0.220000X0.610000*%
G04 #@! TD*
G04 #@! TA.AperFunction,SMDPad,CuDef*
%ADD21RoundRect,0.145000X0.145000X0.170000X-0.145000X0.170000X-0.145000X-0.170000X0.145000X-0.170000X0*%
G04 #@! TD*
G04 #@! TA.AperFunction,SMDPad,CuDef*
%ADD22RoundRect,0.147500X-0.172500X0.147500X-0.172500X-0.147500X0.172500X-0.147500X0.172500X0.147500X0*%
G04 #@! TD*
G04 #@! TA.AperFunction,SMDPad,CuDef*
%ADD23R,0.560000X0.260000*%
G04 #@! TD*
G04 #@! TA.AperFunction,SMDPad,CuDef*
%ADD24R,0.800000X1.700000*%
G04 #@! TD*
G04 #@! TA.AperFunction,ViaPad*
%ADD25C,0.350000*%
G04 #@! TD*
G04 #@! TA.AperFunction,Conductor*
%ADD26C,0.152400*%
G04 #@! TD*
G04 #@! TA.AperFunction,Conductor*
%ADD27C,0.254000*%
G04 #@! TD*
G04 #@! TA.AperFunction,Conductor*
%ADD28C,0.304800*%
G04 #@! TD*
G04 #@! TA.AperFunction,Conductor*
%ADD29C,0.203200*%
G04 #@! TD*
G04 APERTURE END LIST*
D10*
X103336640Y-108756820D03*
D11*
X104036640Y-108502820D03*
X104736640Y-108502820D03*
X105436640Y-108502820D03*
X106136640Y-108502820D03*
X106836640Y-108502820D03*
D12*
X107571640Y-109237820D03*
X107571640Y-109937820D03*
X107571640Y-110637820D03*
X107571640Y-111337820D03*
X107571640Y-112037820D03*
X107571640Y-112737820D03*
X107571640Y-113437820D03*
X107571640Y-114137820D03*
X107571640Y-114837820D03*
X107571640Y-115537820D03*
X107571640Y-116237820D03*
X107571640Y-116937820D03*
D11*
X106836640Y-117672820D03*
X106136640Y-117672820D03*
X105436640Y-117672820D03*
X104736640Y-117672820D03*
X104036640Y-117672820D03*
X103336640Y-117672820D03*
X102636640Y-117672820D03*
X101936640Y-117672820D03*
X101236640Y-117672820D03*
X100536640Y-117672820D03*
X99836640Y-117672820D03*
X99136640Y-117672820D03*
D12*
X98401640Y-116937820D03*
X98401640Y-116237820D03*
X98401640Y-115537820D03*
X98401640Y-114837820D03*
X98401640Y-114137820D03*
X98401640Y-113437820D03*
X98401640Y-112737820D03*
X98401640Y-112037820D03*
X98401640Y-111337820D03*
X98401640Y-110637820D03*
X98401640Y-109937820D03*
X98401640Y-109237820D03*
D11*
X99136640Y-108502820D03*
X99836640Y-108502820D03*
X100536640Y-108502820D03*
X101236640Y-108502820D03*
X101936640Y-108502820D03*
X102636640Y-108502820D03*
D13*
X112012500Y-101335000D03*
X112012500Y-101885000D03*
D14*
X119505000Y-114186000D03*
X118955000Y-114186000D03*
X113255000Y-115676000D03*
X112705000Y-115676000D03*
X118955000Y-114826000D03*
X119505000Y-114826000D03*
D13*
X112047680Y-111745020D03*
X112047680Y-111195020D03*
D14*
X113405900Y-117916540D03*
X113955900Y-117916540D03*
D15*
X117379500Y-115118560D03*
X117379500Y-117148560D03*
D14*
X112705000Y-114408640D03*
X113255000Y-114408640D03*
D16*
X112992900Y-112808220D03*
X112992900Y-112308220D03*
X112992900Y-111808220D03*
X112992900Y-111308220D03*
X112992900Y-110808220D03*
X115852900Y-110808220D03*
X115852900Y-111308220D03*
X115852900Y-111808220D03*
X115852900Y-112308220D03*
X115852900Y-112808220D03*
D17*
X114422900Y-111808220D03*
D13*
X113332500Y-101025000D03*
X113332500Y-101575000D03*
D14*
X120025000Y-109251000D03*
X119475000Y-109251000D03*
D18*
X113998560Y-108411860D03*
X113998560Y-109301860D03*
D13*
X111952500Y-98985000D03*
X111952500Y-98435000D03*
D18*
X113108040Y-108413960D03*
X113108040Y-109303960D03*
D13*
X114652500Y-98195000D03*
X114652500Y-97645000D03*
D14*
X112705000Y-115041973D03*
X113255000Y-115041973D03*
D13*
X116690000Y-113236000D03*
X116690000Y-113786000D03*
D14*
X119505000Y-113546000D03*
X118955000Y-113546000D03*
D13*
X111946080Y-114603700D03*
X111946080Y-115153700D03*
X111946860Y-116268640D03*
X111946860Y-115718640D03*
D19*
X119993000Y-110695000D03*
X119993000Y-111095000D03*
X119993000Y-111495000D03*
X119993000Y-111895000D03*
X119993000Y-112295000D03*
D20*
X119348000Y-112340000D03*
X118948000Y-112340000D03*
D19*
X118303000Y-112295000D03*
X118303000Y-111895000D03*
X118303000Y-111495000D03*
X118303000Y-111095000D03*
X118303000Y-110695000D03*
D20*
X118948000Y-110650000D03*
X119348000Y-110650000D03*
D13*
X115036860Y-108413640D03*
X115036860Y-108963640D03*
X117440000Y-113236000D03*
X117440000Y-113786000D03*
X113312500Y-98195000D03*
X113312500Y-97645000D03*
X112047680Y-112310080D03*
X112047680Y-112860080D03*
D21*
X115709560Y-116619440D03*
X114819560Y-116619440D03*
D18*
X112219040Y-108413960D03*
X112219040Y-109303960D03*
D22*
X117160700Y-110129040D03*
X117160700Y-111099040D03*
D14*
X119475000Y-109936000D03*
X120025000Y-109936000D03*
X112705000Y-116308640D03*
X113255000Y-116308640D03*
X120025000Y-108566000D03*
X119475000Y-108566000D03*
D23*
X113951660Y-115450800D03*
X113951660Y-114950800D03*
X113951660Y-114450800D03*
X115711660Y-114450800D03*
X115711660Y-114950800D03*
X115711660Y-115450800D03*
D24*
X114831660Y-114950800D03*
D25*
X114840000Y-114576000D03*
X106844028Y-115416608D03*
X102800000Y-115570000D03*
X107776040Y-117876620D03*
X100570000Y-112800000D03*
X115022500Y-98700000D03*
X115037260Y-111724020D03*
X106920240Y-108672420D03*
X106148040Y-117673420D03*
X119000000Y-108476000D03*
X106656640Y-112057820D03*
X112055300Y-111195020D03*
X118955000Y-114186000D03*
X104039840Y-108504020D03*
X113240000Y-102310000D03*
X103476640Y-115158820D03*
X116078660Y-108912240D03*
X104725640Y-108504020D03*
X103080000Y-110410000D03*
X101440000Y-111720000D03*
X116560000Y-111986000D03*
X112176860Y-117101140D03*
X114831660Y-115408000D03*
X113108040Y-109303960D03*
X104736640Y-117672820D03*
X115695360Y-114950800D03*
X111946080Y-114603700D03*
X106870000Y-113645000D03*
X111300000Y-99150000D03*
X98274040Y-117851220D03*
X113255000Y-115041973D03*
X97954840Y-108088220D03*
X102990000Y-111690000D03*
X101220440Y-108504020D03*
X101916400Y-117664000D03*
X99110000Y-114580000D03*
X105078450Y-113355420D03*
X113972260Y-108413960D03*
X112012500Y-101335000D03*
X118410000Y-113156000D03*
X117370000Y-108413640D03*
X113951660Y-114450800D03*
X106794040Y-116952820D03*
X98401640Y-116937820D03*
X115711660Y-116216000D03*
X111941000Y-115147940D03*
X112705000Y-116308640D03*
X119475000Y-109936000D03*
X118955000Y-114826000D03*
X112675060Y-113814440D03*
X112705000Y-115676000D03*
X101931640Y-108575820D03*
X99640000Y-114620000D03*
X107585000Y-112750000D03*
X105180000Y-115920000D03*
X111498360Y-112310080D03*
X107911640Y-108342224D03*
X108430000Y-110990000D03*
X117168320Y-110121280D03*
X101054634Y-114039414D03*
X100760000Y-114670000D03*
X100500000Y-115108020D03*
X102043400Y-116546400D03*
X102060000Y-113910000D03*
X116690000Y-113236000D03*
X111475938Y-113692520D03*
X108573740Y-116063800D03*
X111458400Y-113115940D03*
X108586440Y-114542340D03*
X117798000Y-111500000D03*
X101550000Y-113850000D03*
X117440000Y-113236000D03*
X101560000Y-115870000D03*
X102554640Y-109369422D03*
X102054640Y-109369426D03*
X101554640Y-109369422D03*
X101054640Y-109369422D03*
X100554640Y-109369406D03*
X99140000Y-109420000D03*
X99430000Y-110440000D03*
X98401640Y-109237820D03*
X99469642Y-110954420D03*
X99136640Y-108502820D03*
X99836640Y-108502820D03*
X99740000Y-111960000D03*
X99590000Y-112460000D03*
X100536640Y-108502820D03*
X98496640Y-111323420D03*
X111494640Y-111745020D03*
X103338840Y-117613220D03*
X102642840Y-108580220D03*
X105513040Y-115336620D03*
X107585000Y-112038800D03*
X103328640Y-108580220D03*
X106108240Y-116952820D03*
X99848840Y-116200220D03*
X104050040Y-117613220D03*
X102627640Y-117613220D03*
X107447038Y-108650991D03*
X113332500Y-101020000D03*
X117015000Y-99955000D03*
X111952500Y-98435000D03*
X112147500Y-100647500D03*
X117160700Y-111099040D03*
X119160000Y-116321000D03*
X113312500Y-97645000D03*
X111935920Y-115694040D03*
X114050000Y-116303640D03*
X114652500Y-97645000D03*
X104143980Y-110445320D03*
X113830000Y-102120000D03*
X113340000Y-98770000D03*
X114320000Y-102540000D03*
X119348000Y-111730000D03*
X114960000Y-102140000D03*
X120510000Y-108160000D03*
X115372500Y-99650000D03*
X115022500Y-100147500D03*
X115392500Y-100650000D03*
X115402500Y-101350000D03*
D26*
X118955000Y-113546000D02*
X118955000Y-114186000D01*
D27*
X112055300Y-111195020D02*
X112168500Y-111308220D01*
D26*
X118905000Y-112556000D02*
X118950000Y-112601000D01*
D27*
X115711660Y-114950800D02*
X115695360Y-114950800D01*
D26*
X119032600Y-113136000D02*
X119680000Y-113136000D01*
X108154640Y-116454220D02*
X108154640Y-117498020D01*
D27*
X113059500Y-112810620D02*
X113489500Y-112810620D01*
X115695360Y-114950800D02*
X114831660Y-114950800D01*
D26*
X107049240Y-111337820D02*
X106681440Y-111705620D01*
D27*
X113955900Y-117916540D02*
X114488460Y-117916540D01*
D26*
X106681440Y-111705620D02*
X106681440Y-112085420D01*
D27*
X112168500Y-111308220D02*
X112992900Y-111308220D01*
D26*
X107571640Y-116237820D02*
X107938240Y-116237820D01*
X113332500Y-101575000D02*
X113332500Y-102217500D01*
D27*
X113922900Y-111308220D02*
X114422900Y-111808220D01*
D26*
X118948000Y-111107400D02*
X119005600Y-111165000D01*
D27*
X114422900Y-111808220D02*
X114422900Y-109726200D01*
X112992900Y-112808220D02*
X112099540Y-112808220D01*
X113489500Y-112810620D02*
X114489500Y-111810620D01*
D26*
X119385000Y-108476000D02*
X119475000Y-108566000D01*
X113255000Y-115041973D02*
X113255000Y-115676000D01*
X113255000Y-115041973D02*
X113255000Y-114408640D01*
X119475000Y-108566000D02*
X119475000Y-109251000D01*
D27*
X112992900Y-111308220D02*
X113922900Y-111308220D01*
X113108040Y-109303960D02*
X112219040Y-109303960D01*
X113105860Y-109303960D02*
X113105860Y-109303960D01*
X114831660Y-114950800D02*
X114831660Y-116607340D01*
D26*
X118305000Y-110956000D02*
X118905000Y-110956000D01*
D27*
X113395660Y-109303960D02*
X113972260Y-109303960D01*
X114488460Y-117916540D02*
X114798340Y-117606660D01*
D26*
X118945000Y-113546000D02*
X118945000Y-113223600D01*
X119005600Y-111165000D02*
X119704790Y-111165000D01*
X113240000Y-102310000D02*
X112437500Y-102310000D01*
X118945000Y-113223600D02*
X119032600Y-113136000D01*
X118950000Y-112601000D02*
X118950000Y-113541000D01*
D27*
X114831660Y-116607340D02*
X114819560Y-116619440D01*
D26*
X119680000Y-113136000D02*
X119995000Y-112821000D01*
D27*
X114819560Y-116619440D02*
X114819560Y-117585440D01*
D26*
X119704790Y-111165000D02*
X119774790Y-111095000D01*
X106920240Y-108586420D02*
X106920240Y-108672420D01*
X118305000Y-109171000D02*
X119000000Y-108476000D01*
X119995000Y-112821000D02*
X119995000Y-112410000D01*
X118948000Y-110650000D02*
X118948000Y-111107400D01*
X118901800Y-112295000D02*
X118946800Y-112340000D01*
X107571640Y-111337820D02*
X107049240Y-111337820D01*
X118950000Y-113541000D02*
X118945000Y-113546000D01*
X107938240Y-116237820D02*
X108154640Y-116454220D01*
X108154640Y-117498020D02*
X107776040Y-117876620D01*
X113332500Y-102217500D02*
X113240000Y-102310000D01*
X106836640Y-108502820D02*
X106920240Y-108586420D01*
X118305000Y-110956000D02*
X118305000Y-109171000D01*
X113201860Y-115048640D02*
X113201860Y-115048640D01*
D27*
X114422900Y-109726200D02*
X113998560Y-109301860D01*
X112055300Y-111195020D02*
X112055300Y-111195020D01*
D26*
X104736640Y-117672820D02*
X105436640Y-117672820D01*
X118310000Y-110951000D02*
X118305000Y-110956000D01*
X118303000Y-112295000D02*
X118901800Y-112295000D01*
X118905000Y-110956000D02*
X118950000Y-110911000D01*
X119995000Y-112410000D02*
X119993000Y-112410000D01*
D27*
X112099540Y-112808220D02*
X112047680Y-112860080D01*
D26*
X112437500Y-102310000D02*
X112012500Y-101885000D01*
X119000000Y-108476000D02*
X119385000Y-108476000D01*
D27*
X113108040Y-109303960D02*
X113105860Y-109303960D01*
X112133960Y-108499040D02*
X112219040Y-108413960D01*
X115035080Y-108411860D02*
X115036860Y-108413640D01*
X117370000Y-108413640D02*
X115036860Y-108413640D01*
X112219040Y-108413960D02*
X113972260Y-108413960D01*
X113951660Y-114450800D02*
X113951660Y-114950800D01*
X113998560Y-108411860D02*
X115035080Y-108411860D01*
X113951660Y-114950800D02*
X113951660Y-114950800D01*
X113972260Y-108413960D02*
X113972260Y-108413960D01*
D26*
X107571640Y-115537820D02*
X107304656Y-115537820D01*
X107377353Y-115537820D02*
X106794040Y-116121133D01*
X106794040Y-116121133D02*
X106794040Y-116952820D01*
X107571640Y-115537820D02*
X107377353Y-115537820D01*
X98350240Y-116989220D02*
X98401640Y-116937820D01*
X119475000Y-110523000D02*
X119348000Y-110650000D01*
D27*
X115852900Y-111308220D02*
X115852900Y-111808220D01*
X115852900Y-112808220D02*
X115852900Y-112808220D01*
X115852900Y-111808220D02*
X115852900Y-112308220D01*
D26*
X119475000Y-109936000D02*
X119475000Y-110523000D01*
D27*
X115711660Y-116216000D02*
X115711660Y-116617340D01*
D26*
X112705000Y-117214960D02*
X113406580Y-117916540D01*
D27*
X115852900Y-112808220D02*
X115852900Y-113192220D01*
X116952060Y-117576000D02*
X117379500Y-117148560D01*
X115852900Y-112808220D02*
X115852900Y-112405060D01*
D26*
X112621860Y-116268640D02*
X111946860Y-116268640D01*
D27*
X115711660Y-116617340D02*
X115709560Y-116619440D01*
D26*
X112705000Y-116308640D02*
X112705000Y-117214960D01*
X112661860Y-116308640D02*
X112621860Y-116268640D01*
X112599033Y-115147940D02*
X112705000Y-115041973D01*
D27*
X116446680Y-113786000D02*
X116690000Y-113786000D01*
D26*
X118955000Y-114826000D02*
X117915000Y-113786000D01*
D27*
X115852900Y-113192220D02*
X116446680Y-113786000D01*
X116200000Y-117576000D02*
X116952060Y-117576000D01*
D26*
X111941000Y-115147940D02*
X112599033Y-115147940D01*
X117915000Y-113786000D02*
X117440000Y-113786000D01*
D27*
X115709560Y-116619440D02*
X115709560Y-117085560D01*
D26*
X112705000Y-115041973D02*
X112705000Y-114408640D01*
X112705000Y-116308640D02*
X112661860Y-116308640D01*
D27*
X115711660Y-115450800D02*
X115711660Y-116216000D01*
X115709560Y-117085560D02*
X116200000Y-117576000D01*
D26*
X116690000Y-113786000D02*
X117440000Y-113786000D01*
D27*
X113059500Y-112310620D02*
X112048220Y-112310620D01*
D28*
X111498360Y-112310080D02*
X111498360Y-112310080D01*
X112047680Y-112310080D02*
X111498360Y-112310080D01*
D27*
X112048220Y-112310620D02*
X112047680Y-112310080D01*
D26*
X100807147Y-114039414D02*
X101054634Y-114039414D01*
X98401640Y-116237820D02*
X98608741Y-116237820D01*
X98608741Y-116237820D02*
X100807147Y-114039414D01*
X101931347Y-114670000D02*
X107363527Y-109237820D01*
X107363527Y-109237820D02*
X107571640Y-109237820D01*
X100760000Y-114670000D02*
X101931347Y-114670000D01*
X107352180Y-109937820D02*
X107571640Y-109937820D01*
X100500000Y-115108020D02*
X102181980Y-115108020D01*
X102181980Y-115108020D02*
X107352180Y-109937820D01*
X116690000Y-113230200D02*
X116690000Y-113236000D01*
X106136640Y-108502820D02*
X105995640Y-108643820D01*
X105995640Y-110004360D02*
X102090000Y-113910000D01*
X116690000Y-113236000D02*
X116813610Y-113236000D01*
X102090000Y-113910000D02*
X102060000Y-113910000D01*
X118303000Y-111895000D02*
X118025200Y-111895000D01*
X105995640Y-108643820D02*
X105995640Y-110004360D01*
X118025200Y-111895000D02*
X116690000Y-113230200D01*
X117798000Y-111500000D02*
X118089790Y-111500000D01*
X105436640Y-109943360D02*
X101554640Y-113825360D01*
X105436640Y-108502820D02*
X105436640Y-109943360D01*
X100310000Y-114090000D02*
X102554640Y-111845360D01*
X98401640Y-114137820D02*
X98449460Y-114090000D01*
X102554640Y-111845360D02*
X102554640Y-109369422D01*
X98449460Y-114090000D02*
X100310000Y-114090000D01*
X100512180Y-113437820D02*
X102054640Y-111895360D01*
X98401640Y-113437820D02*
X100512180Y-113437820D01*
X102054640Y-111895360D02*
X102054640Y-109369426D01*
X100440000Y-112260000D02*
X99820000Y-112880000D01*
X98543820Y-112880000D02*
X98401640Y-112737820D01*
X101554640Y-109369422D02*
X101554640Y-110278020D01*
X98419040Y-112720420D02*
X98659082Y-112720420D01*
X100440000Y-111392660D02*
X100440000Y-112260000D01*
X99820000Y-112880000D02*
X98543820Y-112880000D01*
X101554640Y-110278020D02*
X100440000Y-111392660D01*
X101054640Y-110045360D02*
X101054640Y-109369422D01*
X99065380Y-112034620D02*
X101054640Y-110045360D01*
X98404840Y-112034620D02*
X99065380Y-112034620D01*
X98401640Y-112037820D02*
X98404840Y-112034620D01*
X98652180Y-110637820D02*
X98401640Y-110637820D01*
X100554640Y-109369406D02*
X99896026Y-110028020D01*
X99261980Y-110028020D02*
X98652180Y-110637820D01*
X99896026Y-110028020D02*
X99261980Y-110028020D01*
X99140000Y-109420000D02*
X98622180Y-109937820D01*
X98622180Y-109937820D02*
X98401640Y-109937820D01*
X102627640Y-117613220D02*
X102642240Y-117672820D01*
X103338840Y-117613220D02*
X103336640Y-117868620D01*
X106711840Y-114137820D02*
X105513040Y-115336620D01*
D27*
X112047680Y-111745020D02*
X112110880Y-111808220D01*
X112110880Y-111808220D02*
X112992900Y-111808220D01*
D26*
X102642240Y-117672820D02*
X102642840Y-117673420D01*
X107571640Y-113437820D02*
X107571640Y-114137820D01*
X103336640Y-117672820D02*
X103338840Y-117613220D01*
D28*
X112047680Y-111745020D02*
X111494640Y-111745020D01*
X111494640Y-111745020D02*
X111494640Y-111745020D01*
D26*
X107571640Y-114137820D02*
X106711840Y-114137820D01*
X103336640Y-117868620D02*
X103328640Y-117876620D01*
X102636640Y-117672820D02*
X102627640Y-117613220D01*
X111952500Y-98985000D02*
X111952500Y-100452500D01*
X111952500Y-100452500D02*
X112147500Y-100647500D01*
X117160700Y-111099040D02*
X117160700Y-111087480D01*
D29*
X115036860Y-108975200D02*
X117160700Y-111099040D01*
X115036860Y-108963640D02*
X115036860Y-108975200D01*
D26*
X117160700Y-111099040D02*
X117163040Y-111099040D01*
D27*
X117379500Y-115118560D02*
X116711740Y-114450800D01*
X116711740Y-114450800D02*
X115711660Y-114450800D01*
D26*
X114050000Y-116303640D02*
X114045000Y-116308640D01*
X114045000Y-116308640D02*
X113255000Y-116308640D01*
X120450400Y-111895000D02*
X120590000Y-112034600D01*
X120590000Y-112676000D02*
X119720000Y-113546000D01*
X119993000Y-111895000D02*
X120450400Y-111895000D01*
X119720000Y-113546000D02*
X119495000Y-113546000D01*
X119505000Y-113546000D02*
X119505000Y-114186000D01*
X120590000Y-112034600D02*
X120590000Y-112676000D01*
X119505000Y-114186000D02*
X119505000Y-114826000D01*
X120025000Y-110663000D02*
X119993000Y-110695000D01*
X120025000Y-109251000D02*
X120025000Y-109936000D01*
X120025000Y-108566000D02*
X120025000Y-109251000D01*
X120025000Y-109936000D02*
X120025000Y-110663000D01*
X119348000Y-111730000D02*
X119348000Y-112340000D01*
X114320000Y-99110000D02*
X113405000Y-98195000D01*
X113405000Y-98195000D02*
X113312500Y-98195000D01*
X114320000Y-102540000D02*
X114320000Y-99110000D01*
X114960000Y-102140000D02*
X114590000Y-101770000D01*
X114590000Y-98257500D02*
X114652500Y-98195000D01*
X120510000Y-108160000D02*
X120630000Y-108280000D01*
X114590000Y-101770000D02*
X114590000Y-98257500D01*
X120630000Y-111228600D02*
X120363600Y-111495000D01*
X120363600Y-111495000D02*
X119993000Y-111495000D01*
X120630000Y-108280000D02*
X120630000Y-111228600D01*
M02*
