G04 #@! TF.GenerationSoftware,KiCad,Pcbnew,8.0.0*
G04 #@! TF.CreationDate,2025-02-24T10:50:18+08:00*
G04 #@! TF.ProjectId,CM2_MesoScope,434d325f-4d65-4736-9f53-636f70652e6b,rev?*
G04 #@! TF.SameCoordinates,Original*
G04 #@! TF.FileFunction,Legend,Top*
G04 #@! TF.FilePolarity,Positive*
%FSLAX46Y46*%
G04 Gerber Fmt 4.6, Leading zero omitted, Abs format (unit mm)*
G04 Created by KiCad (PCBNEW 8.0.0) date 2025-02-24 10:50:18*
%MOMM*%
%LPD*%
G01*
G04 APERTURE LIST*
%ADD10C,0.050000*%
%ADD11C,0.100000*%
%ADD12C,0.200000*%
%ADD13C,0.150000*%
%ADD14C,0.120000*%
G04 APERTURE END LIST*
D10*
X97372000Y-113100000D02*
G75*
G02*
X95496000Y-113100000I-938000J0D01*
G01*
X95496000Y-113100000D02*
G75*
G02*
X97372000Y-113100000I938000J0D01*
G01*
X103884000Y-119680000D02*
G75*
G02*
X102008000Y-119680000I-938000J0D01*
G01*
X102008000Y-119680000D02*
G75*
G02*
X103884000Y-119680000I938000J0D01*
G01*
X118668000Y-119676000D02*
G75*
G02*
X116792000Y-119676000I-938000J0D01*
G01*
X116792000Y-119676000D02*
G75*
G02*
X118668000Y-119676000I938000J0D01*
G01*
X119566000Y-106484000D02*
G75*
G02*
X117690000Y-106484000I-938000J0D01*
G01*
X117690000Y-106484000D02*
G75*
G02*
X119566000Y-106484000I938000J0D01*
G01*
X114247998Y-95872000D02*
G75*
G02*
X112371998Y-95872000I-938000J0D01*
G01*
X112371998Y-95872000D02*
G75*
G02*
X114247998Y-95872000I938000J0D01*
G01*
D11*
X104737400Y-117607426D02*
X104904066Y-118074093D01*
X104904066Y-118074093D02*
X105070733Y-117607426D01*
X105470733Y-117374093D02*
X105537399Y-117374093D01*
X105537399Y-117374093D02*
X105604066Y-117407426D01*
X105604066Y-117407426D02*
X105637399Y-117440760D01*
X105637399Y-117440760D02*
X105670733Y-117507426D01*
X105670733Y-117507426D02*
X105704066Y-117640760D01*
X105704066Y-117640760D02*
X105704066Y-117807426D01*
X105704066Y-117807426D02*
X105670733Y-117940760D01*
X105670733Y-117940760D02*
X105637399Y-118007426D01*
X105637399Y-118007426D02*
X105604066Y-118040760D01*
X105604066Y-118040760D02*
X105537399Y-118074093D01*
X105537399Y-118074093D02*
X105470733Y-118074093D01*
X105470733Y-118074093D02*
X105404066Y-118040760D01*
X105404066Y-118040760D02*
X105370733Y-118007426D01*
X105370733Y-118007426D02*
X105337399Y-117940760D01*
X105337399Y-117940760D02*
X105304066Y-117807426D01*
X105304066Y-117807426D02*
X105304066Y-117640760D01*
X105304066Y-117640760D02*
X105337399Y-117507426D01*
X105337399Y-117507426D02*
X105370733Y-117440760D01*
X105370733Y-117440760D02*
X105404066Y-117407426D01*
X105404066Y-117407426D02*
X105470733Y-117374093D01*
X106004066Y-118007426D02*
X106037400Y-118040760D01*
X106037400Y-118040760D02*
X106004066Y-118074093D01*
X106004066Y-118074093D02*
X105970733Y-118040760D01*
X105970733Y-118040760D02*
X106004066Y-118007426D01*
X106004066Y-118007426D02*
X106004066Y-118074093D01*
X106704066Y-118074093D02*
X106304066Y-118074093D01*
X106504066Y-118074093D02*
X106504066Y-117374093D01*
X106504066Y-117374093D02*
X106437399Y-117474093D01*
X106437399Y-117474093D02*
X106370733Y-117540760D01*
X106370733Y-117540760D02*
X106304066Y-117574093D01*
X101940506Y-116645986D02*
X101907173Y-116679320D01*
X101907173Y-116679320D02*
X101807173Y-116712653D01*
X101807173Y-116712653D02*
X101740506Y-116712653D01*
X101740506Y-116712653D02*
X101640506Y-116679320D01*
X101640506Y-116679320D02*
X101573840Y-116612653D01*
X101573840Y-116612653D02*
X101540506Y-116545986D01*
X101540506Y-116545986D02*
X101507173Y-116412653D01*
X101507173Y-116412653D02*
X101507173Y-116312653D01*
X101507173Y-116312653D02*
X101540506Y-116179320D01*
X101540506Y-116179320D02*
X101573840Y-116112653D01*
X101573840Y-116112653D02*
X101640506Y-116045986D01*
X101640506Y-116045986D02*
X101740506Y-116012653D01*
X101740506Y-116012653D02*
X101807173Y-116012653D01*
X101807173Y-116012653D02*
X101907173Y-116045986D01*
X101907173Y-116045986D02*
X101940506Y-116079320D01*
X102240506Y-116712653D02*
X102240506Y-116012653D01*
X102240506Y-116012653D02*
X102473840Y-116512653D01*
X102473840Y-116512653D02*
X102707173Y-116012653D01*
X102707173Y-116012653D02*
X102707173Y-116712653D01*
X103007173Y-116079320D02*
X103040506Y-116045986D01*
X103040506Y-116045986D02*
X103107173Y-116012653D01*
X103107173Y-116012653D02*
X103273840Y-116012653D01*
X103273840Y-116012653D02*
X103340506Y-116045986D01*
X103340506Y-116045986D02*
X103373840Y-116079320D01*
X103373840Y-116079320D02*
X103407173Y-116145986D01*
X103407173Y-116145986D02*
X103407173Y-116212653D01*
X103407173Y-116212653D02*
X103373840Y-116312653D01*
X103373840Y-116312653D02*
X102973840Y-116712653D01*
X102973840Y-116712653D02*
X103407173Y-116712653D01*
X103673840Y-116679320D02*
X103740507Y-116712653D01*
X103740507Y-116712653D02*
X103873840Y-116712653D01*
X103873840Y-116712653D02*
X103940507Y-116679320D01*
X103940507Y-116679320D02*
X103973840Y-116612653D01*
X103973840Y-116612653D02*
X103973840Y-116579320D01*
X103973840Y-116579320D02*
X103940507Y-116512653D01*
X103940507Y-116512653D02*
X103873840Y-116479320D01*
X103873840Y-116479320D02*
X103773840Y-116479320D01*
X103773840Y-116479320D02*
X103707173Y-116445986D01*
X103707173Y-116445986D02*
X103673840Y-116379320D01*
X103673840Y-116379320D02*
X103673840Y-116345986D01*
X103673840Y-116345986D02*
X103707173Y-116279320D01*
X103707173Y-116279320D02*
X103773840Y-116245986D01*
X103773840Y-116245986D02*
X103873840Y-116245986D01*
X103873840Y-116245986D02*
X103940507Y-116279320D01*
X104573840Y-116679320D02*
X104507174Y-116712653D01*
X104507174Y-116712653D02*
X104373840Y-116712653D01*
X104373840Y-116712653D02*
X104307174Y-116679320D01*
X104307174Y-116679320D02*
X104273840Y-116645986D01*
X104273840Y-116645986D02*
X104240507Y-116579320D01*
X104240507Y-116579320D02*
X104240507Y-116379320D01*
X104240507Y-116379320D02*
X104273840Y-116312653D01*
X104273840Y-116312653D02*
X104307174Y-116279320D01*
X104307174Y-116279320D02*
X104373840Y-116245986D01*
X104373840Y-116245986D02*
X104507174Y-116245986D01*
X104507174Y-116245986D02*
X104573840Y-116279320D01*
X104973840Y-116712653D02*
X104907174Y-116679320D01*
X104907174Y-116679320D02*
X104873840Y-116645986D01*
X104873840Y-116645986D02*
X104840507Y-116579320D01*
X104840507Y-116579320D02*
X104840507Y-116379320D01*
X104840507Y-116379320D02*
X104873840Y-116312653D01*
X104873840Y-116312653D02*
X104907174Y-116279320D01*
X104907174Y-116279320D02*
X104973840Y-116245986D01*
X104973840Y-116245986D02*
X105073840Y-116245986D01*
X105073840Y-116245986D02*
X105140507Y-116279320D01*
X105140507Y-116279320D02*
X105173840Y-116312653D01*
X105173840Y-116312653D02*
X105207174Y-116379320D01*
X105207174Y-116379320D02*
X105207174Y-116579320D01*
X105207174Y-116579320D02*
X105173840Y-116645986D01*
X105173840Y-116645986D02*
X105140507Y-116679320D01*
X105140507Y-116679320D02*
X105073840Y-116712653D01*
X105073840Y-116712653D02*
X104973840Y-116712653D01*
X105507173Y-116245986D02*
X105507173Y-116945986D01*
X105507173Y-116279320D02*
X105573840Y-116245986D01*
X105573840Y-116245986D02*
X105707173Y-116245986D01*
X105707173Y-116245986D02*
X105773840Y-116279320D01*
X105773840Y-116279320D02*
X105807173Y-116312653D01*
X105807173Y-116312653D02*
X105840507Y-116379320D01*
X105840507Y-116379320D02*
X105840507Y-116579320D01*
X105840507Y-116579320D02*
X105807173Y-116645986D01*
X105807173Y-116645986D02*
X105773840Y-116679320D01*
X105773840Y-116679320D02*
X105707173Y-116712653D01*
X105707173Y-116712653D02*
X105573840Y-116712653D01*
X105573840Y-116712653D02*
X105507173Y-116679320D01*
X106407173Y-116679320D02*
X106340506Y-116712653D01*
X106340506Y-116712653D02*
X106207173Y-116712653D01*
X106207173Y-116712653D02*
X106140506Y-116679320D01*
X106140506Y-116679320D02*
X106107173Y-116612653D01*
X106107173Y-116612653D02*
X106107173Y-116345986D01*
X106107173Y-116345986D02*
X106140506Y-116279320D01*
X106140506Y-116279320D02*
X106207173Y-116245986D01*
X106207173Y-116245986D02*
X106340506Y-116245986D01*
X106340506Y-116245986D02*
X106407173Y-116279320D01*
X106407173Y-116279320D02*
X106440506Y-116345986D01*
X106440506Y-116345986D02*
X106440506Y-116412653D01*
X106440506Y-116412653D02*
X106107173Y-116479320D01*
D10*
X107395843Y-110274412D02*
X107395843Y-110369650D01*
X107395843Y-110369650D02*
X107195843Y-110369650D01*
X107195843Y-110112507D02*
X107195843Y-110207745D01*
X107195843Y-110207745D02*
X107291081Y-110217269D01*
X107291081Y-110217269D02*
X107281558Y-110207745D01*
X107281558Y-110207745D02*
X107272034Y-110188698D01*
X107272034Y-110188698D02*
X107272034Y-110141079D01*
X107272034Y-110141079D02*
X107281558Y-110122031D01*
X107281558Y-110122031D02*
X107291081Y-110112507D01*
X107291081Y-110112507D02*
X107310129Y-110102984D01*
X107310129Y-110102984D02*
X107357748Y-110102984D01*
X107357748Y-110102984D02*
X107376796Y-110112507D01*
X107376796Y-110112507D02*
X107386320Y-110122031D01*
X107386320Y-110122031D02*
X107395843Y-110141079D01*
X107395843Y-110141079D02*
X107395843Y-110188698D01*
X107395843Y-110188698D02*
X107386320Y-110207745D01*
X107386320Y-110207745D02*
X107376796Y-110217269D01*
X105667516Y-110766391D02*
X105677040Y-110775915D01*
X105677040Y-110775915D02*
X105686563Y-110804486D01*
X105686563Y-110804486D02*
X105686563Y-110823534D01*
X105686563Y-110823534D02*
X105677040Y-110852105D01*
X105677040Y-110852105D02*
X105657992Y-110871153D01*
X105657992Y-110871153D02*
X105638944Y-110880676D01*
X105638944Y-110880676D02*
X105600849Y-110890200D01*
X105600849Y-110890200D02*
X105572278Y-110890200D01*
X105572278Y-110890200D02*
X105534182Y-110880676D01*
X105534182Y-110880676D02*
X105515135Y-110871153D01*
X105515135Y-110871153D02*
X105496087Y-110852105D01*
X105496087Y-110852105D02*
X105486563Y-110823534D01*
X105486563Y-110823534D02*
X105486563Y-110804486D01*
X105486563Y-110804486D02*
X105496087Y-110775915D01*
X105496087Y-110775915D02*
X105505611Y-110766391D01*
X105686563Y-110575915D02*
X105686563Y-110690200D01*
X105686563Y-110633057D02*
X105486563Y-110633057D01*
X105486563Y-110633057D02*
X105515135Y-110652105D01*
X105515135Y-110652105D02*
X105534182Y-110671153D01*
X105534182Y-110671153D02*
X105543706Y-110690200D01*
X105486563Y-110394962D02*
X105486563Y-110490200D01*
X105486563Y-110490200D02*
X105581801Y-110499724D01*
X105581801Y-110499724D02*
X105572278Y-110490200D01*
X105572278Y-110490200D02*
X105562754Y-110471153D01*
X105562754Y-110471153D02*
X105562754Y-110423534D01*
X105562754Y-110423534D02*
X105572278Y-110404486D01*
X105572278Y-110404486D02*
X105581801Y-110394962D01*
X105581801Y-110394962D02*
X105600849Y-110385439D01*
X105600849Y-110385439D02*
X105648468Y-110385439D01*
X105648468Y-110385439D02*
X105667516Y-110394962D01*
X105667516Y-110394962D02*
X105677040Y-110404486D01*
X105677040Y-110404486D02*
X105686563Y-110423534D01*
X105686563Y-110423534D02*
X105686563Y-110471153D01*
X105686563Y-110471153D02*
X105677040Y-110490200D01*
X105677040Y-110490200D02*
X105667516Y-110499724D01*
X105644916Y-112937553D02*
X105654440Y-112947077D01*
X105654440Y-112947077D02*
X105663963Y-112975648D01*
X105663963Y-112975648D02*
X105663963Y-112994696D01*
X105663963Y-112994696D02*
X105654440Y-113023267D01*
X105654440Y-113023267D02*
X105635392Y-113042315D01*
X105635392Y-113042315D02*
X105616344Y-113051838D01*
X105616344Y-113051838D02*
X105578249Y-113061362D01*
X105578249Y-113061362D02*
X105549678Y-113061362D01*
X105549678Y-113061362D02*
X105511582Y-113051838D01*
X105511582Y-113051838D02*
X105492535Y-113042315D01*
X105492535Y-113042315D02*
X105473487Y-113023267D01*
X105473487Y-113023267D02*
X105463963Y-112994696D01*
X105463963Y-112994696D02*
X105463963Y-112975648D01*
X105463963Y-112975648D02*
X105473487Y-112947077D01*
X105473487Y-112947077D02*
X105483011Y-112937553D01*
X105663963Y-112842315D02*
X105663963Y-112804219D01*
X105663963Y-112804219D02*
X105654440Y-112785172D01*
X105654440Y-112785172D02*
X105644916Y-112775648D01*
X105644916Y-112775648D02*
X105616344Y-112756600D01*
X105616344Y-112756600D02*
X105578249Y-112747077D01*
X105578249Y-112747077D02*
X105502059Y-112747077D01*
X105502059Y-112747077D02*
X105483011Y-112756600D01*
X105483011Y-112756600D02*
X105473487Y-112766124D01*
X105473487Y-112766124D02*
X105463963Y-112785172D01*
X105463963Y-112785172D02*
X105463963Y-112823267D01*
X105463963Y-112823267D02*
X105473487Y-112842315D01*
X105473487Y-112842315D02*
X105483011Y-112851838D01*
X105483011Y-112851838D02*
X105502059Y-112861362D01*
X105502059Y-112861362D02*
X105549678Y-112861362D01*
X105549678Y-112861362D02*
X105568725Y-112851838D01*
X105568725Y-112851838D02*
X105578249Y-112842315D01*
X105578249Y-112842315D02*
X105587773Y-112823267D01*
X105587773Y-112823267D02*
X105587773Y-112785172D01*
X105587773Y-112785172D02*
X105578249Y-112766124D01*
X105578249Y-112766124D02*
X105568725Y-112756600D01*
X105568725Y-112756600D02*
X105549678Y-112747077D01*
X98108068Y-111953096D02*
X98098544Y-111962620D01*
X98098544Y-111962620D02*
X98069973Y-111972143D01*
X98069973Y-111972143D02*
X98050925Y-111972143D01*
X98050925Y-111972143D02*
X98022354Y-111962620D01*
X98022354Y-111962620D02*
X98003306Y-111943572D01*
X98003306Y-111943572D02*
X97993783Y-111924524D01*
X97993783Y-111924524D02*
X97984259Y-111886429D01*
X97984259Y-111886429D02*
X97984259Y-111857858D01*
X97984259Y-111857858D02*
X97993783Y-111819762D01*
X97993783Y-111819762D02*
X98003306Y-111800715D01*
X98003306Y-111800715D02*
X98022354Y-111781667D01*
X98022354Y-111781667D02*
X98050925Y-111772143D01*
X98050925Y-111772143D02*
X98069973Y-111772143D01*
X98069973Y-111772143D02*
X98098544Y-111781667D01*
X98098544Y-111781667D02*
X98108068Y-111791191D01*
X98184259Y-111791191D02*
X98193783Y-111781667D01*
X98193783Y-111781667D02*
X98212830Y-111772143D01*
X98212830Y-111772143D02*
X98260449Y-111772143D01*
X98260449Y-111772143D02*
X98279497Y-111781667D01*
X98279497Y-111781667D02*
X98289021Y-111791191D01*
X98289021Y-111791191D02*
X98298544Y-111810239D01*
X98298544Y-111810239D02*
X98298544Y-111829286D01*
X98298544Y-111829286D02*
X98289021Y-111857858D01*
X98289021Y-111857858D02*
X98174735Y-111972143D01*
X98174735Y-111972143D02*
X98298544Y-111972143D01*
X98365211Y-111772143D02*
X98489020Y-111772143D01*
X98489020Y-111772143D02*
X98422354Y-111848334D01*
X98422354Y-111848334D02*
X98450925Y-111848334D01*
X98450925Y-111848334D02*
X98469973Y-111857858D01*
X98469973Y-111857858D02*
X98479497Y-111867381D01*
X98479497Y-111867381D02*
X98489020Y-111886429D01*
X98489020Y-111886429D02*
X98489020Y-111934048D01*
X98489020Y-111934048D02*
X98479497Y-111953096D01*
X98479497Y-111953096D02*
X98469973Y-111962620D01*
X98469973Y-111962620D02*
X98450925Y-111972143D01*
X98450925Y-111972143D02*
X98393782Y-111972143D01*
X98393782Y-111972143D02*
X98374735Y-111962620D01*
X98374735Y-111962620D02*
X98365211Y-111953096D01*
X98108068Y-112511896D02*
X98098544Y-112521420D01*
X98098544Y-112521420D02*
X98069973Y-112530943D01*
X98069973Y-112530943D02*
X98050925Y-112530943D01*
X98050925Y-112530943D02*
X98022354Y-112521420D01*
X98022354Y-112521420D02*
X98003306Y-112502372D01*
X98003306Y-112502372D02*
X97993783Y-112483324D01*
X97993783Y-112483324D02*
X97984259Y-112445229D01*
X97984259Y-112445229D02*
X97984259Y-112416658D01*
X97984259Y-112416658D02*
X97993783Y-112378562D01*
X97993783Y-112378562D02*
X98003306Y-112359515D01*
X98003306Y-112359515D02*
X98022354Y-112340467D01*
X98022354Y-112340467D02*
X98050925Y-112330943D01*
X98050925Y-112330943D02*
X98069973Y-112330943D01*
X98069973Y-112330943D02*
X98098544Y-112340467D01*
X98098544Y-112340467D02*
X98108068Y-112349991D01*
X98184259Y-112349991D02*
X98193783Y-112340467D01*
X98193783Y-112340467D02*
X98212830Y-112330943D01*
X98212830Y-112330943D02*
X98260449Y-112330943D01*
X98260449Y-112330943D02*
X98279497Y-112340467D01*
X98279497Y-112340467D02*
X98289021Y-112349991D01*
X98289021Y-112349991D02*
X98298544Y-112369039D01*
X98298544Y-112369039D02*
X98298544Y-112388086D01*
X98298544Y-112388086D02*
X98289021Y-112416658D01*
X98289021Y-112416658D02*
X98174735Y-112530943D01*
X98174735Y-112530943D02*
X98298544Y-112530943D01*
X98374735Y-112349991D02*
X98384259Y-112340467D01*
X98384259Y-112340467D02*
X98403306Y-112330943D01*
X98403306Y-112330943D02*
X98450925Y-112330943D01*
X98450925Y-112330943D02*
X98469973Y-112340467D01*
X98469973Y-112340467D02*
X98479497Y-112349991D01*
X98479497Y-112349991D02*
X98489020Y-112369039D01*
X98489020Y-112369039D02*
X98489020Y-112388086D01*
X98489020Y-112388086D02*
X98479497Y-112416658D01*
X98479497Y-112416658D02*
X98365211Y-112530943D01*
X98365211Y-112530943D02*
X98489020Y-112530943D01*
X106203716Y-112937553D02*
X106213240Y-112947077D01*
X106213240Y-112947077D02*
X106222763Y-112975648D01*
X106222763Y-112975648D02*
X106222763Y-112994696D01*
X106222763Y-112994696D02*
X106213240Y-113023267D01*
X106213240Y-113023267D02*
X106194192Y-113042315D01*
X106194192Y-113042315D02*
X106175144Y-113051838D01*
X106175144Y-113051838D02*
X106137049Y-113061362D01*
X106137049Y-113061362D02*
X106108478Y-113061362D01*
X106108478Y-113061362D02*
X106070382Y-113051838D01*
X106070382Y-113051838D02*
X106051335Y-113042315D01*
X106051335Y-113042315D02*
X106032287Y-113023267D01*
X106032287Y-113023267D02*
X106022763Y-112994696D01*
X106022763Y-112994696D02*
X106022763Y-112975648D01*
X106022763Y-112975648D02*
X106032287Y-112947077D01*
X106032287Y-112947077D02*
X106041811Y-112937553D01*
X106108478Y-112823267D02*
X106098954Y-112842315D01*
X106098954Y-112842315D02*
X106089430Y-112851838D01*
X106089430Y-112851838D02*
X106070382Y-112861362D01*
X106070382Y-112861362D02*
X106060859Y-112861362D01*
X106060859Y-112861362D02*
X106041811Y-112851838D01*
X106041811Y-112851838D02*
X106032287Y-112842315D01*
X106032287Y-112842315D02*
X106022763Y-112823267D01*
X106022763Y-112823267D02*
X106022763Y-112785172D01*
X106022763Y-112785172D02*
X106032287Y-112766124D01*
X106032287Y-112766124D02*
X106041811Y-112756600D01*
X106041811Y-112756600D02*
X106060859Y-112747077D01*
X106060859Y-112747077D02*
X106070382Y-112747077D01*
X106070382Y-112747077D02*
X106089430Y-112756600D01*
X106089430Y-112756600D02*
X106098954Y-112766124D01*
X106098954Y-112766124D02*
X106108478Y-112785172D01*
X106108478Y-112785172D02*
X106108478Y-112823267D01*
X106108478Y-112823267D02*
X106118001Y-112842315D01*
X106118001Y-112842315D02*
X106127525Y-112851838D01*
X106127525Y-112851838D02*
X106146573Y-112861362D01*
X106146573Y-112861362D02*
X106184668Y-112861362D01*
X106184668Y-112861362D02*
X106203716Y-112851838D01*
X106203716Y-112851838D02*
X106213240Y-112842315D01*
X106213240Y-112842315D02*
X106222763Y-112823267D01*
X106222763Y-112823267D02*
X106222763Y-112785172D01*
X106222763Y-112785172D02*
X106213240Y-112766124D01*
X106213240Y-112766124D02*
X106203716Y-112756600D01*
X106203716Y-112756600D02*
X106184668Y-112747077D01*
X106184668Y-112747077D02*
X106146573Y-112747077D01*
X106146573Y-112747077D02*
X106127525Y-112756600D01*
X106127525Y-112756600D02*
X106118001Y-112766124D01*
X106118001Y-112766124D02*
X106108478Y-112785172D01*
X105086116Y-110766791D02*
X105095640Y-110776315D01*
X105095640Y-110776315D02*
X105105163Y-110804886D01*
X105105163Y-110804886D02*
X105105163Y-110823934D01*
X105105163Y-110823934D02*
X105095640Y-110852505D01*
X105095640Y-110852505D02*
X105076592Y-110871553D01*
X105076592Y-110871553D02*
X105057544Y-110881076D01*
X105057544Y-110881076D02*
X105019449Y-110890600D01*
X105019449Y-110890600D02*
X104990878Y-110890600D01*
X104990878Y-110890600D02*
X104952782Y-110881076D01*
X104952782Y-110881076D02*
X104933735Y-110871553D01*
X104933735Y-110871553D02*
X104914687Y-110852505D01*
X104914687Y-110852505D02*
X104905163Y-110823934D01*
X104905163Y-110823934D02*
X104905163Y-110804886D01*
X104905163Y-110804886D02*
X104914687Y-110776315D01*
X104914687Y-110776315D02*
X104924211Y-110766791D01*
X105105163Y-110576315D02*
X105105163Y-110690600D01*
X105105163Y-110633457D02*
X104905163Y-110633457D01*
X104905163Y-110633457D02*
X104933735Y-110652505D01*
X104933735Y-110652505D02*
X104952782Y-110671553D01*
X104952782Y-110671553D02*
X104962306Y-110690600D01*
X104905163Y-110404886D02*
X104905163Y-110442981D01*
X104905163Y-110442981D02*
X104914687Y-110462029D01*
X104914687Y-110462029D02*
X104924211Y-110471553D01*
X104924211Y-110471553D02*
X104952782Y-110490600D01*
X104952782Y-110490600D02*
X104990878Y-110500124D01*
X104990878Y-110500124D02*
X105067068Y-110500124D01*
X105067068Y-110500124D02*
X105086116Y-110490600D01*
X105086116Y-110490600D02*
X105095640Y-110481077D01*
X105095640Y-110481077D02*
X105105163Y-110462029D01*
X105105163Y-110462029D02*
X105105163Y-110423934D01*
X105105163Y-110423934D02*
X105095640Y-110404886D01*
X105095640Y-110404886D02*
X105086116Y-110395362D01*
X105086116Y-110395362D02*
X105067068Y-110385839D01*
X105067068Y-110385839D02*
X105019449Y-110385839D01*
X105019449Y-110385839D02*
X105000401Y-110395362D01*
X105000401Y-110395362D02*
X104990878Y-110404886D01*
X104990878Y-110404886D02*
X104981354Y-110423934D01*
X104981354Y-110423934D02*
X104981354Y-110462029D01*
X104981354Y-110462029D02*
X104990878Y-110481077D01*
X104990878Y-110481077D02*
X105000401Y-110490600D01*
X105000401Y-110490600D02*
X105019449Y-110500124D01*
X106962036Y-113285373D02*
X106971560Y-113294897D01*
X106971560Y-113294897D02*
X106981083Y-113323468D01*
X106981083Y-113323468D02*
X106981083Y-113342516D01*
X106981083Y-113342516D02*
X106971560Y-113371087D01*
X106971560Y-113371087D02*
X106952512Y-113390135D01*
X106952512Y-113390135D02*
X106933464Y-113399658D01*
X106933464Y-113399658D02*
X106895369Y-113409182D01*
X106895369Y-113409182D02*
X106866798Y-113409182D01*
X106866798Y-113409182D02*
X106828702Y-113399658D01*
X106828702Y-113399658D02*
X106809655Y-113390135D01*
X106809655Y-113390135D02*
X106790607Y-113371087D01*
X106790607Y-113371087D02*
X106781083Y-113342516D01*
X106781083Y-113342516D02*
X106781083Y-113323468D01*
X106781083Y-113323468D02*
X106790607Y-113294897D01*
X106790607Y-113294897D02*
X106800131Y-113285373D01*
X106781083Y-113218706D02*
X106781083Y-113085373D01*
X106781083Y-113085373D02*
X106981083Y-113171087D01*
X106385756Y-110383951D02*
X106395280Y-110393475D01*
X106395280Y-110393475D02*
X106404803Y-110422046D01*
X106404803Y-110422046D02*
X106404803Y-110441094D01*
X106404803Y-110441094D02*
X106395280Y-110469665D01*
X106395280Y-110469665D02*
X106376232Y-110488713D01*
X106376232Y-110488713D02*
X106357184Y-110498236D01*
X106357184Y-110498236D02*
X106319089Y-110507760D01*
X106319089Y-110507760D02*
X106290518Y-110507760D01*
X106290518Y-110507760D02*
X106252422Y-110498236D01*
X106252422Y-110498236D02*
X106233375Y-110488713D01*
X106233375Y-110488713D02*
X106214327Y-110469665D01*
X106214327Y-110469665D02*
X106204803Y-110441094D01*
X106204803Y-110441094D02*
X106204803Y-110422046D01*
X106204803Y-110422046D02*
X106214327Y-110393475D01*
X106214327Y-110393475D02*
X106223851Y-110383951D01*
X106404803Y-110193475D02*
X106404803Y-110307760D01*
X106404803Y-110250617D02*
X106204803Y-110250617D01*
X106204803Y-110250617D02*
X106233375Y-110269665D01*
X106233375Y-110269665D02*
X106252422Y-110288713D01*
X106252422Y-110288713D02*
X106261946Y-110307760D01*
X106271470Y-110022046D02*
X106404803Y-110022046D01*
X106195280Y-110069665D02*
X106338137Y-110117284D01*
X106338137Y-110117284D02*
X106338137Y-109993475D01*
X105261106Y-111546696D02*
X105251582Y-111556220D01*
X105251582Y-111556220D02*
X105223011Y-111565743D01*
X105223011Y-111565743D02*
X105203963Y-111565743D01*
X105203963Y-111565743D02*
X105175392Y-111556220D01*
X105175392Y-111556220D02*
X105156344Y-111537172D01*
X105156344Y-111537172D02*
X105146821Y-111518124D01*
X105146821Y-111518124D02*
X105137297Y-111480029D01*
X105137297Y-111480029D02*
X105137297Y-111451458D01*
X105137297Y-111451458D02*
X105146821Y-111413362D01*
X105146821Y-111413362D02*
X105156344Y-111394315D01*
X105156344Y-111394315D02*
X105175392Y-111375267D01*
X105175392Y-111375267D02*
X105203963Y-111365743D01*
X105203963Y-111365743D02*
X105223011Y-111365743D01*
X105223011Y-111365743D02*
X105251582Y-111375267D01*
X105251582Y-111375267D02*
X105261106Y-111384791D01*
X105327773Y-111365743D02*
X105451582Y-111365743D01*
X105451582Y-111365743D02*
X105384916Y-111441934D01*
X105384916Y-111441934D02*
X105413487Y-111441934D01*
X105413487Y-111441934D02*
X105432535Y-111451458D01*
X105432535Y-111451458D02*
X105442059Y-111460981D01*
X105442059Y-111460981D02*
X105451582Y-111480029D01*
X105451582Y-111480029D02*
X105451582Y-111527648D01*
X105451582Y-111527648D02*
X105442059Y-111546696D01*
X105442059Y-111546696D02*
X105432535Y-111556220D01*
X105432535Y-111556220D02*
X105413487Y-111565743D01*
X105413487Y-111565743D02*
X105356344Y-111565743D01*
X105356344Y-111565743D02*
X105337297Y-111556220D01*
X105337297Y-111556220D02*
X105327773Y-111546696D01*
X105261106Y-112130896D02*
X105251582Y-112140420D01*
X105251582Y-112140420D02*
X105223011Y-112149943D01*
X105223011Y-112149943D02*
X105203963Y-112149943D01*
X105203963Y-112149943D02*
X105175392Y-112140420D01*
X105175392Y-112140420D02*
X105156344Y-112121372D01*
X105156344Y-112121372D02*
X105146821Y-112102324D01*
X105146821Y-112102324D02*
X105137297Y-112064229D01*
X105137297Y-112064229D02*
X105137297Y-112035658D01*
X105137297Y-112035658D02*
X105146821Y-111997562D01*
X105146821Y-111997562D02*
X105156344Y-111978515D01*
X105156344Y-111978515D02*
X105175392Y-111959467D01*
X105175392Y-111959467D02*
X105203963Y-111949943D01*
X105203963Y-111949943D02*
X105223011Y-111949943D01*
X105223011Y-111949943D02*
X105251582Y-111959467D01*
X105251582Y-111959467D02*
X105261106Y-111968991D01*
X105432535Y-112016610D02*
X105432535Y-112149943D01*
X105384916Y-111940420D02*
X105337297Y-112083277D01*
X105337297Y-112083277D02*
X105461106Y-112083277D01*
X106178316Y-115191791D02*
X106187840Y-115201315D01*
X106187840Y-115201315D02*
X106197363Y-115229886D01*
X106197363Y-115229886D02*
X106197363Y-115248934D01*
X106197363Y-115248934D02*
X106187840Y-115277505D01*
X106187840Y-115277505D02*
X106168792Y-115296553D01*
X106168792Y-115296553D02*
X106149744Y-115306076D01*
X106149744Y-115306076D02*
X106111649Y-115315600D01*
X106111649Y-115315600D02*
X106083078Y-115315600D01*
X106083078Y-115315600D02*
X106044982Y-115306076D01*
X106044982Y-115306076D02*
X106025935Y-115296553D01*
X106025935Y-115296553D02*
X106006887Y-115277505D01*
X106006887Y-115277505D02*
X105997363Y-115248934D01*
X105997363Y-115248934D02*
X105997363Y-115229886D01*
X105997363Y-115229886D02*
X106006887Y-115201315D01*
X106006887Y-115201315D02*
X106016411Y-115191791D01*
X106197363Y-115001315D02*
X106197363Y-115115600D01*
X106197363Y-115058457D02*
X105997363Y-115058457D01*
X105997363Y-115058457D02*
X106025935Y-115077505D01*
X106025935Y-115077505D02*
X106044982Y-115096553D01*
X106044982Y-115096553D02*
X106054506Y-115115600D01*
X105997363Y-114934648D02*
X105997363Y-114810839D01*
X105997363Y-114810839D02*
X106073554Y-114877505D01*
X106073554Y-114877505D02*
X106073554Y-114848934D01*
X106073554Y-114848934D02*
X106083078Y-114829886D01*
X106083078Y-114829886D02*
X106092601Y-114820362D01*
X106092601Y-114820362D02*
X106111649Y-114810839D01*
X106111649Y-114810839D02*
X106159268Y-114810839D01*
X106159268Y-114810839D02*
X106178316Y-114820362D01*
X106178316Y-114820362D02*
X106187840Y-114829886D01*
X106187840Y-114829886D02*
X106197363Y-114848934D01*
X106197363Y-114848934D02*
X106197363Y-114906077D01*
X106197363Y-114906077D02*
X106187840Y-114925124D01*
X106187840Y-114925124D02*
X106178316Y-114934648D01*
X105640876Y-108419391D02*
X105650400Y-108428915D01*
X105650400Y-108428915D02*
X105659923Y-108457486D01*
X105659923Y-108457486D02*
X105659923Y-108476534D01*
X105659923Y-108476534D02*
X105650400Y-108505105D01*
X105650400Y-108505105D02*
X105631352Y-108524153D01*
X105631352Y-108524153D02*
X105612304Y-108533676D01*
X105612304Y-108533676D02*
X105574209Y-108543200D01*
X105574209Y-108543200D02*
X105545638Y-108543200D01*
X105545638Y-108543200D02*
X105507542Y-108533676D01*
X105507542Y-108533676D02*
X105488495Y-108524153D01*
X105488495Y-108524153D02*
X105469447Y-108505105D01*
X105469447Y-108505105D02*
X105459923Y-108476534D01*
X105459923Y-108476534D02*
X105459923Y-108457486D01*
X105459923Y-108457486D02*
X105469447Y-108428915D01*
X105469447Y-108428915D02*
X105478971Y-108419391D01*
X105478971Y-108343200D02*
X105469447Y-108333676D01*
X105469447Y-108333676D02*
X105459923Y-108314629D01*
X105459923Y-108314629D02*
X105459923Y-108267010D01*
X105459923Y-108267010D02*
X105469447Y-108247962D01*
X105469447Y-108247962D02*
X105478971Y-108238438D01*
X105478971Y-108238438D02*
X105498019Y-108228915D01*
X105498019Y-108228915D02*
X105517066Y-108228915D01*
X105517066Y-108228915D02*
X105545638Y-108238438D01*
X105545638Y-108238438D02*
X105659923Y-108352724D01*
X105659923Y-108352724D02*
X105659923Y-108228915D01*
X105545638Y-108114629D02*
X105536114Y-108133677D01*
X105536114Y-108133677D02*
X105526590Y-108143200D01*
X105526590Y-108143200D02*
X105507542Y-108152724D01*
X105507542Y-108152724D02*
X105498019Y-108152724D01*
X105498019Y-108152724D02*
X105478971Y-108143200D01*
X105478971Y-108143200D02*
X105469447Y-108133677D01*
X105469447Y-108133677D02*
X105459923Y-108114629D01*
X105459923Y-108114629D02*
X105459923Y-108076534D01*
X105459923Y-108076534D02*
X105469447Y-108057486D01*
X105469447Y-108057486D02*
X105478971Y-108047962D01*
X105478971Y-108047962D02*
X105498019Y-108038439D01*
X105498019Y-108038439D02*
X105507542Y-108038439D01*
X105507542Y-108038439D02*
X105526590Y-108047962D01*
X105526590Y-108047962D02*
X105536114Y-108057486D01*
X105536114Y-108057486D02*
X105545638Y-108076534D01*
X105545638Y-108076534D02*
X105545638Y-108114629D01*
X105545638Y-108114629D02*
X105555161Y-108133677D01*
X105555161Y-108133677D02*
X105564685Y-108143200D01*
X105564685Y-108143200D02*
X105583733Y-108152724D01*
X105583733Y-108152724D02*
X105621828Y-108152724D01*
X105621828Y-108152724D02*
X105640876Y-108143200D01*
X105640876Y-108143200D02*
X105650400Y-108133677D01*
X105650400Y-108133677D02*
X105659923Y-108114629D01*
X105659923Y-108114629D02*
X105659923Y-108076534D01*
X105659923Y-108076534D02*
X105650400Y-108057486D01*
X105650400Y-108057486D02*
X105640876Y-108047962D01*
X105640876Y-108047962D02*
X105621828Y-108038439D01*
X105621828Y-108038439D02*
X105583733Y-108038439D01*
X105583733Y-108038439D02*
X105564685Y-108047962D01*
X105564685Y-108047962D02*
X105555161Y-108057486D01*
X105555161Y-108057486D02*
X105545638Y-108076534D01*
X98108068Y-113070696D02*
X98098544Y-113080220D01*
X98098544Y-113080220D02*
X98069973Y-113089743D01*
X98069973Y-113089743D02*
X98050925Y-113089743D01*
X98050925Y-113089743D02*
X98022354Y-113080220D01*
X98022354Y-113080220D02*
X98003306Y-113061172D01*
X98003306Y-113061172D02*
X97993783Y-113042124D01*
X97993783Y-113042124D02*
X97984259Y-113004029D01*
X97984259Y-113004029D02*
X97984259Y-112975458D01*
X97984259Y-112975458D02*
X97993783Y-112937362D01*
X97993783Y-112937362D02*
X98003306Y-112918315D01*
X98003306Y-112918315D02*
X98022354Y-112899267D01*
X98022354Y-112899267D02*
X98050925Y-112889743D01*
X98050925Y-112889743D02*
X98069973Y-112889743D01*
X98069973Y-112889743D02*
X98098544Y-112899267D01*
X98098544Y-112899267D02*
X98108068Y-112908791D01*
X98174735Y-112889743D02*
X98298544Y-112889743D01*
X98298544Y-112889743D02*
X98231878Y-112965934D01*
X98231878Y-112965934D02*
X98260449Y-112965934D01*
X98260449Y-112965934D02*
X98279497Y-112975458D01*
X98279497Y-112975458D02*
X98289021Y-112984981D01*
X98289021Y-112984981D02*
X98298544Y-113004029D01*
X98298544Y-113004029D02*
X98298544Y-113051648D01*
X98298544Y-113051648D02*
X98289021Y-113070696D01*
X98289021Y-113070696D02*
X98279497Y-113080220D01*
X98279497Y-113080220D02*
X98260449Y-113089743D01*
X98260449Y-113089743D02*
X98203306Y-113089743D01*
X98203306Y-113089743D02*
X98184259Y-113080220D01*
X98184259Y-113080220D02*
X98174735Y-113070696D01*
X98412830Y-112975458D02*
X98393782Y-112965934D01*
X98393782Y-112965934D02*
X98384259Y-112956410D01*
X98384259Y-112956410D02*
X98374735Y-112937362D01*
X98374735Y-112937362D02*
X98374735Y-112927839D01*
X98374735Y-112927839D02*
X98384259Y-112908791D01*
X98384259Y-112908791D02*
X98393782Y-112899267D01*
X98393782Y-112899267D02*
X98412830Y-112889743D01*
X98412830Y-112889743D02*
X98450925Y-112889743D01*
X98450925Y-112889743D02*
X98469973Y-112899267D01*
X98469973Y-112899267D02*
X98479497Y-112908791D01*
X98479497Y-112908791D02*
X98489020Y-112927839D01*
X98489020Y-112927839D02*
X98489020Y-112937362D01*
X98489020Y-112937362D02*
X98479497Y-112956410D01*
X98479497Y-112956410D02*
X98469973Y-112965934D01*
X98469973Y-112965934D02*
X98450925Y-112975458D01*
X98450925Y-112975458D02*
X98412830Y-112975458D01*
X98412830Y-112975458D02*
X98393782Y-112984981D01*
X98393782Y-112984981D02*
X98384259Y-112994505D01*
X98384259Y-112994505D02*
X98374735Y-113013553D01*
X98374735Y-113013553D02*
X98374735Y-113051648D01*
X98374735Y-113051648D02*
X98384259Y-113070696D01*
X98384259Y-113070696D02*
X98393782Y-113080220D01*
X98393782Y-113080220D02*
X98412830Y-113089743D01*
X98412830Y-113089743D02*
X98450925Y-113089743D01*
X98450925Y-113089743D02*
X98469973Y-113080220D01*
X98469973Y-113080220D02*
X98479497Y-113070696D01*
X98479497Y-113070696D02*
X98489020Y-113051648D01*
X98489020Y-113051648D02*
X98489020Y-113013553D01*
X98489020Y-113013553D02*
X98479497Y-112994505D01*
X98479497Y-112994505D02*
X98469973Y-112984981D01*
X98469973Y-112984981D02*
X98450925Y-112975458D01*
X102002516Y-108439391D02*
X102012040Y-108448915D01*
X102012040Y-108448915D02*
X102021563Y-108477486D01*
X102021563Y-108477486D02*
X102021563Y-108496534D01*
X102021563Y-108496534D02*
X102012040Y-108525105D01*
X102012040Y-108525105D02*
X101992992Y-108544153D01*
X101992992Y-108544153D02*
X101973944Y-108553676D01*
X101973944Y-108553676D02*
X101935849Y-108563200D01*
X101935849Y-108563200D02*
X101907278Y-108563200D01*
X101907278Y-108563200D02*
X101869182Y-108553676D01*
X101869182Y-108553676D02*
X101850135Y-108544153D01*
X101850135Y-108544153D02*
X101831087Y-108525105D01*
X101831087Y-108525105D02*
X101821563Y-108496534D01*
X101821563Y-108496534D02*
X101821563Y-108477486D01*
X101821563Y-108477486D02*
X101831087Y-108448915D01*
X101831087Y-108448915D02*
X101840611Y-108439391D01*
X101821563Y-108372724D02*
X101821563Y-108248915D01*
X101821563Y-108248915D02*
X101897754Y-108315581D01*
X101897754Y-108315581D02*
X101897754Y-108287010D01*
X101897754Y-108287010D02*
X101907278Y-108267962D01*
X101907278Y-108267962D02*
X101916801Y-108258438D01*
X101916801Y-108258438D02*
X101935849Y-108248915D01*
X101935849Y-108248915D02*
X101983468Y-108248915D01*
X101983468Y-108248915D02*
X102002516Y-108258438D01*
X102002516Y-108258438D02*
X102012040Y-108267962D01*
X102012040Y-108267962D02*
X102021563Y-108287010D01*
X102021563Y-108287010D02*
X102021563Y-108344153D01*
X102021563Y-108344153D02*
X102012040Y-108363200D01*
X102012040Y-108363200D02*
X102002516Y-108372724D01*
X102021563Y-108153677D02*
X102021563Y-108115581D01*
X102021563Y-108115581D02*
X102012040Y-108096534D01*
X102012040Y-108096534D02*
X102002516Y-108087010D01*
X102002516Y-108087010D02*
X101973944Y-108067962D01*
X101973944Y-108067962D02*
X101935849Y-108058439D01*
X101935849Y-108058439D02*
X101859659Y-108058439D01*
X101859659Y-108058439D02*
X101840611Y-108067962D01*
X101840611Y-108067962D02*
X101831087Y-108077486D01*
X101831087Y-108077486D02*
X101821563Y-108096534D01*
X101821563Y-108096534D02*
X101821563Y-108134629D01*
X101821563Y-108134629D02*
X101831087Y-108153677D01*
X101831087Y-108153677D02*
X101840611Y-108163200D01*
X101840611Y-108163200D02*
X101859659Y-108172724D01*
X101859659Y-108172724D02*
X101907278Y-108172724D01*
X101907278Y-108172724D02*
X101926325Y-108163200D01*
X101926325Y-108163200D02*
X101935849Y-108153677D01*
X101935849Y-108153677D02*
X101945373Y-108134629D01*
X101945373Y-108134629D02*
X101945373Y-108096534D01*
X101945373Y-108096534D02*
X101935849Y-108077486D01*
X101935849Y-108077486D02*
X101926325Y-108067962D01*
X101926325Y-108067962D02*
X101907278Y-108058439D01*
X98188276Y-114679031D02*
X98197800Y-114688555D01*
X98197800Y-114688555D02*
X98207323Y-114717126D01*
X98207323Y-114717126D02*
X98207323Y-114736174D01*
X98207323Y-114736174D02*
X98197800Y-114764745D01*
X98197800Y-114764745D02*
X98178752Y-114783793D01*
X98178752Y-114783793D02*
X98159704Y-114793316D01*
X98159704Y-114793316D02*
X98121609Y-114802840D01*
X98121609Y-114802840D02*
X98093038Y-114802840D01*
X98093038Y-114802840D02*
X98054942Y-114793316D01*
X98054942Y-114793316D02*
X98035895Y-114783793D01*
X98035895Y-114783793D02*
X98016847Y-114764745D01*
X98016847Y-114764745D02*
X98007323Y-114736174D01*
X98007323Y-114736174D02*
X98007323Y-114717126D01*
X98007323Y-114717126D02*
X98016847Y-114688555D01*
X98016847Y-114688555D02*
X98026371Y-114679031D01*
X98073990Y-114507602D02*
X98207323Y-114507602D01*
X97997800Y-114555221D02*
X98140657Y-114602840D01*
X98140657Y-114602840D02*
X98140657Y-114479031D01*
X98007323Y-114364745D02*
X98007323Y-114345698D01*
X98007323Y-114345698D02*
X98016847Y-114326650D01*
X98016847Y-114326650D02*
X98026371Y-114317126D01*
X98026371Y-114317126D02*
X98045419Y-114307602D01*
X98045419Y-114307602D02*
X98083514Y-114298079D01*
X98083514Y-114298079D02*
X98131133Y-114298079D01*
X98131133Y-114298079D02*
X98169228Y-114307602D01*
X98169228Y-114307602D02*
X98188276Y-114317126D01*
X98188276Y-114317126D02*
X98197800Y-114326650D01*
X98197800Y-114326650D02*
X98207323Y-114345698D01*
X98207323Y-114345698D02*
X98207323Y-114364745D01*
X98207323Y-114364745D02*
X98197800Y-114383793D01*
X98197800Y-114383793D02*
X98188276Y-114393317D01*
X98188276Y-114393317D02*
X98169228Y-114402840D01*
X98169228Y-114402840D02*
X98131133Y-114412364D01*
X98131133Y-114412364D02*
X98083514Y-114412364D01*
X98083514Y-114412364D02*
X98045419Y-114402840D01*
X98045419Y-114402840D02*
X98026371Y-114393317D01*
X98026371Y-114393317D02*
X98016847Y-114383793D01*
X98016847Y-114383793D02*
X98007323Y-114364745D01*
X102713716Y-108439391D02*
X102723240Y-108448915D01*
X102723240Y-108448915D02*
X102732763Y-108477486D01*
X102732763Y-108477486D02*
X102732763Y-108496534D01*
X102732763Y-108496534D02*
X102723240Y-108525105D01*
X102723240Y-108525105D02*
X102704192Y-108544153D01*
X102704192Y-108544153D02*
X102685144Y-108553676D01*
X102685144Y-108553676D02*
X102647049Y-108563200D01*
X102647049Y-108563200D02*
X102618478Y-108563200D01*
X102618478Y-108563200D02*
X102580382Y-108553676D01*
X102580382Y-108553676D02*
X102561335Y-108544153D01*
X102561335Y-108544153D02*
X102542287Y-108525105D01*
X102542287Y-108525105D02*
X102532763Y-108496534D01*
X102532763Y-108496534D02*
X102532763Y-108477486D01*
X102532763Y-108477486D02*
X102542287Y-108448915D01*
X102542287Y-108448915D02*
X102551811Y-108439391D01*
X102532763Y-108372724D02*
X102532763Y-108248915D01*
X102532763Y-108248915D02*
X102608954Y-108315581D01*
X102608954Y-108315581D02*
X102608954Y-108287010D01*
X102608954Y-108287010D02*
X102618478Y-108267962D01*
X102618478Y-108267962D02*
X102628001Y-108258438D01*
X102628001Y-108258438D02*
X102647049Y-108248915D01*
X102647049Y-108248915D02*
X102694668Y-108248915D01*
X102694668Y-108248915D02*
X102713716Y-108258438D01*
X102713716Y-108258438D02*
X102723240Y-108267962D01*
X102723240Y-108267962D02*
X102732763Y-108287010D01*
X102732763Y-108287010D02*
X102732763Y-108344153D01*
X102732763Y-108344153D02*
X102723240Y-108363200D01*
X102723240Y-108363200D02*
X102713716Y-108372724D01*
X102732763Y-108058439D02*
X102732763Y-108172724D01*
X102732763Y-108115581D02*
X102532763Y-108115581D01*
X102532763Y-108115581D02*
X102561335Y-108134629D01*
X102561335Y-108134629D02*
X102580382Y-108153677D01*
X102580382Y-108153677D02*
X102589906Y-108172724D01*
X107721428Y-112820876D02*
X107711904Y-112830400D01*
X107711904Y-112830400D02*
X107683333Y-112839923D01*
X107683333Y-112839923D02*
X107664285Y-112839923D01*
X107664285Y-112839923D02*
X107635714Y-112830400D01*
X107635714Y-112830400D02*
X107616666Y-112811352D01*
X107616666Y-112811352D02*
X107607143Y-112792304D01*
X107607143Y-112792304D02*
X107597619Y-112754209D01*
X107597619Y-112754209D02*
X107597619Y-112725638D01*
X107597619Y-112725638D02*
X107607143Y-112687542D01*
X107607143Y-112687542D02*
X107616666Y-112668495D01*
X107616666Y-112668495D02*
X107635714Y-112649447D01*
X107635714Y-112649447D02*
X107664285Y-112639923D01*
X107664285Y-112639923D02*
X107683333Y-112639923D01*
X107683333Y-112639923D02*
X107711904Y-112649447D01*
X107711904Y-112649447D02*
X107721428Y-112658971D01*
X107892857Y-112706590D02*
X107892857Y-112839923D01*
X107845238Y-112630400D02*
X107797619Y-112773257D01*
X107797619Y-112773257D02*
X107921428Y-112773257D01*
X108102380Y-112839923D02*
X107988095Y-112839923D01*
X108045238Y-112839923D02*
X108045238Y-112639923D01*
X108045238Y-112639923D02*
X108026190Y-112668495D01*
X108026190Y-112668495D02*
X108007142Y-112687542D01*
X108007142Y-112687542D02*
X107988095Y-112697066D01*
X104120916Y-118011191D02*
X104130440Y-118020715D01*
X104130440Y-118020715D02*
X104139963Y-118049286D01*
X104139963Y-118049286D02*
X104139963Y-118068334D01*
X104139963Y-118068334D02*
X104130440Y-118096905D01*
X104130440Y-118096905D02*
X104111392Y-118115953D01*
X104111392Y-118115953D02*
X104092344Y-118125476D01*
X104092344Y-118125476D02*
X104054249Y-118135000D01*
X104054249Y-118135000D02*
X104025678Y-118135000D01*
X104025678Y-118135000D02*
X103987582Y-118125476D01*
X103987582Y-118125476D02*
X103968535Y-118115953D01*
X103968535Y-118115953D02*
X103949487Y-118096905D01*
X103949487Y-118096905D02*
X103939963Y-118068334D01*
X103939963Y-118068334D02*
X103939963Y-118049286D01*
X103939963Y-118049286D02*
X103949487Y-118020715D01*
X103949487Y-118020715D02*
X103959011Y-118011191D01*
X103939963Y-117944524D02*
X103939963Y-117820715D01*
X103939963Y-117820715D02*
X104016154Y-117887381D01*
X104016154Y-117887381D02*
X104016154Y-117858810D01*
X104016154Y-117858810D02*
X104025678Y-117839762D01*
X104025678Y-117839762D02*
X104035201Y-117830238D01*
X104035201Y-117830238D02*
X104054249Y-117820715D01*
X104054249Y-117820715D02*
X104101868Y-117820715D01*
X104101868Y-117820715D02*
X104120916Y-117830238D01*
X104120916Y-117830238D02*
X104130440Y-117839762D01*
X104130440Y-117839762D02*
X104139963Y-117858810D01*
X104139963Y-117858810D02*
X104139963Y-117915953D01*
X104139963Y-117915953D02*
X104130440Y-117935000D01*
X104130440Y-117935000D02*
X104120916Y-117944524D01*
X103959011Y-117744524D02*
X103949487Y-117735000D01*
X103949487Y-117735000D02*
X103939963Y-117715953D01*
X103939963Y-117715953D02*
X103939963Y-117668334D01*
X103939963Y-117668334D02*
X103949487Y-117649286D01*
X103949487Y-117649286D02*
X103959011Y-117639762D01*
X103959011Y-117639762D02*
X103978059Y-117630239D01*
X103978059Y-117630239D02*
X103997106Y-117630239D01*
X103997106Y-117630239D02*
X104025678Y-117639762D01*
X104025678Y-117639762D02*
X104139963Y-117754048D01*
X104139963Y-117754048D02*
X104139963Y-117630239D01*
X102698516Y-118011191D02*
X102708040Y-118020715D01*
X102708040Y-118020715D02*
X102717563Y-118049286D01*
X102717563Y-118049286D02*
X102717563Y-118068334D01*
X102717563Y-118068334D02*
X102708040Y-118096905D01*
X102708040Y-118096905D02*
X102688992Y-118115953D01*
X102688992Y-118115953D02*
X102669944Y-118125476D01*
X102669944Y-118125476D02*
X102631849Y-118135000D01*
X102631849Y-118135000D02*
X102603278Y-118135000D01*
X102603278Y-118135000D02*
X102565182Y-118125476D01*
X102565182Y-118125476D02*
X102546135Y-118115953D01*
X102546135Y-118115953D02*
X102527087Y-118096905D01*
X102527087Y-118096905D02*
X102517563Y-118068334D01*
X102517563Y-118068334D02*
X102517563Y-118049286D01*
X102517563Y-118049286D02*
X102527087Y-118020715D01*
X102527087Y-118020715D02*
X102536611Y-118011191D01*
X102517563Y-117944524D02*
X102517563Y-117820715D01*
X102517563Y-117820715D02*
X102593754Y-117887381D01*
X102593754Y-117887381D02*
X102593754Y-117858810D01*
X102593754Y-117858810D02*
X102603278Y-117839762D01*
X102603278Y-117839762D02*
X102612801Y-117830238D01*
X102612801Y-117830238D02*
X102631849Y-117820715D01*
X102631849Y-117820715D02*
X102679468Y-117820715D01*
X102679468Y-117820715D02*
X102698516Y-117830238D01*
X102698516Y-117830238D02*
X102708040Y-117839762D01*
X102708040Y-117839762D02*
X102717563Y-117858810D01*
X102717563Y-117858810D02*
X102717563Y-117915953D01*
X102717563Y-117915953D02*
X102708040Y-117935000D01*
X102708040Y-117935000D02*
X102698516Y-117944524D01*
X102517563Y-117754048D02*
X102517563Y-117630239D01*
X102517563Y-117630239D02*
X102593754Y-117696905D01*
X102593754Y-117696905D02*
X102593754Y-117668334D01*
X102593754Y-117668334D02*
X102603278Y-117649286D01*
X102603278Y-117649286D02*
X102612801Y-117639762D01*
X102612801Y-117639762D02*
X102631849Y-117630239D01*
X102631849Y-117630239D02*
X102679468Y-117630239D01*
X102679468Y-117630239D02*
X102698516Y-117639762D01*
X102698516Y-117639762D02*
X102708040Y-117649286D01*
X102708040Y-117649286D02*
X102717563Y-117668334D01*
X102717563Y-117668334D02*
X102717563Y-117725477D01*
X102717563Y-117725477D02*
X102708040Y-117744524D01*
X102708040Y-117744524D02*
X102698516Y-117754048D01*
X106428076Y-108786231D02*
X106437600Y-108795755D01*
X106437600Y-108795755D02*
X106447123Y-108824326D01*
X106447123Y-108824326D02*
X106447123Y-108843374D01*
X106447123Y-108843374D02*
X106437600Y-108871945D01*
X106437600Y-108871945D02*
X106418552Y-108890993D01*
X106418552Y-108890993D02*
X106399504Y-108900516D01*
X106399504Y-108900516D02*
X106361409Y-108910040D01*
X106361409Y-108910040D02*
X106332838Y-108910040D01*
X106332838Y-108910040D02*
X106294742Y-108900516D01*
X106294742Y-108900516D02*
X106275695Y-108890993D01*
X106275695Y-108890993D02*
X106256647Y-108871945D01*
X106256647Y-108871945D02*
X106247123Y-108843374D01*
X106247123Y-108843374D02*
X106247123Y-108824326D01*
X106247123Y-108824326D02*
X106256647Y-108795755D01*
X106256647Y-108795755D02*
X106266171Y-108786231D01*
X106247123Y-108719564D02*
X106247123Y-108595755D01*
X106247123Y-108595755D02*
X106323314Y-108662421D01*
X106323314Y-108662421D02*
X106323314Y-108633850D01*
X106323314Y-108633850D02*
X106332838Y-108614802D01*
X106332838Y-108614802D02*
X106342361Y-108605278D01*
X106342361Y-108605278D02*
X106361409Y-108595755D01*
X106361409Y-108595755D02*
X106409028Y-108595755D01*
X106409028Y-108595755D02*
X106428076Y-108605278D01*
X106428076Y-108605278D02*
X106437600Y-108614802D01*
X106437600Y-108614802D02*
X106447123Y-108633850D01*
X106447123Y-108633850D02*
X106447123Y-108690993D01*
X106447123Y-108690993D02*
X106437600Y-108710040D01*
X106437600Y-108710040D02*
X106428076Y-108719564D01*
X106313790Y-108424326D02*
X106447123Y-108424326D01*
X106237600Y-108471945D02*
X106380457Y-108519564D01*
X106380457Y-108519564D02*
X106380457Y-108395755D01*
X98108068Y-111388696D02*
X98098544Y-111398220D01*
X98098544Y-111398220D02*
X98069973Y-111407743D01*
X98069973Y-111407743D02*
X98050925Y-111407743D01*
X98050925Y-111407743D02*
X98022354Y-111398220D01*
X98022354Y-111398220D02*
X98003306Y-111379172D01*
X98003306Y-111379172D02*
X97993783Y-111360124D01*
X97993783Y-111360124D02*
X97984259Y-111322029D01*
X97984259Y-111322029D02*
X97984259Y-111293458D01*
X97984259Y-111293458D02*
X97993783Y-111255362D01*
X97993783Y-111255362D02*
X98003306Y-111236315D01*
X98003306Y-111236315D02*
X98022354Y-111217267D01*
X98022354Y-111217267D02*
X98050925Y-111207743D01*
X98050925Y-111207743D02*
X98069973Y-111207743D01*
X98069973Y-111207743D02*
X98098544Y-111217267D01*
X98098544Y-111217267D02*
X98108068Y-111226791D01*
X98174735Y-111207743D02*
X98298544Y-111207743D01*
X98298544Y-111207743D02*
X98231878Y-111283934D01*
X98231878Y-111283934D02*
X98260449Y-111283934D01*
X98260449Y-111283934D02*
X98279497Y-111293458D01*
X98279497Y-111293458D02*
X98289021Y-111302981D01*
X98289021Y-111302981D02*
X98298544Y-111322029D01*
X98298544Y-111322029D02*
X98298544Y-111369648D01*
X98298544Y-111369648D02*
X98289021Y-111388696D01*
X98289021Y-111388696D02*
X98279497Y-111398220D01*
X98279497Y-111398220D02*
X98260449Y-111407743D01*
X98260449Y-111407743D02*
X98203306Y-111407743D01*
X98203306Y-111407743D02*
X98184259Y-111398220D01*
X98184259Y-111398220D02*
X98174735Y-111388696D01*
X98479497Y-111207743D02*
X98384259Y-111207743D01*
X98384259Y-111207743D02*
X98374735Y-111302981D01*
X98374735Y-111302981D02*
X98384259Y-111293458D01*
X98384259Y-111293458D02*
X98403306Y-111283934D01*
X98403306Y-111283934D02*
X98450925Y-111283934D01*
X98450925Y-111283934D02*
X98469973Y-111293458D01*
X98469973Y-111293458D02*
X98479497Y-111302981D01*
X98479497Y-111302981D02*
X98489020Y-111322029D01*
X98489020Y-111322029D02*
X98489020Y-111369648D01*
X98489020Y-111369648D02*
X98479497Y-111388696D01*
X98479497Y-111388696D02*
X98469973Y-111398220D01*
X98469973Y-111398220D02*
X98450925Y-111407743D01*
X98450925Y-111407743D02*
X98403306Y-111407743D01*
X98403306Y-111407743D02*
X98384259Y-111398220D01*
X98384259Y-111398220D02*
X98374735Y-111388696D01*
X100580876Y-117410991D02*
X100590400Y-117420515D01*
X100590400Y-117420515D02*
X100599923Y-117449086D01*
X100599923Y-117449086D02*
X100599923Y-117468134D01*
X100599923Y-117468134D02*
X100590400Y-117496705D01*
X100590400Y-117496705D02*
X100571352Y-117515753D01*
X100571352Y-117515753D02*
X100552304Y-117525276D01*
X100552304Y-117525276D02*
X100514209Y-117534800D01*
X100514209Y-117534800D02*
X100485638Y-117534800D01*
X100485638Y-117534800D02*
X100447542Y-117525276D01*
X100447542Y-117525276D02*
X100428495Y-117515753D01*
X100428495Y-117515753D02*
X100409447Y-117496705D01*
X100409447Y-117496705D02*
X100399923Y-117468134D01*
X100399923Y-117468134D02*
X100399923Y-117449086D01*
X100399923Y-117449086D02*
X100409447Y-117420515D01*
X100409447Y-117420515D02*
X100418971Y-117410991D01*
X100466590Y-117239562D02*
X100599923Y-117239562D01*
X100390400Y-117287181D02*
X100533257Y-117334800D01*
X100533257Y-117334800D02*
X100533257Y-117210991D01*
X100466590Y-117049086D02*
X100599923Y-117049086D01*
X100390400Y-117096705D02*
X100533257Y-117144324D01*
X100533257Y-117144324D02*
X100533257Y-117020515D01*
X101671843Y-115112463D02*
X101671843Y-114912463D01*
X101671843Y-114912463D02*
X101719462Y-114912463D01*
X101719462Y-114912463D02*
X101748033Y-114921987D01*
X101748033Y-114921987D02*
X101767081Y-114941035D01*
X101767081Y-114941035D02*
X101776604Y-114960082D01*
X101776604Y-114960082D02*
X101786128Y-114998178D01*
X101786128Y-114998178D02*
X101786128Y-115026749D01*
X101786128Y-115026749D02*
X101776604Y-115064844D01*
X101776604Y-115064844D02*
X101767081Y-115083892D01*
X101767081Y-115083892D02*
X101748033Y-115102940D01*
X101748033Y-115102940D02*
X101719462Y-115112463D01*
X101719462Y-115112463D02*
X101671843Y-115112463D01*
X101976604Y-115112463D02*
X101862319Y-115112463D01*
X101919462Y-115112463D02*
X101919462Y-114912463D01*
X101919462Y-114912463D02*
X101900414Y-114941035D01*
X101900414Y-114941035D02*
X101881366Y-114960082D01*
X101881366Y-114960082D02*
X101862319Y-114969606D01*
X102071842Y-115112463D02*
X102109938Y-115112463D01*
X102109938Y-115112463D02*
X102128985Y-115102940D01*
X102128985Y-115102940D02*
X102138509Y-115093416D01*
X102138509Y-115093416D02*
X102157557Y-115064844D01*
X102157557Y-115064844D02*
X102167080Y-115026749D01*
X102167080Y-115026749D02*
X102167080Y-114950559D01*
X102167080Y-114950559D02*
X102157557Y-114931511D01*
X102157557Y-114931511D02*
X102148033Y-114921987D01*
X102148033Y-114921987D02*
X102128985Y-114912463D01*
X102128985Y-114912463D02*
X102090890Y-114912463D01*
X102090890Y-114912463D02*
X102071842Y-114921987D01*
X102071842Y-114921987D02*
X102062319Y-114931511D01*
X102062319Y-114931511D02*
X102052795Y-114950559D01*
X102052795Y-114950559D02*
X102052795Y-114998178D01*
X102052795Y-114998178D02*
X102062319Y-115017225D01*
X102062319Y-115017225D02*
X102071842Y-115026749D01*
X102071842Y-115026749D02*
X102090890Y-115036273D01*
X102090890Y-115036273D02*
X102128985Y-115036273D01*
X102128985Y-115036273D02*
X102148033Y-115026749D01*
X102148033Y-115026749D02*
X102157557Y-115017225D01*
X102157557Y-115017225D02*
X102167080Y-114998178D01*
X106343306Y-112149943D02*
X106276640Y-112054705D01*
X106229021Y-112149943D02*
X106229021Y-111949943D01*
X106229021Y-111949943D02*
X106305211Y-111949943D01*
X106305211Y-111949943D02*
X106324259Y-111959467D01*
X106324259Y-111959467D02*
X106333782Y-111968991D01*
X106333782Y-111968991D02*
X106343306Y-111988039D01*
X106343306Y-111988039D02*
X106343306Y-112016610D01*
X106343306Y-112016610D02*
X106333782Y-112035658D01*
X106333782Y-112035658D02*
X106324259Y-112045181D01*
X106324259Y-112045181D02*
X106305211Y-112054705D01*
X106305211Y-112054705D02*
X106229021Y-112054705D01*
X106419497Y-111968991D02*
X106429021Y-111959467D01*
X106429021Y-111959467D02*
X106448068Y-111949943D01*
X106448068Y-111949943D02*
X106495687Y-111949943D01*
X106495687Y-111949943D02*
X106514735Y-111959467D01*
X106514735Y-111959467D02*
X106524259Y-111968991D01*
X106524259Y-111968991D02*
X106533782Y-111988039D01*
X106533782Y-111988039D02*
X106533782Y-112007086D01*
X106533782Y-112007086D02*
X106524259Y-112035658D01*
X106524259Y-112035658D02*
X106409973Y-112149943D01*
X106409973Y-112149943D02*
X106533782Y-112149943D01*
X104829923Y-115043333D02*
X104734685Y-115109999D01*
X104829923Y-115157618D02*
X104629923Y-115157618D01*
X104629923Y-115157618D02*
X104629923Y-115081428D01*
X104629923Y-115081428D02*
X104639447Y-115062380D01*
X104639447Y-115062380D02*
X104648971Y-115052857D01*
X104648971Y-115052857D02*
X104668019Y-115043333D01*
X104668019Y-115043333D02*
X104696590Y-115043333D01*
X104696590Y-115043333D02*
X104715638Y-115052857D01*
X104715638Y-115052857D02*
X104725161Y-115062380D01*
X104725161Y-115062380D02*
X104734685Y-115081428D01*
X104734685Y-115081428D02*
X104734685Y-115157618D01*
X104629923Y-114976666D02*
X104629923Y-114852857D01*
X104629923Y-114852857D02*
X104706114Y-114919523D01*
X104706114Y-114919523D02*
X104706114Y-114890952D01*
X104706114Y-114890952D02*
X104715638Y-114871904D01*
X104715638Y-114871904D02*
X104725161Y-114862380D01*
X104725161Y-114862380D02*
X104744209Y-114852857D01*
X104744209Y-114852857D02*
X104791828Y-114852857D01*
X104791828Y-114852857D02*
X104810876Y-114862380D01*
X104810876Y-114862380D02*
X104820400Y-114871904D01*
X104820400Y-114871904D02*
X104829923Y-114890952D01*
X104829923Y-114890952D02*
X104829923Y-114948095D01*
X104829923Y-114948095D02*
X104820400Y-114967142D01*
X104820400Y-114967142D02*
X104810876Y-114976666D01*
X104219923Y-115043333D02*
X104124685Y-115109999D01*
X104219923Y-115157618D02*
X104019923Y-115157618D01*
X104019923Y-115157618D02*
X104019923Y-115081428D01*
X104019923Y-115081428D02*
X104029447Y-115062380D01*
X104029447Y-115062380D02*
X104038971Y-115052857D01*
X104038971Y-115052857D02*
X104058019Y-115043333D01*
X104058019Y-115043333D02*
X104086590Y-115043333D01*
X104086590Y-115043333D02*
X104105638Y-115052857D01*
X104105638Y-115052857D02*
X104115161Y-115062380D01*
X104115161Y-115062380D02*
X104124685Y-115081428D01*
X104124685Y-115081428D02*
X104124685Y-115157618D01*
X104086590Y-114871904D02*
X104219923Y-114871904D01*
X104010400Y-114919523D02*
X104153257Y-114967142D01*
X104153257Y-114967142D02*
X104153257Y-114843333D01*
X105613163Y-115106553D02*
X105517925Y-115173219D01*
X105613163Y-115220838D02*
X105413163Y-115220838D01*
X105413163Y-115220838D02*
X105413163Y-115144648D01*
X105413163Y-115144648D02*
X105422687Y-115125600D01*
X105422687Y-115125600D02*
X105432211Y-115116077D01*
X105432211Y-115116077D02*
X105451259Y-115106553D01*
X105451259Y-115106553D02*
X105479830Y-115106553D01*
X105479830Y-115106553D02*
X105498878Y-115116077D01*
X105498878Y-115116077D02*
X105508401Y-115125600D01*
X105508401Y-115125600D02*
X105517925Y-115144648D01*
X105517925Y-115144648D02*
X105517925Y-115220838D01*
X105413163Y-115039886D02*
X105413163Y-114906553D01*
X105413163Y-114906553D02*
X105613163Y-114992267D01*
X100599923Y-116116191D02*
X100504685Y-116182857D01*
X100599923Y-116230476D02*
X100399923Y-116230476D01*
X100399923Y-116230476D02*
X100399923Y-116154286D01*
X100399923Y-116154286D02*
X100409447Y-116135238D01*
X100409447Y-116135238D02*
X100418971Y-116125715D01*
X100418971Y-116125715D02*
X100438019Y-116116191D01*
X100438019Y-116116191D02*
X100466590Y-116116191D01*
X100466590Y-116116191D02*
X100485638Y-116125715D01*
X100485638Y-116125715D02*
X100495161Y-116135238D01*
X100495161Y-116135238D02*
X100504685Y-116154286D01*
X100504685Y-116154286D02*
X100504685Y-116230476D01*
X100599923Y-115925715D02*
X100599923Y-116040000D01*
X100599923Y-115982857D02*
X100399923Y-115982857D01*
X100399923Y-115982857D02*
X100428495Y-116001905D01*
X100428495Y-116001905D02*
X100447542Y-116020953D01*
X100447542Y-116020953D02*
X100457066Y-116040000D01*
X100399923Y-115859048D02*
X100399923Y-115735239D01*
X100399923Y-115735239D02*
X100476114Y-115801905D01*
X100476114Y-115801905D02*
X100476114Y-115773334D01*
X100476114Y-115773334D02*
X100485638Y-115754286D01*
X100485638Y-115754286D02*
X100495161Y-115744762D01*
X100495161Y-115744762D02*
X100514209Y-115735239D01*
X100514209Y-115735239D02*
X100561828Y-115735239D01*
X100561828Y-115735239D02*
X100580876Y-115744762D01*
X100580876Y-115744762D02*
X100590400Y-115754286D01*
X100590400Y-115754286D02*
X100599923Y-115773334D01*
X100599923Y-115773334D02*
X100599923Y-115830477D01*
X100599923Y-115830477D02*
X100590400Y-115849524D01*
X100590400Y-115849524D02*
X100580876Y-115859048D01*
X99491668Y-115197943D02*
X99425002Y-115102705D01*
X99377383Y-115197943D02*
X99377383Y-114997943D01*
X99377383Y-114997943D02*
X99453573Y-114997943D01*
X99453573Y-114997943D02*
X99472621Y-115007467D01*
X99472621Y-115007467D02*
X99482144Y-115016991D01*
X99482144Y-115016991D02*
X99491668Y-115036039D01*
X99491668Y-115036039D02*
X99491668Y-115064610D01*
X99491668Y-115064610D02*
X99482144Y-115083658D01*
X99482144Y-115083658D02*
X99472621Y-115093181D01*
X99472621Y-115093181D02*
X99453573Y-115102705D01*
X99453573Y-115102705D02*
X99377383Y-115102705D01*
X99682144Y-115197943D02*
X99567859Y-115197943D01*
X99625002Y-115197943D02*
X99625002Y-114997943D01*
X99625002Y-114997943D02*
X99605954Y-115026515D01*
X99605954Y-115026515D02*
X99586906Y-115045562D01*
X99586906Y-115045562D02*
X99567859Y-115055086D01*
X99872620Y-115197943D02*
X99758335Y-115197943D01*
X99815478Y-115197943D02*
X99815478Y-114997943D01*
X99815478Y-114997943D02*
X99796430Y-115026515D01*
X99796430Y-115026515D02*
X99777382Y-115045562D01*
X99777382Y-115045562D02*
X99758335Y-115055086D01*
D12*
X100316390Y-110838438D02*
X100316390Y-112457485D01*
X100316390Y-112457485D02*
X100411628Y-112647961D01*
X100411628Y-112647961D02*
X100506866Y-112743200D01*
X100506866Y-112743200D02*
X100697342Y-112838438D01*
X100697342Y-112838438D02*
X101078295Y-112838438D01*
X101078295Y-112838438D02*
X101268771Y-112743200D01*
X101268771Y-112743200D02*
X101364009Y-112647961D01*
X101364009Y-112647961D02*
X101459247Y-112457485D01*
X101459247Y-112457485D02*
X101459247Y-110838438D01*
X103459247Y-112838438D02*
X102316390Y-112838438D01*
X102887818Y-112838438D02*
X102887818Y-110838438D01*
X102887818Y-110838438D02*
X102697342Y-111124152D01*
X102697342Y-111124152D02*
X102506866Y-111314628D01*
X102506866Y-111314628D02*
X102316390Y-111409866D01*
D10*
X107849696Y-117721191D02*
X107859220Y-117730715D01*
X107859220Y-117730715D02*
X107868743Y-117759286D01*
X107868743Y-117759286D02*
X107868743Y-117778334D01*
X107868743Y-117778334D02*
X107859220Y-117806905D01*
X107859220Y-117806905D02*
X107840172Y-117825953D01*
X107840172Y-117825953D02*
X107821124Y-117835476D01*
X107821124Y-117835476D02*
X107783029Y-117845000D01*
X107783029Y-117845000D02*
X107754458Y-117845000D01*
X107754458Y-117845000D02*
X107716362Y-117835476D01*
X107716362Y-117835476D02*
X107697315Y-117825953D01*
X107697315Y-117825953D02*
X107678267Y-117806905D01*
X107678267Y-117806905D02*
X107668743Y-117778334D01*
X107668743Y-117778334D02*
X107668743Y-117759286D01*
X107668743Y-117759286D02*
X107678267Y-117730715D01*
X107678267Y-117730715D02*
X107687791Y-117721191D01*
X107735410Y-117549762D02*
X107868743Y-117549762D01*
X107659220Y-117597381D02*
X107802077Y-117645000D01*
X107802077Y-117645000D02*
X107802077Y-117521191D01*
X107668743Y-117349762D02*
X107668743Y-117445000D01*
X107668743Y-117445000D02*
X107763981Y-117454524D01*
X107763981Y-117454524D02*
X107754458Y-117445000D01*
X107754458Y-117445000D02*
X107744934Y-117425953D01*
X107744934Y-117425953D02*
X107744934Y-117378334D01*
X107744934Y-117378334D02*
X107754458Y-117359286D01*
X107754458Y-117359286D02*
X107763981Y-117349762D01*
X107763981Y-117349762D02*
X107783029Y-117340239D01*
X107783029Y-117340239D02*
X107830648Y-117340239D01*
X107830648Y-117340239D02*
X107849696Y-117349762D01*
X107849696Y-117349762D02*
X107859220Y-117359286D01*
X107859220Y-117359286D02*
X107868743Y-117378334D01*
X107868743Y-117378334D02*
X107868743Y-117425953D01*
X107868743Y-117425953D02*
X107859220Y-117445000D01*
X107859220Y-117445000D02*
X107849696Y-117454524D01*
X107304763Y-117731191D02*
X107209525Y-117797857D01*
X107304763Y-117845476D02*
X107104763Y-117845476D01*
X107104763Y-117845476D02*
X107104763Y-117769286D01*
X107104763Y-117769286D02*
X107114287Y-117750238D01*
X107114287Y-117750238D02*
X107123811Y-117740715D01*
X107123811Y-117740715D02*
X107142859Y-117731191D01*
X107142859Y-117731191D02*
X107171430Y-117731191D01*
X107171430Y-117731191D02*
X107190478Y-117740715D01*
X107190478Y-117740715D02*
X107200001Y-117750238D01*
X107200001Y-117750238D02*
X107209525Y-117769286D01*
X107209525Y-117769286D02*
X107209525Y-117845476D01*
X107304763Y-117540715D02*
X107304763Y-117655000D01*
X107304763Y-117597857D02*
X107104763Y-117597857D01*
X107104763Y-117597857D02*
X107133335Y-117616905D01*
X107133335Y-117616905D02*
X107152382Y-117635953D01*
X107152382Y-117635953D02*
X107161906Y-117655000D01*
X107123811Y-117464524D02*
X107114287Y-117455000D01*
X107114287Y-117455000D02*
X107104763Y-117435953D01*
X107104763Y-117435953D02*
X107104763Y-117388334D01*
X107104763Y-117388334D02*
X107114287Y-117369286D01*
X107114287Y-117369286D02*
X107123811Y-117359762D01*
X107123811Y-117359762D02*
X107142859Y-117350239D01*
X107142859Y-117350239D02*
X107161906Y-117350239D01*
X107161906Y-117350239D02*
X107190478Y-117359762D01*
X107190478Y-117359762D02*
X107304763Y-117474048D01*
X107304763Y-117474048D02*
X107304763Y-117350239D01*
X103409716Y-118011191D02*
X103419240Y-118020715D01*
X103419240Y-118020715D02*
X103428763Y-118049286D01*
X103428763Y-118049286D02*
X103428763Y-118068334D01*
X103428763Y-118068334D02*
X103419240Y-118096905D01*
X103419240Y-118096905D02*
X103400192Y-118115953D01*
X103400192Y-118115953D02*
X103381144Y-118125476D01*
X103381144Y-118125476D02*
X103343049Y-118135000D01*
X103343049Y-118135000D02*
X103314478Y-118135000D01*
X103314478Y-118135000D02*
X103276382Y-118125476D01*
X103276382Y-118125476D02*
X103257335Y-118115953D01*
X103257335Y-118115953D02*
X103238287Y-118096905D01*
X103238287Y-118096905D02*
X103228763Y-118068334D01*
X103228763Y-118068334D02*
X103228763Y-118049286D01*
X103228763Y-118049286D02*
X103238287Y-118020715D01*
X103238287Y-118020715D02*
X103247811Y-118011191D01*
X103228763Y-117944524D02*
X103228763Y-117820715D01*
X103228763Y-117820715D02*
X103304954Y-117887381D01*
X103304954Y-117887381D02*
X103304954Y-117858810D01*
X103304954Y-117858810D02*
X103314478Y-117839762D01*
X103314478Y-117839762D02*
X103324001Y-117830238D01*
X103324001Y-117830238D02*
X103343049Y-117820715D01*
X103343049Y-117820715D02*
X103390668Y-117820715D01*
X103390668Y-117820715D02*
X103409716Y-117830238D01*
X103409716Y-117830238D02*
X103419240Y-117839762D01*
X103419240Y-117839762D02*
X103428763Y-117858810D01*
X103428763Y-117858810D02*
X103428763Y-117915953D01*
X103428763Y-117915953D02*
X103419240Y-117935000D01*
X103419240Y-117935000D02*
X103409716Y-117944524D01*
X103228763Y-117649286D02*
X103228763Y-117687381D01*
X103228763Y-117687381D02*
X103238287Y-117706429D01*
X103238287Y-117706429D02*
X103247811Y-117715953D01*
X103247811Y-117715953D02*
X103276382Y-117735000D01*
X103276382Y-117735000D02*
X103314478Y-117744524D01*
X103314478Y-117744524D02*
X103390668Y-117744524D01*
X103390668Y-117744524D02*
X103409716Y-117735000D01*
X103409716Y-117735000D02*
X103419240Y-117725477D01*
X103419240Y-117725477D02*
X103428763Y-117706429D01*
X103428763Y-117706429D02*
X103428763Y-117668334D01*
X103428763Y-117668334D02*
X103419240Y-117649286D01*
X103419240Y-117649286D02*
X103409716Y-117639762D01*
X103409716Y-117639762D02*
X103390668Y-117630239D01*
X103390668Y-117630239D02*
X103343049Y-117630239D01*
X103343049Y-117630239D02*
X103324001Y-117639762D01*
X103324001Y-117639762D02*
X103314478Y-117649286D01*
X103314478Y-117649286D02*
X103304954Y-117668334D01*
X103304954Y-117668334D02*
X103304954Y-117706429D01*
X103304954Y-117706429D02*
X103314478Y-117725477D01*
X103314478Y-117725477D02*
X103324001Y-117735000D01*
X103324001Y-117735000D02*
X103343049Y-117744524D01*
X98109068Y-110251296D02*
X98099544Y-110260820D01*
X98099544Y-110260820D02*
X98070973Y-110270343D01*
X98070973Y-110270343D02*
X98051925Y-110270343D01*
X98051925Y-110270343D02*
X98023354Y-110260820D01*
X98023354Y-110260820D02*
X98004306Y-110241772D01*
X98004306Y-110241772D02*
X97994783Y-110222724D01*
X97994783Y-110222724D02*
X97985259Y-110184629D01*
X97985259Y-110184629D02*
X97985259Y-110156058D01*
X97985259Y-110156058D02*
X97994783Y-110117962D01*
X97994783Y-110117962D02*
X98004306Y-110098915D01*
X98004306Y-110098915D02*
X98023354Y-110079867D01*
X98023354Y-110079867D02*
X98051925Y-110070343D01*
X98051925Y-110070343D02*
X98070973Y-110070343D01*
X98070973Y-110070343D02*
X98099544Y-110079867D01*
X98099544Y-110079867D02*
X98109068Y-110089391D01*
X98299544Y-110270343D02*
X98185259Y-110270343D01*
X98242402Y-110270343D02*
X98242402Y-110070343D01*
X98242402Y-110070343D02*
X98223354Y-110098915D01*
X98223354Y-110098915D02*
X98204306Y-110117962D01*
X98204306Y-110117962D02*
X98185259Y-110127486D01*
X98413830Y-110156058D02*
X98394782Y-110146534D01*
X98394782Y-110146534D02*
X98385259Y-110137010D01*
X98385259Y-110137010D02*
X98375735Y-110117962D01*
X98375735Y-110117962D02*
X98375735Y-110108439D01*
X98375735Y-110108439D02*
X98385259Y-110089391D01*
X98385259Y-110089391D02*
X98394782Y-110079867D01*
X98394782Y-110079867D02*
X98413830Y-110070343D01*
X98413830Y-110070343D02*
X98451925Y-110070343D01*
X98451925Y-110070343D02*
X98470973Y-110079867D01*
X98470973Y-110079867D02*
X98480497Y-110089391D01*
X98480497Y-110089391D02*
X98490020Y-110108439D01*
X98490020Y-110108439D02*
X98490020Y-110117962D01*
X98490020Y-110117962D02*
X98480497Y-110137010D01*
X98480497Y-110137010D02*
X98470973Y-110146534D01*
X98470973Y-110146534D02*
X98451925Y-110156058D01*
X98451925Y-110156058D02*
X98413830Y-110156058D01*
X98413830Y-110156058D02*
X98394782Y-110165581D01*
X98394782Y-110165581D02*
X98385259Y-110175105D01*
X98385259Y-110175105D02*
X98375735Y-110194153D01*
X98375735Y-110194153D02*
X98375735Y-110232248D01*
X98375735Y-110232248D02*
X98385259Y-110251296D01*
X98385259Y-110251296D02*
X98394782Y-110260820D01*
X98394782Y-110260820D02*
X98413830Y-110270343D01*
X98413830Y-110270343D02*
X98451925Y-110270343D01*
X98451925Y-110270343D02*
X98470973Y-110260820D01*
X98470973Y-110260820D02*
X98480497Y-110251296D01*
X98480497Y-110251296D02*
X98490020Y-110232248D01*
X98490020Y-110232248D02*
X98490020Y-110194153D01*
X98490020Y-110194153D02*
X98480497Y-110175105D01*
X98480497Y-110175105D02*
X98470973Y-110165581D01*
X98470973Y-110165581D02*
X98451925Y-110156058D01*
X98104668Y-110810096D02*
X98095144Y-110819620D01*
X98095144Y-110819620D02*
X98066573Y-110829143D01*
X98066573Y-110829143D02*
X98047525Y-110829143D01*
X98047525Y-110829143D02*
X98018954Y-110819620D01*
X98018954Y-110819620D02*
X97999906Y-110800572D01*
X97999906Y-110800572D02*
X97990383Y-110781524D01*
X97990383Y-110781524D02*
X97980859Y-110743429D01*
X97980859Y-110743429D02*
X97980859Y-110714858D01*
X97980859Y-110714858D02*
X97990383Y-110676762D01*
X97990383Y-110676762D02*
X97999906Y-110657715D01*
X97999906Y-110657715D02*
X98018954Y-110638667D01*
X98018954Y-110638667D02*
X98047525Y-110629143D01*
X98047525Y-110629143D02*
X98066573Y-110629143D01*
X98066573Y-110629143D02*
X98095144Y-110638667D01*
X98095144Y-110638667D02*
X98104668Y-110648191D01*
X98295144Y-110829143D02*
X98180859Y-110829143D01*
X98238002Y-110829143D02*
X98238002Y-110629143D01*
X98238002Y-110629143D02*
X98218954Y-110657715D01*
X98218954Y-110657715D02*
X98199906Y-110676762D01*
X98199906Y-110676762D02*
X98180859Y-110686286D01*
X98361811Y-110629143D02*
X98495144Y-110629143D01*
X98495144Y-110629143D02*
X98409430Y-110829143D01*
X107864003Y-115022252D02*
X107864003Y-115117490D01*
X107864003Y-115117490D02*
X107664003Y-115117490D01*
X107730670Y-114869871D02*
X107864003Y-114869871D01*
X107654480Y-114917490D02*
X107797337Y-114965109D01*
X107797337Y-114965109D02*
X107797337Y-114841300D01*
X106183316Y-114138391D02*
X106192840Y-114147915D01*
X106192840Y-114147915D02*
X106202363Y-114176486D01*
X106202363Y-114176486D02*
X106202363Y-114195534D01*
X106202363Y-114195534D02*
X106192840Y-114224105D01*
X106192840Y-114224105D02*
X106173792Y-114243153D01*
X106173792Y-114243153D02*
X106154744Y-114252676D01*
X106154744Y-114252676D02*
X106116649Y-114262200D01*
X106116649Y-114262200D02*
X106088078Y-114262200D01*
X106088078Y-114262200D02*
X106049982Y-114252676D01*
X106049982Y-114252676D02*
X106030935Y-114243153D01*
X106030935Y-114243153D02*
X106011887Y-114224105D01*
X106011887Y-114224105D02*
X106002363Y-114195534D01*
X106002363Y-114195534D02*
X106002363Y-114176486D01*
X106002363Y-114176486D02*
X106011887Y-114147915D01*
X106011887Y-114147915D02*
X106021411Y-114138391D01*
X106202363Y-113947915D02*
X106202363Y-114062200D01*
X106202363Y-114005057D02*
X106002363Y-114005057D01*
X106002363Y-114005057D02*
X106030935Y-114024105D01*
X106030935Y-114024105D02*
X106049982Y-114043153D01*
X106049982Y-114043153D02*
X106059506Y-114062200D01*
X106202363Y-113757439D02*
X106202363Y-113871724D01*
X106202363Y-113814581D02*
X106002363Y-113814581D01*
X106002363Y-113814581D02*
X106030935Y-113833629D01*
X106030935Y-113833629D02*
X106049982Y-113852677D01*
X106049982Y-113852677D02*
X106059506Y-113871724D01*
X106936076Y-115152231D02*
X106945600Y-115161755D01*
X106945600Y-115161755D02*
X106955123Y-115190326D01*
X106955123Y-115190326D02*
X106955123Y-115209374D01*
X106955123Y-115209374D02*
X106945600Y-115237945D01*
X106945600Y-115237945D02*
X106926552Y-115256993D01*
X106926552Y-115256993D02*
X106907504Y-115266516D01*
X106907504Y-115266516D02*
X106869409Y-115276040D01*
X106869409Y-115276040D02*
X106840838Y-115276040D01*
X106840838Y-115276040D02*
X106802742Y-115266516D01*
X106802742Y-115266516D02*
X106783695Y-115256993D01*
X106783695Y-115256993D02*
X106764647Y-115237945D01*
X106764647Y-115237945D02*
X106755123Y-115209374D01*
X106755123Y-115209374D02*
X106755123Y-115190326D01*
X106755123Y-115190326D02*
X106764647Y-115161755D01*
X106764647Y-115161755D02*
X106774171Y-115152231D01*
X106955123Y-114961755D02*
X106955123Y-115076040D01*
X106955123Y-115018897D02*
X106755123Y-115018897D01*
X106755123Y-115018897D02*
X106783695Y-115037945D01*
X106783695Y-115037945D02*
X106802742Y-115056993D01*
X106802742Y-115056993D02*
X106812266Y-115076040D01*
X106755123Y-114837945D02*
X106755123Y-114818898D01*
X106755123Y-114818898D02*
X106764647Y-114799850D01*
X106764647Y-114799850D02*
X106774171Y-114790326D01*
X106774171Y-114790326D02*
X106793219Y-114780802D01*
X106793219Y-114780802D02*
X106831314Y-114771279D01*
X106831314Y-114771279D02*
X106878933Y-114771279D01*
X106878933Y-114771279D02*
X106917028Y-114780802D01*
X106917028Y-114780802D02*
X106936076Y-114790326D01*
X106936076Y-114790326D02*
X106945600Y-114799850D01*
X106945600Y-114799850D02*
X106955123Y-114818898D01*
X106955123Y-114818898D02*
X106955123Y-114837945D01*
X106955123Y-114837945D02*
X106945600Y-114856993D01*
X106945600Y-114856993D02*
X106936076Y-114866517D01*
X106936076Y-114866517D02*
X106917028Y-114876040D01*
X106917028Y-114876040D02*
X106878933Y-114885564D01*
X106878933Y-114885564D02*
X106831314Y-114885564D01*
X106831314Y-114885564D02*
X106793219Y-114876040D01*
X106793219Y-114876040D02*
X106774171Y-114866517D01*
X106774171Y-114866517D02*
X106764647Y-114856993D01*
X106764647Y-114856993D02*
X106755123Y-114837945D01*
X105609316Y-114128991D02*
X105618840Y-114138515D01*
X105618840Y-114138515D02*
X105628363Y-114167086D01*
X105628363Y-114167086D02*
X105628363Y-114186134D01*
X105628363Y-114186134D02*
X105618840Y-114214705D01*
X105618840Y-114214705D02*
X105599792Y-114233753D01*
X105599792Y-114233753D02*
X105580744Y-114243276D01*
X105580744Y-114243276D02*
X105542649Y-114252800D01*
X105542649Y-114252800D02*
X105514078Y-114252800D01*
X105514078Y-114252800D02*
X105475982Y-114243276D01*
X105475982Y-114243276D02*
X105456935Y-114233753D01*
X105456935Y-114233753D02*
X105437887Y-114214705D01*
X105437887Y-114214705D02*
X105428363Y-114186134D01*
X105428363Y-114186134D02*
X105428363Y-114167086D01*
X105428363Y-114167086D02*
X105437887Y-114138515D01*
X105437887Y-114138515D02*
X105447411Y-114128991D01*
X105628363Y-113938515D02*
X105628363Y-114052800D01*
X105628363Y-113995657D02*
X105428363Y-113995657D01*
X105428363Y-113995657D02*
X105456935Y-114014705D01*
X105456935Y-114014705D02*
X105475982Y-114033753D01*
X105475982Y-114033753D02*
X105485506Y-114052800D01*
X105447411Y-113862324D02*
X105437887Y-113852800D01*
X105437887Y-113852800D02*
X105428363Y-113833753D01*
X105428363Y-113833753D02*
X105428363Y-113786134D01*
X105428363Y-113786134D02*
X105437887Y-113767086D01*
X105437887Y-113767086D02*
X105447411Y-113757562D01*
X105447411Y-113757562D02*
X105466459Y-113748039D01*
X105466459Y-113748039D02*
X105485506Y-113748039D01*
X105485506Y-113748039D02*
X105514078Y-113757562D01*
X105514078Y-113757562D02*
X105628363Y-113871848D01*
X105628363Y-113871848D02*
X105628363Y-113748039D01*
X103399516Y-108439391D02*
X103409040Y-108448915D01*
X103409040Y-108448915D02*
X103418563Y-108477486D01*
X103418563Y-108477486D02*
X103418563Y-108496534D01*
X103418563Y-108496534D02*
X103409040Y-108525105D01*
X103409040Y-108525105D02*
X103389992Y-108544153D01*
X103389992Y-108544153D02*
X103370944Y-108553676D01*
X103370944Y-108553676D02*
X103332849Y-108563200D01*
X103332849Y-108563200D02*
X103304278Y-108563200D01*
X103304278Y-108563200D02*
X103266182Y-108553676D01*
X103266182Y-108553676D02*
X103247135Y-108544153D01*
X103247135Y-108544153D02*
X103228087Y-108525105D01*
X103228087Y-108525105D02*
X103218563Y-108496534D01*
X103218563Y-108496534D02*
X103218563Y-108477486D01*
X103218563Y-108477486D02*
X103228087Y-108448915D01*
X103228087Y-108448915D02*
X103237611Y-108439391D01*
X103218563Y-108372724D02*
X103218563Y-108248915D01*
X103218563Y-108248915D02*
X103294754Y-108315581D01*
X103294754Y-108315581D02*
X103294754Y-108287010D01*
X103294754Y-108287010D02*
X103304278Y-108267962D01*
X103304278Y-108267962D02*
X103313801Y-108258438D01*
X103313801Y-108258438D02*
X103332849Y-108248915D01*
X103332849Y-108248915D02*
X103380468Y-108248915D01*
X103380468Y-108248915D02*
X103399516Y-108258438D01*
X103399516Y-108258438D02*
X103409040Y-108267962D01*
X103409040Y-108267962D02*
X103418563Y-108287010D01*
X103418563Y-108287010D02*
X103418563Y-108344153D01*
X103418563Y-108344153D02*
X103409040Y-108363200D01*
X103409040Y-108363200D02*
X103399516Y-108372724D01*
X103218563Y-108125105D02*
X103218563Y-108106058D01*
X103218563Y-108106058D02*
X103228087Y-108087010D01*
X103228087Y-108087010D02*
X103237611Y-108077486D01*
X103237611Y-108077486D02*
X103256659Y-108067962D01*
X103256659Y-108067962D02*
X103294754Y-108058439D01*
X103294754Y-108058439D02*
X103342373Y-108058439D01*
X103342373Y-108058439D02*
X103380468Y-108067962D01*
X103380468Y-108067962D02*
X103399516Y-108077486D01*
X103399516Y-108077486D02*
X103409040Y-108087010D01*
X103409040Y-108087010D02*
X103418563Y-108106058D01*
X103418563Y-108106058D02*
X103418563Y-108125105D01*
X103418563Y-108125105D02*
X103409040Y-108144153D01*
X103409040Y-108144153D02*
X103399516Y-108153677D01*
X103399516Y-108153677D02*
X103380468Y-108163200D01*
X103380468Y-108163200D02*
X103342373Y-108172724D01*
X103342373Y-108172724D02*
X103294754Y-108172724D01*
X103294754Y-108172724D02*
X103256659Y-108163200D01*
X103256659Y-108163200D02*
X103237611Y-108153677D01*
X103237611Y-108153677D02*
X103228087Y-108144153D01*
X103228087Y-108144153D02*
X103218563Y-108125105D01*
X107721428Y-112109676D02*
X107711904Y-112119200D01*
X107711904Y-112119200D02*
X107683333Y-112128723D01*
X107683333Y-112128723D02*
X107664285Y-112128723D01*
X107664285Y-112128723D02*
X107635714Y-112119200D01*
X107635714Y-112119200D02*
X107616666Y-112100152D01*
X107616666Y-112100152D02*
X107607143Y-112081104D01*
X107607143Y-112081104D02*
X107597619Y-112043009D01*
X107597619Y-112043009D02*
X107597619Y-112014438D01*
X107597619Y-112014438D02*
X107607143Y-111976342D01*
X107607143Y-111976342D02*
X107616666Y-111957295D01*
X107616666Y-111957295D02*
X107635714Y-111938247D01*
X107635714Y-111938247D02*
X107664285Y-111928723D01*
X107664285Y-111928723D02*
X107683333Y-111928723D01*
X107683333Y-111928723D02*
X107711904Y-111938247D01*
X107711904Y-111938247D02*
X107721428Y-111947771D01*
X107797619Y-111947771D02*
X107807143Y-111938247D01*
X107807143Y-111938247D02*
X107826190Y-111928723D01*
X107826190Y-111928723D02*
X107873809Y-111928723D01*
X107873809Y-111928723D02*
X107892857Y-111938247D01*
X107892857Y-111938247D02*
X107902381Y-111947771D01*
X107902381Y-111947771D02*
X107911904Y-111966819D01*
X107911904Y-111966819D02*
X107911904Y-111985866D01*
X107911904Y-111985866D02*
X107902381Y-112014438D01*
X107902381Y-112014438D02*
X107788095Y-112128723D01*
X107788095Y-112128723D02*
X107911904Y-112128723D01*
X108007142Y-112128723D02*
X108045238Y-112128723D01*
X108045238Y-112128723D02*
X108064285Y-112119200D01*
X108064285Y-112119200D02*
X108073809Y-112109676D01*
X108073809Y-112109676D02*
X108092857Y-112081104D01*
X108092857Y-112081104D02*
X108102380Y-112043009D01*
X108102380Y-112043009D02*
X108102380Y-111966819D01*
X108102380Y-111966819D02*
X108092857Y-111947771D01*
X108092857Y-111947771D02*
X108083333Y-111938247D01*
X108083333Y-111938247D02*
X108064285Y-111928723D01*
X108064285Y-111928723D02*
X108026190Y-111928723D01*
X108026190Y-111928723D02*
X108007142Y-111938247D01*
X108007142Y-111938247D02*
X107997619Y-111947771D01*
X107997619Y-111947771D02*
X107988095Y-111966819D01*
X107988095Y-111966819D02*
X107988095Y-112014438D01*
X107988095Y-112014438D02*
X107997619Y-112033485D01*
X107997619Y-112033485D02*
X108007142Y-112043009D01*
X108007142Y-112043009D02*
X108026190Y-112052533D01*
X108026190Y-112052533D02*
X108064285Y-112052533D01*
X108064285Y-112052533D02*
X108083333Y-112043009D01*
X108083333Y-112043009D02*
X108092857Y-112033485D01*
X108092857Y-112033485D02*
X108102380Y-112014438D01*
D11*
X114765909Y-111291589D02*
X115123052Y-111291589D01*
X115123052Y-111291589D02*
X115194480Y-111315398D01*
X115194480Y-111315398D02*
X115242100Y-111363017D01*
X115242100Y-111363017D02*
X115265909Y-111434446D01*
X115265909Y-111434446D02*
X115265909Y-111482065D01*
X115313528Y-111172542D02*
X115313528Y-110791589D01*
X115242100Y-110458256D02*
X115265909Y-110505875D01*
X115265909Y-110505875D02*
X115265909Y-110601113D01*
X115265909Y-110601113D02*
X115242100Y-110648732D01*
X115242100Y-110648732D02*
X115218290Y-110672542D01*
X115218290Y-110672542D02*
X115170671Y-110696351D01*
X115170671Y-110696351D02*
X115027814Y-110696351D01*
X115027814Y-110696351D02*
X114980195Y-110672542D01*
X114980195Y-110672542D02*
X114956385Y-110648732D01*
X114956385Y-110648732D02*
X114932576Y-110601113D01*
X114932576Y-110601113D02*
X114932576Y-110505875D01*
X114932576Y-110505875D02*
X114956385Y-110458256D01*
X115265909Y-110172542D02*
X115242100Y-110220161D01*
X115242100Y-110220161D02*
X115218290Y-110243971D01*
X115218290Y-110243971D02*
X115170671Y-110267780D01*
X115170671Y-110267780D02*
X115027814Y-110267780D01*
X115027814Y-110267780D02*
X114980195Y-110243971D01*
X114980195Y-110243971D02*
X114956385Y-110220161D01*
X114956385Y-110220161D02*
X114932576Y-110172542D01*
X114932576Y-110172542D02*
X114932576Y-110101114D01*
X114932576Y-110101114D02*
X114956385Y-110053495D01*
X114956385Y-110053495D02*
X114980195Y-110029685D01*
X114980195Y-110029685D02*
X115027814Y-110005876D01*
X115027814Y-110005876D02*
X115170671Y-110005876D01*
X115170671Y-110005876D02*
X115218290Y-110029685D01*
X115218290Y-110029685D02*
X115242100Y-110053495D01*
X115242100Y-110053495D02*
X115265909Y-110101114D01*
X115265909Y-110101114D02*
X115265909Y-110172542D01*
X115265909Y-109577304D02*
X115004004Y-109577304D01*
X115004004Y-109577304D02*
X114956385Y-109601114D01*
X114956385Y-109601114D02*
X114932576Y-109648733D01*
X114932576Y-109648733D02*
X114932576Y-109743971D01*
X114932576Y-109743971D02*
X114956385Y-109791590D01*
X115242100Y-109577304D02*
X115265909Y-109624923D01*
X115265909Y-109624923D02*
X115265909Y-109743971D01*
X115265909Y-109743971D02*
X115242100Y-109791590D01*
X115242100Y-109791590D02*
X115194480Y-109815399D01*
X115194480Y-109815399D02*
X115146861Y-109815399D01*
X115146861Y-109815399D02*
X115099242Y-109791590D01*
X115099242Y-109791590D02*
X115075433Y-109743971D01*
X115075433Y-109743971D02*
X115075433Y-109624923D01*
X115075433Y-109624923D02*
X115051623Y-109577304D01*
X115265909Y-109386828D02*
X114932576Y-109124923D01*
X114932576Y-109386828D02*
X115265909Y-109124923D01*
X115265909Y-108672542D02*
X115265909Y-108958256D01*
X115265909Y-108815399D02*
X114765909Y-108815399D01*
X114765909Y-108815399D02*
X114837338Y-108863018D01*
X114837338Y-108863018D02*
X114884957Y-108910637D01*
X114884957Y-108910637D02*
X114908766Y-108958256D01*
D13*
X113566695Y-114905019D02*
X113566695Y-115714542D01*
X113566695Y-115714542D02*
X113614314Y-115809780D01*
X113614314Y-115809780D02*
X113661933Y-115857400D01*
X113661933Y-115857400D02*
X113757171Y-115905019D01*
X113757171Y-115905019D02*
X113947647Y-115905019D01*
X113947647Y-115905019D02*
X114042885Y-115857400D01*
X114042885Y-115857400D02*
X114090504Y-115809780D01*
X114090504Y-115809780D02*
X114138123Y-115714542D01*
X114138123Y-115714542D02*
X114138123Y-114905019D01*
X115090504Y-114905019D02*
X114614314Y-114905019D01*
X114614314Y-114905019D02*
X114566695Y-115381209D01*
X114566695Y-115381209D02*
X114614314Y-115333590D01*
X114614314Y-115333590D02*
X114709552Y-115285971D01*
X114709552Y-115285971D02*
X114947647Y-115285971D01*
X114947647Y-115285971D02*
X115042885Y-115333590D01*
X115042885Y-115333590D02*
X115090504Y-115381209D01*
X115090504Y-115381209D02*
X115138123Y-115476447D01*
X115138123Y-115476447D02*
X115138123Y-115714542D01*
X115138123Y-115714542D02*
X115090504Y-115809780D01*
X115090504Y-115809780D02*
X115042885Y-115857400D01*
X115042885Y-115857400D02*
X114947647Y-115905019D01*
X114947647Y-115905019D02*
X114709552Y-115905019D01*
X114709552Y-115905019D02*
X114614314Y-115857400D01*
X114614314Y-115857400D02*
X114566695Y-115809780D01*
D10*
X112006428Y-102600876D02*
X111996904Y-102610400D01*
X111996904Y-102610400D02*
X111968333Y-102619923D01*
X111968333Y-102619923D02*
X111949285Y-102619923D01*
X111949285Y-102619923D02*
X111920714Y-102610400D01*
X111920714Y-102610400D02*
X111901666Y-102591352D01*
X111901666Y-102591352D02*
X111892143Y-102572304D01*
X111892143Y-102572304D02*
X111882619Y-102534209D01*
X111882619Y-102534209D02*
X111882619Y-102505638D01*
X111882619Y-102505638D02*
X111892143Y-102467542D01*
X111892143Y-102467542D02*
X111901666Y-102448495D01*
X111901666Y-102448495D02*
X111920714Y-102429447D01*
X111920714Y-102429447D02*
X111949285Y-102419923D01*
X111949285Y-102419923D02*
X111968333Y-102419923D01*
X111968333Y-102419923D02*
X111996904Y-102429447D01*
X111996904Y-102429447D02*
X112006428Y-102438971D01*
X112177857Y-102486590D02*
X112177857Y-102619923D01*
X112130238Y-102410400D02*
X112082619Y-102553257D01*
X112082619Y-102553257D02*
X112206428Y-102553257D01*
X112311190Y-102505638D02*
X112292142Y-102496114D01*
X112292142Y-102496114D02*
X112282619Y-102486590D01*
X112282619Y-102486590D02*
X112273095Y-102467542D01*
X112273095Y-102467542D02*
X112273095Y-102458019D01*
X112273095Y-102458019D02*
X112282619Y-102438971D01*
X112282619Y-102438971D02*
X112292142Y-102429447D01*
X112292142Y-102429447D02*
X112311190Y-102419923D01*
X112311190Y-102419923D02*
X112349285Y-102419923D01*
X112349285Y-102419923D02*
X112368333Y-102429447D01*
X112368333Y-102429447D02*
X112377857Y-102438971D01*
X112377857Y-102438971D02*
X112387380Y-102458019D01*
X112387380Y-102458019D02*
X112387380Y-102467542D01*
X112387380Y-102467542D02*
X112377857Y-102486590D01*
X112377857Y-102486590D02*
X112368333Y-102496114D01*
X112368333Y-102496114D02*
X112349285Y-102505638D01*
X112349285Y-102505638D02*
X112311190Y-102505638D01*
X112311190Y-102505638D02*
X112292142Y-102515161D01*
X112292142Y-102515161D02*
X112282619Y-102524685D01*
X112282619Y-102524685D02*
X112273095Y-102543733D01*
X112273095Y-102543733D02*
X112273095Y-102581828D01*
X112273095Y-102581828D02*
X112282619Y-102600876D01*
X112282619Y-102600876D02*
X112292142Y-102610400D01*
X112292142Y-102610400D02*
X112311190Y-102619923D01*
X112311190Y-102619923D02*
X112349285Y-102619923D01*
X112349285Y-102619923D02*
X112368333Y-102610400D01*
X112368333Y-102610400D02*
X112377857Y-102600876D01*
X112377857Y-102600876D02*
X112387380Y-102581828D01*
X112387380Y-102581828D02*
X112387380Y-102543733D01*
X112387380Y-102543733D02*
X112377857Y-102524685D01*
X112377857Y-102524685D02*
X112368333Y-102515161D01*
X112368333Y-102515161D02*
X112349285Y-102505638D01*
D13*
X112955999Y-100654324D02*
X113765522Y-100654324D01*
X113765522Y-100654324D02*
X113860760Y-100606705D01*
X113860760Y-100606705D02*
X113908380Y-100559086D01*
X113908380Y-100559086D02*
X113955999Y-100463848D01*
X113955999Y-100463848D02*
X113955999Y-100273372D01*
X113955999Y-100273372D02*
X113908380Y-100178134D01*
X113908380Y-100178134D02*
X113860760Y-100130515D01*
X113860760Y-100130515D02*
X113765522Y-100082896D01*
X113765522Y-100082896D02*
X112955999Y-100082896D01*
X113051237Y-99654324D02*
X113003618Y-99606705D01*
X113003618Y-99606705D02*
X112955999Y-99511467D01*
X112955999Y-99511467D02*
X112955999Y-99273372D01*
X112955999Y-99273372D02*
X113003618Y-99178134D01*
X113003618Y-99178134D02*
X113051237Y-99130515D01*
X113051237Y-99130515D02*
X113146475Y-99082896D01*
X113146475Y-99082896D02*
X113241713Y-99082896D01*
X113241713Y-99082896D02*
X113384570Y-99130515D01*
X113384570Y-99130515D02*
X113955999Y-99701943D01*
X113955999Y-99701943D02*
X113955999Y-99082896D01*
D11*
X119532515Y-114929333D02*
X119532515Y-115310285D01*
X119532515Y-115310285D02*
X118732515Y-115310285D01*
X118808705Y-114700762D02*
X118770610Y-114662666D01*
X118770610Y-114662666D02*
X118732515Y-114586476D01*
X118732515Y-114586476D02*
X118732515Y-114396000D01*
X118732515Y-114396000D02*
X118770610Y-114319809D01*
X118770610Y-114319809D02*
X118808705Y-114281714D01*
X118808705Y-114281714D02*
X118884896Y-114243619D01*
X118884896Y-114243619D02*
X118961086Y-114243619D01*
X118961086Y-114243619D02*
X119075372Y-114281714D01*
X119075372Y-114281714D02*
X119532515Y-114738857D01*
X119532515Y-114738857D02*
X119532515Y-114243619D01*
D10*
X119070875Y-109424570D02*
X119080399Y-109434094D01*
X119080399Y-109434094D02*
X119089922Y-109462665D01*
X119089922Y-109462665D02*
X119089922Y-109481713D01*
X119089922Y-109481713D02*
X119080399Y-109510284D01*
X119080399Y-109510284D02*
X119061351Y-109529332D01*
X119061351Y-109529332D02*
X119042303Y-109538855D01*
X119042303Y-109538855D02*
X119004208Y-109548379D01*
X119004208Y-109548379D02*
X118975637Y-109548379D01*
X118975637Y-109548379D02*
X118937541Y-109538855D01*
X118937541Y-109538855D02*
X118918494Y-109529332D01*
X118918494Y-109529332D02*
X118899446Y-109510284D01*
X118899446Y-109510284D02*
X118889922Y-109481713D01*
X118889922Y-109481713D02*
X118889922Y-109462665D01*
X118889922Y-109462665D02*
X118899446Y-109434094D01*
X118899446Y-109434094D02*
X118908970Y-109424570D01*
X119089922Y-109234094D02*
X119089922Y-109348379D01*
X119089922Y-109291236D02*
X118889922Y-109291236D01*
X118889922Y-109291236D02*
X118918494Y-109310284D01*
X118918494Y-109310284D02*
X118937541Y-109329332D01*
X118937541Y-109329332D02*
X118947065Y-109348379D01*
X119089922Y-109138856D02*
X119089922Y-109100760D01*
X119089922Y-109100760D02*
X119080399Y-109081713D01*
X119080399Y-109081713D02*
X119070875Y-109072189D01*
X119070875Y-109072189D02*
X119042303Y-109053141D01*
X119042303Y-109053141D02*
X119004208Y-109043618D01*
X119004208Y-109043618D02*
X118928018Y-109043618D01*
X118928018Y-109043618D02*
X118908970Y-109053141D01*
X118908970Y-109053141D02*
X118899446Y-109062665D01*
X118899446Y-109062665D02*
X118889922Y-109081713D01*
X118889922Y-109081713D02*
X118889922Y-109119808D01*
X118889922Y-109119808D02*
X118899446Y-109138856D01*
X118899446Y-109138856D02*
X118908970Y-109148379D01*
X118908970Y-109148379D02*
X118928018Y-109157903D01*
X118928018Y-109157903D02*
X118975637Y-109157903D01*
X118975637Y-109157903D02*
X118994684Y-109148379D01*
X118994684Y-109148379D02*
X119004208Y-109138856D01*
X119004208Y-109138856D02*
X119013732Y-109119808D01*
X119013732Y-109119808D02*
X119013732Y-109081713D01*
X119013732Y-109081713D02*
X119004208Y-109062665D01*
X119004208Y-109062665D02*
X118994684Y-109053141D01*
X118994684Y-109053141D02*
X118975637Y-109043618D01*
D11*
X103056440Y-115020000D02*
G75*
G02*
X102956440Y-115020000I-50000J0D01*
G01*
X102956440Y-115020000D02*
G75*
G02*
X103056440Y-115020000I50000J0D01*
G01*
X99224640Y-109124420D02*
X99224640Y-109674420D01*
X99224640Y-114284420D02*
X99224640Y-113734420D01*
X99774640Y-109124420D02*
X99224640Y-109124420D01*
X99774640Y-114284420D02*
X99224640Y-114284420D01*
X103834640Y-109124420D02*
X104384640Y-109124420D01*
X103834640Y-114284420D02*
X104384640Y-114284420D01*
X104384640Y-109124420D02*
X104384640Y-109674420D01*
X104384640Y-114284420D02*
X104384640Y-113734420D01*
X97829040Y-116556420D02*
X97829040Y-117266420D01*
X98754040Y-115581420D02*
X99064040Y-115581420D01*
X98754040Y-118241420D02*
X99064040Y-118241420D01*
D13*
X98909040Y-115636420D02*
X98909040Y-116911420D01*
X98909040Y-116911420D02*
X97859040Y-116911420D01*
D11*
X99989040Y-117266420D02*
X99989040Y-116556420D01*
X114012900Y-108598680D02*
X114012900Y-109098680D01*
X114012900Y-108598680D02*
X114512900Y-108598680D01*
X114012900Y-111798680D02*
X114012900Y-111298680D01*
X114012900Y-111798680D02*
X114512900Y-111798680D01*
X117312900Y-108598680D02*
X116812900Y-108598680D01*
X117312900Y-108598680D02*
X117312900Y-109098680D01*
X117312900Y-111798680D02*
X116812900Y-111798680D01*
X117312900Y-111798680D02*
X117312900Y-111298680D01*
D14*
X118396000Y-97680000D02*
X119896000Y-97680000D01*
X118396000Y-102220000D02*
X118404000Y-97680000D01*
X118396000Y-102220000D02*
X119896000Y-102220000D01*
X120646000Y-101490000D02*
X120646000Y-98442000D01*
X111716860Y-113428640D02*
X111976860Y-113428640D01*
X111716860Y-117448640D02*
X111716860Y-117188640D01*
X111716860Y-117448640D02*
X111976860Y-117448640D01*
X117136860Y-113428640D02*
X116876860Y-113428640D01*
X117136860Y-113428640D02*
X117136860Y-113688640D01*
X117136860Y-117448640D02*
X116876860Y-117448640D01*
X117136860Y-117448640D02*
X117136860Y-117188640D01*
X111975000Y-98287500D02*
X112450000Y-98287500D01*
X111975000Y-98762500D02*
X111975000Y-98287500D01*
X111975000Y-101032500D02*
X111975000Y-101507500D01*
X115195000Y-98287500D02*
X114720000Y-98287500D01*
X115195000Y-98762500D02*
X115195000Y-98287500D01*
X115195000Y-101032500D02*
X115195000Y-101507500D01*
X115195000Y-101507500D02*
X114720000Y-101507500D01*
D11*
X118300000Y-109501000D02*
X118300000Y-109091000D01*
X119700000Y-109501000D02*
X119700000Y-109091000D01*
M02*
