G04 #@! TF.GenerationSoftware,KiCad,Pcbnew,8.0.0*
G04 #@! TF.CreationDate,2025-02-24T10:50:18+08:00*
G04 #@! TF.ProjectId,CM2_MesoScope,434d325f-4d65-4736-9f53-636f70652e6b,rev?*
G04 #@! TF.SameCoordinates,Original*
G04 #@! TF.FileFunction,Paste,Bot*
G04 #@! TF.FilePolarity,Positive*
%FSLAX46Y46*%
G04 Gerber Fmt 4.6, Leading zero omitted, Abs format (unit mm)*
G04 Created by KiCad (PCBNEW 8.0.0) date 2025-02-24 10:50:18*
%MOMM*%
%LPD*%
G01*
G04 APERTURE LIST*
G04 Aperture macros list*
%AMRoundRect*
0 Rectangle with rounded corners*
0 $1 Rounding radius*
0 $2 $3 $4 $5 $6 $7 $8 $9 X,Y pos of 4 corners*
0 Add a 4 corners polygon primitive as box body*
4,1,4,$2,$3,$4,$5,$6,$7,$8,$9,$2,$3,0*
0 Add four circle primitives for the rounded corners*
1,1,$1+$1,$2,$3*
1,1,$1+$1,$4,$5*
1,1,$1+$1,$6,$7*
1,1,$1+$1,$8,$9*
0 Add four rect primitives between the rounded corners*
20,1,$1+$1,$2,$3,$4,$5,0*
20,1,$1+$1,$4,$5,$6,$7,0*
20,1,$1+$1,$6,$7,$8,$9,0*
20,1,$1+$1,$8,$9,$2,$3,0*%
G04 Aperture macros list end*
%ADD10R,0.500000X1.248000*%
%ADD11R,0.500000X0.740000*%
%ADD12R,0.740000X0.500000*%
%ADD13R,0.340000X0.310000*%
%ADD14R,0.310000X0.340000*%
%ADD15R,2.120000X1.090000*%
%ADD16R,0.600000X0.950000*%
%ADD17R,0.660000X0.260000*%
%ADD18RoundRect,0.145000X-0.170000X0.145000X-0.170000X-0.145000X0.170000X-0.145000X0.170000X0.145000X0*%
%ADD19R,0.610000X0.220000*%
%ADD20R,0.220000X0.610000*%
%ADD21RoundRect,0.145000X0.145000X0.170000X-0.145000X0.170000X-0.145000X-0.170000X0.145000X-0.170000X0*%
%ADD22RoundRect,0.147500X-0.172500X0.147500X-0.172500X-0.147500X0.172500X-0.147500X0.172500X0.147500X0*%
%ADD23R,0.560000X0.260000*%
%ADD24R,0.800000X1.700000*%
G04 APERTURE END LIST*
D10*
X103336640Y-108756820D03*
D11*
X104036640Y-108502820D03*
X104736640Y-108502820D03*
X105436640Y-108502820D03*
X106136640Y-108502820D03*
X106836640Y-108502820D03*
D12*
X107571640Y-109237820D03*
X107571640Y-109937820D03*
X107571640Y-110637820D03*
X107571640Y-111337820D03*
X107571640Y-112037820D03*
X107571640Y-112737820D03*
X107571640Y-113437820D03*
X107571640Y-114137820D03*
X107571640Y-114837820D03*
X107571640Y-115537820D03*
X107571640Y-116237820D03*
X107571640Y-116937820D03*
D11*
X106836640Y-117672820D03*
X106136640Y-117672820D03*
X105436640Y-117672820D03*
X104736640Y-117672820D03*
X104036640Y-117672820D03*
X103336640Y-117672820D03*
X102636640Y-117672820D03*
X101936640Y-117672820D03*
X101236640Y-117672820D03*
X100536640Y-117672820D03*
X99836640Y-117672820D03*
X99136640Y-117672820D03*
D12*
X98401640Y-116937820D03*
X98401640Y-116237820D03*
X98401640Y-115537820D03*
X98401640Y-114837820D03*
X98401640Y-114137820D03*
X98401640Y-113437820D03*
X98401640Y-112737820D03*
X98401640Y-112037820D03*
X98401640Y-111337820D03*
X98401640Y-110637820D03*
X98401640Y-109937820D03*
X98401640Y-109237820D03*
D11*
X99136640Y-108502820D03*
X99836640Y-108502820D03*
X100536640Y-108502820D03*
X101236640Y-108502820D03*
X101936640Y-108502820D03*
X102636640Y-108502820D03*
D13*
X112012500Y-101335000D03*
X112012500Y-101885000D03*
D14*
X119505000Y-114186000D03*
X118955000Y-114186000D03*
X113255000Y-115676000D03*
X112705000Y-115676000D03*
X118955000Y-114826000D03*
X119505000Y-114826000D03*
D13*
X112047680Y-111745020D03*
X112047680Y-111195020D03*
D14*
X113405900Y-117916540D03*
X113955900Y-117916540D03*
D15*
X117379500Y-115118560D03*
X117379500Y-117148560D03*
D14*
X112705000Y-114408640D03*
X113255000Y-114408640D03*
D16*
X114022900Y-112383220D03*
X114822900Y-112383220D03*
X114022900Y-111233220D03*
X114822900Y-111233220D03*
D17*
X112992900Y-112808220D03*
X112992900Y-112308220D03*
X112992900Y-111808220D03*
X112992900Y-111308220D03*
X112992900Y-110808220D03*
X115852900Y-110808220D03*
X115852900Y-111308220D03*
X115852900Y-111808220D03*
X115852900Y-112308220D03*
X115852900Y-112808220D03*
D13*
X113332500Y-101025000D03*
X113332500Y-101575000D03*
D14*
X120025000Y-109251000D03*
X119475000Y-109251000D03*
D18*
X113998560Y-108411860D03*
X113998560Y-109301860D03*
D13*
X111952500Y-98985000D03*
X111952500Y-98435000D03*
D18*
X113108040Y-108413960D03*
X113108040Y-109303960D03*
D13*
X114652500Y-98195000D03*
X114652500Y-97645000D03*
D14*
X112705000Y-115041973D03*
X113255000Y-115041973D03*
D13*
X116690000Y-113236000D03*
X116690000Y-113786000D03*
D14*
X119505000Y-113546000D03*
X118955000Y-113546000D03*
D13*
X111946080Y-114603700D03*
X111946080Y-115153700D03*
X111946860Y-116268640D03*
X111946860Y-115718640D03*
D19*
X119993000Y-110695000D03*
X119993000Y-111095000D03*
X119993000Y-111495000D03*
X119993000Y-111895000D03*
X119993000Y-112295000D03*
D20*
X119348000Y-112340000D03*
X118948000Y-112340000D03*
D19*
X118303000Y-112295000D03*
X118303000Y-111895000D03*
X118303000Y-111495000D03*
X118303000Y-111095000D03*
X118303000Y-110695000D03*
D20*
X118948000Y-110650000D03*
X119348000Y-110650000D03*
D13*
X115036860Y-108413640D03*
X115036860Y-108963640D03*
X117440000Y-113236000D03*
X117440000Y-113786000D03*
X113312500Y-98195000D03*
X113312500Y-97645000D03*
X112047680Y-112310080D03*
X112047680Y-112860080D03*
D21*
X115709560Y-116619440D03*
X114819560Y-116619440D03*
D18*
X112219040Y-108413960D03*
X112219040Y-109303960D03*
D22*
X117160700Y-110129040D03*
X117160700Y-111099040D03*
D14*
X119475000Y-109936000D03*
X120025000Y-109936000D03*
X112705000Y-116308640D03*
X113255000Y-116308640D03*
X120025000Y-108566000D03*
X119475000Y-108566000D03*
D23*
X113951660Y-115450800D03*
X113951660Y-114950800D03*
X113951660Y-114450800D03*
X115711660Y-114450800D03*
X115711660Y-114950800D03*
X115711660Y-115450800D03*
D24*
X114831660Y-114950800D03*
M02*
