G04 #@! TF.GenerationSoftware,KiCad,Pcbnew,8.0.0*
G04 #@! TF.CreationDate,2025-02-24T10:50:18+08:00*
G04 #@! TF.ProjectId,CM2_MesoScope,434d325f-4d65-4736-9f53-636f70652e6b,rev?*
G04 #@! TF.SameCoordinates,Original*
G04 #@! TF.FileFunction,Copper,L3,Inr*
G04 #@! TF.FilePolarity,Positive*
%FSLAX46Y46*%
G04 Gerber Fmt 4.6, Leading zero omitted, Abs format (unit mm)*
G04 Created by KiCad (PCBNEW 8.0.0) date 2025-02-24 10:50:18*
%MOMM*%
%LPD*%
G01*
G04 APERTURE LIST*
G04 #@! TA.AperFunction,ViaPad*
%ADD10C,0.350000*%
G04 #@! TD*
G04 #@! TA.AperFunction,Conductor*
%ADD11C,0.381000*%
G04 #@! TD*
G04 #@! TA.AperFunction,Conductor*
%ADD12C,0.254000*%
G04 #@! TD*
G04 #@! TA.AperFunction,Conductor*
%ADD13C,0.203200*%
G04 #@! TD*
G04 #@! TA.AperFunction,Conductor*
%ADD14C,0.152400*%
G04 #@! TD*
G04 APERTURE END LIST*
D10*
X114840000Y-114576000D03*
X106844028Y-115416608D03*
X102800000Y-115570000D03*
X107776040Y-117876620D03*
X100570000Y-112800000D03*
X115022500Y-98700000D03*
X115037260Y-111724020D03*
X106920240Y-108672420D03*
X106148040Y-117673420D03*
X119000000Y-108476000D03*
X106656640Y-112057820D03*
X112055300Y-111195020D03*
X118955000Y-114186000D03*
X104039840Y-108504020D03*
X113240000Y-102310000D03*
X103476640Y-115158820D03*
X116078660Y-108912240D03*
X104725640Y-108504020D03*
X103080000Y-110410000D03*
X101440000Y-111720000D03*
X116560000Y-111986000D03*
X112176860Y-117101140D03*
X114831660Y-115408000D03*
X113108040Y-109303960D03*
X104736640Y-117672820D03*
X115695360Y-114950800D03*
X111946080Y-114603700D03*
X106870000Y-113645000D03*
X111300000Y-99150000D03*
X98274040Y-117851220D03*
X113255000Y-115041973D03*
X97954840Y-108088220D03*
X102990000Y-111690000D03*
X101220440Y-108504020D03*
X101916400Y-117664000D03*
X99110000Y-114580000D03*
X105078450Y-113355420D03*
X113972260Y-108413960D03*
X112012500Y-101335000D03*
X118410000Y-113156000D03*
X117370000Y-108413640D03*
X113951660Y-114450800D03*
X106794040Y-116952820D03*
X98401640Y-116937820D03*
X115711660Y-116216000D03*
X111941000Y-115147940D03*
X112705000Y-116308640D03*
X119475000Y-109936000D03*
X118955000Y-114826000D03*
X112675060Y-113814440D03*
X112705000Y-115676000D03*
X101931640Y-108575820D03*
X99640000Y-114620000D03*
X107585000Y-112750000D03*
X105180000Y-115920000D03*
X111498360Y-112310080D03*
X107911640Y-108342224D03*
X108430000Y-110990000D03*
X117168320Y-110121280D03*
X101054634Y-114039414D03*
X100760000Y-114670000D03*
X100500000Y-115108020D03*
X102043400Y-116546400D03*
X102060000Y-113910000D03*
X116690000Y-113236000D03*
X111475938Y-113692520D03*
X108573740Y-116063800D03*
X111458400Y-113115940D03*
X108586440Y-114542340D03*
X117798000Y-111500000D03*
X101550000Y-113850000D03*
X117440000Y-113236000D03*
X101560000Y-115870000D03*
X102554640Y-109369422D03*
X102054640Y-109369426D03*
X101554640Y-109369422D03*
X101054640Y-109369422D03*
X100554640Y-109369406D03*
X99140000Y-109420000D03*
X99430000Y-110440000D03*
X98401640Y-109237820D03*
X99469642Y-110954420D03*
X99136640Y-108502820D03*
X99836640Y-108502820D03*
X99740000Y-111960000D03*
X99590000Y-112460000D03*
X100536640Y-108502820D03*
X98496640Y-111323420D03*
X111494640Y-111745020D03*
X103338840Y-117613220D03*
X102642840Y-108580220D03*
X105513040Y-115336620D03*
X107585000Y-112038800D03*
X103328640Y-108580220D03*
X106108240Y-116952820D03*
X99848840Y-116200220D03*
X104050040Y-117613220D03*
X102627640Y-117613220D03*
X107447038Y-108650991D03*
X113332500Y-101020000D03*
X117015000Y-99955000D03*
X111952500Y-98435000D03*
X112147500Y-100647500D03*
X117160700Y-111099040D03*
X119160000Y-116321000D03*
X113312500Y-97645000D03*
X111935920Y-115694040D03*
X114050000Y-116303640D03*
X114652500Y-97645000D03*
X104143980Y-110445320D03*
X113830000Y-102120000D03*
X113340000Y-98770000D03*
X114320000Y-102540000D03*
X119348000Y-111730000D03*
X114960000Y-102140000D03*
X120510000Y-108160000D03*
X115372500Y-99650000D03*
X115022500Y-100147500D03*
X115392500Y-100650000D03*
X115402500Y-101350000D03*
D11*
X113972260Y-114430200D02*
X113951660Y-114450800D01*
D12*
X118422360Y-109466000D02*
X117370000Y-108413640D01*
X118400000Y-113146000D02*
X118410000Y-113156000D01*
X117370000Y-108413640D02*
X118400000Y-109443640D01*
X118400000Y-109443640D02*
X118400000Y-113146000D01*
D11*
X113972260Y-108413960D02*
X113972260Y-114430200D01*
D12*
X99640000Y-114372293D02*
X99640000Y-114620000D01*
D13*
X105180000Y-115920000D02*
X107433460Y-115920000D01*
D12*
X107585000Y-112750000D02*
X107590000Y-112755000D01*
X99120000Y-117407580D02*
X99120000Y-115780000D01*
X106637460Y-118150000D02*
X99862420Y-118150000D01*
X99120000Y-115780000D02*
X99640000Y-115260000D01*
X101931640Y-108575820D02*
X102455440Y-108052020D01*
X99862420Y-118150000D02*
X99120000Y-117407580D01*
X98920040Y-108012020D02*
X97929440Y-109002620D01*
X99640000Y-115260000D02*
X99640000Y-114620000D01*
X101931640Y-108575820D02*
X101931640Y-108571640D01*
X102455440Y-108052020D02*
X107621436Y-108052020D01*
X101931640Y-108571640D02*
X101372020Y-108012020D01*
X107911640Y-108317620D02*
X107911640Y-108342224D01*
X97929440Y-109002620D02*
X97929440Y-112661733D01*
X107590000Y-117197460D02*
X106637460Y-118150000D01*
X107621436Y-108052020D02*
X107911640Y-108342224D01*
X107908041Y-108314021D02*
X107911640Y-108317620D01*
X101372020Y-108012020D02*
X98920040Y-108012020D01*
X97929440Y-112661733D02*
X99640000Y-114372293D01*
X107590000Y-112755000D02*
X107590000Y-117197460D01*
D14*
X102054640Y-114039406D02*
X102054640Y-116535160D01*
X102054640Y-116535160D02*
X102043400Y-116546400D01*
X101550000Y-115860000D02*
X101560000Y-115870000D01*
X101550000Y-113850000D02*
X101550000Y-115860000D01*
X113332500Y-101020000D02*
X113332500Y-100967500D01*
X115100000Y-99200000D02*
X116260000Y-99200000D01*
X113332500Y-100967500D02*
X115100000Y-99200000D01*
X116260000Y-99200000D02*
X117015000Y-99955000D01*
D13*
X117880000Y-112876000D02*
X117880000Y-115041000D01*
X117160700Y-111099040D02*
X117160700Y-112156700D01*
X117880000Y-115041000D02*
X119160000Y-116321000D01*
X117160700Y-112156700D02*
X117880000Y-112876000D01*
X113830000Y-107826000D02*
X113830000Y-102120000D01*
X104147980Y-110441320D02*
X104143980Y-110445320D01*
X104146620Y-110442680D02*
X104143980Y-110445320D01*
X104147980Y-110441320D02*
X111214680Y-110441320D01*
X111214680Y-110441320D02*
X113830000Y-107826000D01*
G04 #@! TA.AperFunction,Conductor*
G36*
X108849138Y-107775593D02*
G01*
X108874858Y-107820142D01*
X108876000Y-107833200D01*
X108876000Y-110111620D01*
X108858407Y-110159958D01*
X108813858Y-110185678D01*
X108800800Y-110186820D01*
X104373404Y-110186820D01*
X104325066Y-110169227D01*
X104325066Y-110169226D01*
X104310459Y-110156969D01*
X104201799Y-110117420D01*
X104201798Y-110117420D01*
X104086162Y-110117420D01*
X104086160Y-110117420D01*
X103977502Y-110156969D01*
X103888918Y-110231298D01*
X103831102Y-110331440D01*
X103811022Y-110445320D01*
X103831102Y-110559199D01*
X103888918Y-110659341D01*
X103914228Y-110680578D01*
X103977501Y-110733670D01*
X104086162Y-110773220D01*
X104086164Y-110773220D01*
X104201796Y-110773220D01*
X104201798Y-110773220D01*
X104310459Y-110733670D01*
X104314403Y-110730361D01*
X104334600Y-110713414D01*
X104382938Y-110695820D01*
X108090968Y-110695820D01*
X108139306Y-110713413D01*
X108165026Y-110757962D01*
X108156094Y-110808619D01*
X108117122Y-110876121D01*
X108097042Y-110990000D01*
X108117122Y-111103879D01*
X108174938Y-111204021D01*
X108212595Y-111235618D01*
X108263521Y-111278350D01*
X108372182Y-111317900D01*
X108372184Y-111317900D01*
X108487816Y-111317900D01*
X108487818Y-111317900D01*
X108596479Y-111278350D01*
X108685061Y-111204021D01*
X108735676Y-111116353D01*
X108775079Y-111083289D01*
X108826519Y-111083289D01*
X108865925Y-111116353D01*
X108876000Y-111153954D01*
X108876000Y-114196000D01*
X108858407Y-114244338D01*
X108813858Y-114270058D01*
X108763200Y-114261125D01*
X108753433Y-114254286D01*
X108752918Y-114253989D01*
X108644259Y-114214440D01*
X108644258Y-114214440D01*
X108528622Y-114214440D01*
X108528620Y-114214440D01*
X108419962Y-114253989D01*
X108331378Y-114328318D01*
X108273562Y-114428460D01*
X108253482Y-114542340D01*
X108273562Y-114656219D01*
X108331378Y-114756361D01*
X108372658Y-114790998D01*
X108419961Y-114830690D01*
X108528622Y-114870240D01*
X108528624Y-114870240D01*
X108644256Y-114870240D01*
X108644258Y-114870240D01*
X108752919Y-114830690D01*
X108752921Y-114830688D01*
X108758612Y-114827403D01*
X108759295Y-114828586D01*
X108800796Y-114813479D01*
X108849135Y-114831070D01*
X108874857Y-114875617D01*
X108876000Y-114888679D01*
X108876000Y-115728116D01*
X108858407Y-115776454D01*
X108813858Y-115802174D01*
X108763200Y-115793241D01*
X108752465Y-115785724D01*
X108740220Y-115775450D01*
X108740218Y-115775449D01*
X108631559Y-115735900D01*
X108631558Y-115735900D01*
X108515922Y-115735900D01*
X108515920Y-115735900D01*
X108407262Y-115775449D01*
X108318678Y-115849778D01*
X108260862Y-115949920D01*
X108240782Y-116063800D01*
X108260862Y-116177679D01*
X108318678Y-116277821D01*
X108346497Y-116301163D01*
X108407261Y-116352150D01*
X108515922Y-116391700D01*
X108515924Y-116391700D01*
X108631556Y-116391700D01*
X108631558Y-116391700D01*
X108740219Y-116352150D01*
X108752463Y-116341875D01*
X108800800Y-116324283D01*
X108849138Y-116341877D01*
X108874858Y-116386425D01*
X108876000Y-116399483D01*
X108876000Y-118350800D01*
X108858407Y-118399138D01*
X108813858Y-118424858D01*
X108800800Y-118426000D01*
X106938847Y-118426000D01*
X106890509Y-118408407D01*
X106864789Y-118363858D01*
X106873722Y-118313200D01*
X106885673Y-118297626D01*
X107320488Y-117862810D01*
X107367108Y-117841070D01*
X107416795Y-117854384D01*
X107446300Y-117896521D01*
X107447719Y-117902925D01*
X107463161Y-117990497D01*
X107520978Y-118090641D01*
X107551758Y-118116468D01*
X107609561Y-118164970D01*
X107718222Y-118204520D01*
X107718224Y-118204520D01*
X107833856Y-118204520D01*
X107833858Y-118204520D01*
X107942519Y-118164970D01*
X108031101Y-118090641D01*
X108088918Y-117990498D01*
X108108998Y-117876620D01*
X108088918Y-117762742D01*
X108086784Y-117759045D01*
X108031101Y-117662598D01*
X107978315Y-117618307D01*
X107942519Y-117588270D01*
X107942517Y-117588269D01*
X107833859Y-117548720D01*
X107833858Y-117548720D01*
X107816127Y-117548720D01*
X107767789Y-117531127D01*
X107742069Y-117486578D01*
X107751002Y-117435920D01*
X107762953Y-117420346D01*
X107813972Y-117369326D01*
X107813976Y-117369322D01*
X107850825Y-117305497D01*
X107869900Y-117234310D01*
X107869900Y-117160610D01*
X107869900Y-112932486D01*
X107879974Y-112894888D01*
X107897878Y-112863878D01*
X107917958Y-112750000D01*
X107897878Y-112636122D01*
X107891389Y-112624883D01*
X107840061Y-112535978D01*
X107787275Y-112491687D01*
X107751479Y-112461650D01*
X107751477Y-112461649D01*
X107642819Y-112422100D01*
X107642818Y-112422100D01*
X107527182Y-112422100D01*
X107527180Y-112422100D01*
X107418522Y-112461649D01*
X107329938Y-112535978D01*
X107272122Y-112636120D01*
X107252042Y-112750000D01*
X107272122Y-112863879D01*
X107300025Y-112912207D01*
X107310100Y-112949807D01*
X107310100Y-113470826D01*
X107292507Y-113519164D01*
X107247958Y-113544884D01*
X107197300Y-113535951D01*
X107169775Y-113508426D01*
X107125061Y-113430978D01*
X107072275Y-113386687D01*
X107036479Y-113356650D01*
X107036477Y-113356649D01*
X106927819Y-113317100D01*
X106927818Y-113317100D01*
X106812182Y-113317100D01*
X106812180Y-113317100D01*
X106703522Y-113356649D01*
X106614938Y-113430978D01*
X106557122Y-113531120D01*
X106537042Y-113645000D01*
X106557122Y-113758879D01*
X106614938Y-113859021D01*
X106659230Y-113896185D01*
X106703521Y-113933350D01*
X106812182Y-113972900D01*
X106812184Y-113972900D01*
X106927816Y-113972900D01*
X106927818Y-113972900D01*
X107036479Y-113933350D01*
X107125061Y-113859021D01*
X107169776Y-113781572D01*
X107209179Y-113748508D01*
X107260619Y-113748508D01*
X107300025Y-113781572D01*
X107310100Y-113819173D01*
X107310100Y-115311996D01*
X107292507Y-115360334D01*
X107247958Y-115386054D01*
X107197300Y-115377121D01*
X107164235Y-115337716D01*
X107160843Y-115325060D01*
X107156906Y-115302730D01*
X107156905Y-115302728D01*
X107156905Y-115302727D01*
X107099089Y-115202586D01*
X107046303Y-115158295D01*
X107010507Y-115128258D01*
X107010505Y-115128257D01*
X106901847Y-115088708D01*
X106901846Y-115088708D01*
X106786210Y-115088708D01*
X106786208Y-115088708D01*
X106677550Y-115128257D01*
X106588966Y-115202586D01*
X106531150Y-115302728D01*
X106511070Y-115416608D01*
X106531150Y-115530487D01*
X106543975Y-115552700D01*
X106552908Y-115603358D01*
X106527188Y-115647907D01*
X106478850Y-115665500D01*
X105414191Y-115665500D01*
X105365853Y-115647907D01*
X105365853Y-115647906D01*
X105346479Y-115631649D01*
X105237819Y-115592100D01*
X105237818Y-115592100D01*
X105122182Y-115592100D01*
X105122180Y-115592100D01*
X105013522Y-115631649D01*
X104924938Y-115705978D01*
X104867122Y-115806120D01*
X104847042Y-115920000D01*
X104867122Y-116033879D01*
X104924938Y-116134021D01*
X104953933Y-116158350D01*
X105013521Y-116208350D01*
X105122182Y-116247900D01*
X105122184Y-116247900D01*
X105237816Y-116247900D01*
X105237818Y-116247900D01*
X105346479Y-116208350D01*
X105358933Y-116197900D01*
X105365853Y-116192094D01*
X105414191Y-116174500D01*
X107234900Y-116174500D01*
X107283238Y-116192093D01*
X107308958Y-116236642D01*
X107310100Y-116249700D01*
X107310100Y-117050374D01*
X107292507Y-117098712D01*
X107288084Y-117103537D01*
X107246727Y-117144895D01*
X107213015Y-117178607D01*
X107166395Y-117200346D01*
X107116708Y-117187032D01*
X107087203Y-117144895D01*
X107091687Y-117093651D01*
X107094707Y-117087848D01*
X107106918Y-117066698D01*
X107126998Y-116952820D01*
X107106918Y-116838942D01*
X107089714Y-116809143D01*
X107049101Y-116738798D01*
X106996315Y-116694507D01*
X106960519Y-116664470D01*
X106960517Y-116664469D01*
X106851859Y-116624920D01*
X106851858Y-116624920D01*
X106736222Y-116624920D01*
X106736220Y-116624920D01*
X106627562Y-116664469D01*
X106538978Y-116738798D01*
X106481162Y-116838940D01*
X106461082Y-116952820D01*
X106481162Y-117066699D01*
X106538978Y-117166841D01*
X106578909Y-117200346D01*
X106627561Y-117241170D01*
X106736222Y-117280720D01*
X106736224Y-117280720D01*
X106851856Y-117280720D01*
X106851858Y-117280720D01*
X106940394Y-117248495D01*
X106991832Y-117248495D01*
X107031238Y-117281559D01*
X107040171Y-117332218D01*
X107019287Y-117372334D01*
X106598865Y-117792756D01*
X106552245Y-117814496D01*
X106502558Y-117801182D01*
X106473053Y-117759045D01*
X106471634Y-117726523D01*
X106480998Y-117673420D01*
X106460918Y-117559542D01*
X106460572Y-117558942D01*
X106403101Y-117459398D01*
X106350315Y-117415107D01*
X106314519Y-117385070D01*
X106314517Y-117385069D01*
X106205859Y-117345520D01*
X106205858Y-117345520D01*
X106090222Y-117345520D01*
X106090220Y-117345520D01*
X105981562Y-117385069D01*
X105892978Y-117459398D01*
X105835162Y-117559540D01*
X105815082Y-117673420D01*
X105834200Y-117781842D01*
X105825267Y-117832500D01*
X105785862Y-117865565D01*
X105760142Y-117870100D01*
X105124432Y-117870100D01*
X105076094Y-117852507D01*
X105050374Y-117807958D01*
X105050374Y-117781842D01*
X105054394Y-117759045D01*
X105069598Y-117672820D01*
X105049518Y-117558942D01*
X105044425Y-117550120D01*
X104991701Y-117458798D01*
X104938915Y-117414507D01*
X104903119Y-117384470D01*
X104903117Y-117384469D01*
X104794459Y-117344920D01*
X104794458Y-117344920D01*
X104678822Y-117344920D01*
X104678820Y-117344920D01*
X104570162Y-117384469D01*
X104481578Y-117458798D01*
X104423762Y-117558940D01*
X104409963Y-117637198D01*
X104403682Y-117672820D01*
X104413151Y-117726523D01*
X104422906Y-117781842D01*
X104413973Y-117832500D01*
X104374568Y-117865565D01*
X104348848Y-117870100D01*
X102302637Y-117870100D01*
X102254299Y-117852507D01*
X102228579Y-117807958D01*
X102228579Y-117781842D01*
X102232599Y-117759045D01*
X102249358Y-117664000D01*
X102229278Y-117550122D01*
X102228469Y-117548720D01*
X102171461Y-117449978D01*
X102093389Y-117384469D01*
X102082879Y-117375650D01*
X102082877Y-117375649D01*
X101974219Y-117336100D01*
X101974218Y-117336100D01*
X101858582Y-117336100D01*
X101858580Y-117336100D01*
X101749922Y-117375649D01*
X101661338Y-117449978D01*
X101603522Y-117550120D01*
X101583442Y-117664000D01*
X101604221Y-117781842D01*
X101595288Y-117832500D01*
X101555883Y-117865565D01*
X101530163Y-117870100D01*
X100009507Y-117870100D01*
X99961169Y-117852507D01*
X99956333Y-117848074D01*
X99421926Y-117313667D01*
X99400186Y-117267047D01*
X99399900Y-117260493D01*
X99399900Y-115927086D01*
X99417493Y-115878748D01*
X99421926Y-115873912D01*
X99863972Y-115431866D01*
X99863976Y-115431862D01*
X99900825Y-115368037D01*
X99919900Y-115296850D01*
X99919900Y-115223150D01*
X99919900Y-115108020D01*
X100167042Y-115108020D01*
X100187122Y-115221899D01*
X100244938Y-115322041D01*
X100285384Y-115355978D01*
X100333521Y-115396370D01*
X100442182Y-115435920D01*
X100442184Y-115435920D01*
X100557816Y-115435920D01*
X100557818Y-115435920D01*
X100666479Y-115396370D01*
X100755061Y-115322041D01*
X100812878Y-115221898D01*
X100832958Y-115108020D01*
X100824756Y-115061504D01*
X100833688Y-115010847D01*
X100873090Y-114977782D01*
X100926479Y-114958350D01*
X101015061Y-114884021D01*
X101072878Y-114783878D01*
X101092958Y-114670000D01*
X101072878Y-114556122D01*
X101072877Y-114556120D01*
X101072877Y-114556118D01*
X101028996Y-114480113D01*
X101020064Y-114429455D01*
X101045784Y-114384907D01*
X101094121Y-114367314D01*
X101112450Y-114367314D01*
X101112452Y-114367314D01*
X101219981Y-114328176D01*
X101271419Y-114328176D01*
X101310825Y-114361241D01*
X101320900Y-114398841D01*
X101320900Y-115609586D01*
X101306462Y-115649262D01*
X101308228Y-115650282D01*
X101247122Y-115756120D01*
X101227042Y-115870000D01*
X101247122Y-115983879D01*
X101304938Y-116084021D01*
X101349230Y-116121185D01*
X101393521Y-116158350D01*
X101502182Y-116197900D01*
X101502184Y-116197900D01*
X101617816Y-116197900D01*
X101617818Y-116197900D01*
X101685437Y-116173288D01*
X101724620Y-116159027D01*
X101776060Y-116159027D01*
X101815465Y-116192092D01*
X101825540Y-116229692D01*
X101825540Y-116266097D01*
X101807947Y-116314435D01*
X101798681Y-116323700D01*
X101788339Y-116332379D01*
X101788338Y-116332380D01*
X101730522Y-116432520D01*
X101710442Y-116546400D01*
X101730522Y-116660279D01*
X101788338Y-116760421D01*
X101832630Y-116797585D01*
X101876921Y-116834750D01*
X101985582Y-116874300D01*
X101985584Y-116874300D01*
X102101216Y-116874300D01*
X102101218Y-116874300D01*
X102209879Y-116834750D01*
X102298461Y-116760421D01*
X102356278Y-116660278D01*
X102376358Y-116546400D01*
X102356278Y-116432522D01*
X102298461Y-116332379D01*
X102295172Y-116326682D01*
X102297516Y-116325328D01*
X102283740Y-116287464D01*
X102283740Y-115570000D01*
X102467042Y-115570000D01*
X102487122Y-115683879D01*
X102544938Y-115784021D01*
X102571278Y-115806122D01*
X102633521Y-115858350D01*
X102742182Y-115897900D01*
X102742184Y-115897900D01*
X102857816Y-115897900D01*
X102857818Y-115897900D01*
X102966479Y-115858350D01*
X103055061Y-115784021D01*
X103112878Y-115683878D01*
X103132958Y-115570000D01*
X103132957Y-115569998D01*
X103132958Y-115569997D01*
X103112645Y-115454802D01*
X103121577Y-115404143D01*
X103160982Y-115371078D01*
X103212421Y-115371078D01*
X103235039Y-115384136D01*
X103258883Y-115404143D01*
X103310161Y-115447170D01*
X103418822Y-115486720D01*
X103418824Y-115486720D01*
X103534456Y-115486720D01*
X103534458Y-115486720D01*
X103643119Y-115447170D01*
X103731701Y-115372841D01*
X103789518Y-115272698D01*
X103809598Y-115158820D01*
X103789518Y-115044942D01*
X103775342Y-115020388D01*
X103731701Y-114944798D01*
X103671160Y-114893999D01*
X103643119Y-114870470D01*
X103643117Y-114870469D01*
X103534459Y-114830920D01*
X103534458Y-114830920D01*
X103418822Y-114830920D01*
X103418820Y-114830920D01*
X103310162Y-114870469D01*
X103221578Y-114944798D01*
X103163762Y-115044940D01*
X103149921Y-115123438D01*
X103143682Y-115158820D01*
X103154804Y-115221898D01*
X103163995Y-115274018D01*
X103155062Y-115324676D01*
X103115657Y-115357741D01*
X103064217Y-115357741D01*
X103041600Y-115344683D01*
X102991599Y-115302728D01*
X102966479Y-115281650D01*
X102966477Y-115281649D01*
X102857819Y-115242100D01*
X102857818Y-115242100D01*
X102742182Y-115242100D01*
X102742180Y-115242100D01*
X102633522Y-115281649D01*
X102544938Y-115355978D01*
X102487122Y-115456120D01*
X102467042Y-115570000D01*
X102283740Y-115570000D01*
X102283740Y-114185368D01*
X102301333Y-114137030D01*
X102310598Y-114127765D01*
X102315061Y-114124021D01*
X102372878Y-114023878D01*
X102392958Y-113910000D01*
X102372878Y-113796122D01*
X102351376Y-113758879D01*
X102315061Y-113695978D01*
X102254306Y-113645000D01*
X102226479Y-113621650D01*
X102226477Y-113621649D01*
X102117819Y-113582100D01*
X102117818Y-113582100D01*
X102002182Y-113582100D01*
X102002180Y-113582100D01*
X101893520Y-113621650D01*
X101893518Y-113621651D01*
X101889086Y-113625370D01*
X101840748Y-113642961D01*
X101792416Y-113625368D01*
X101716479Y-113561650D01*
X101716476Y-113561648D01*
X101716475Y-113561648D01*
X101607819Y-113522100D01*
X101607818Y-113522100D01*
X101492182Y-113522100D01*
X101492180Y-113522100D01*
X101383522Y-113561649D01*
X101294938Y-113635978D01*
X101258762Y-113698637D01*
X101219356Y-113731702D01*
X101167917Y-113731702D01*
X101112453Y-113711514D01*
X101112452Y-113711514D01*
X100996816Y-113711514D01*
X100996814Y-113711514D01*
X100888156Y-113751063D01*
X100799572Y-113825392D01*
X100741756Y-113925534D01*
X100721676Y-114039414D01*
X100741756Y-114153295D01*
X100785638Y-114229301D01*
X100794570Y-114279959D01*
X100768850Y-114324507D01*
X100720513Y-114342100D01*
X100702180Y-114342100D01*
X100593522Y-114381649D01*
X100504938Y-114455978D01*
X100447122Y-114556120D01*
X100433128Y-114635483D01*
X100427042Y-114670000D01*
X100431252Y-114693879D01*
X100435244Y-114716515D01*
X100426311Y-114767173D01*
X100386907Y-114800237D01*
X100333524Y-114819667D01*
X100333523Y-114819668D01*
X100244938Y-114893998D01*
X100187122Y-114994140D01*
X100167042Y-115108020D01*
X99919900Y-115108020D01*
X99919900Y-114811147D01*
X99929975Y-114773547D01*
X99952878Y-114733878D01*
X99972958Y-114620000D01*
X99952878Y-114506122D01*
X99929974Y-114466450D01*
X99919900Y-114428851D01*
X99919900Y-114335444D01*
X99908286Y-114292099D01*
X99908286Y-114292098D01*
X99900827Y-114264260D01*
X99900821Y-114264247D01*
X99863976Y-114200430D01*
X99018966Y-113355420D01*
X104745492Y-113355420D01*
X104765572Y-113469299D01*
X104823388Y-113569441D01*
X104838475Y-113582100D01*
X104911971Y-113643770D01*
X105020632Y-113683320D01*
X105020634Y-113683320D01*
X105136266Y-113683320D01*
X105136268Y-113683320D01*
X105244929Y-113643770D01*
X105333511Y-113569441D01*
X105391328Y-113469298D01*
X105411408Y-113355420D01*
X105391328Y-113241542D01*
X105391327Y-113241540D01*
X105333511Y-113141398D01*
X105280725Y-113097107D01*
X105244929Y-113067070D01*
X105244927Y-113067069D01*
X105136269Y-113027520D01*
X105136268Y-113027520D01*
X105020632Y-113027520D01*
X105020630Y-113027520D01*
X104911972Y-113067069D01*
X104823388Y-113141398D01*
X104765572Y-113241540D01*
X104745492Y-113355420D01*
X99018966Y-113355420D01*
X98463546Y-112800000D01*
X100237042Y-112800000D01*
X100257122Y-112913879D01*
X100314938Y-113014021D01*
X100359230Y-113051185D01*
X100403521Y-113088350D01*
X100512182Y-113127900D01*
X100512184Y-113127900D01*
X100627816Y-113127900D01*
X100627818Y-113127900D01*
X100736479Y-113088350D01*
X100825061Y-113014021D01*
X100882878Y-112913878D01*
X100902958Y-112800000D01*
X100882878Y-112686122D01*
X100847522Y-112624883D01*
X100825061Y-112585978D01*
X100740049Y-112514646D01*
X100736479Y-112511650D01*
X100736477Y-112511649D01*
X100627819Y-112472100D01*
X100627818Y-112472100D01*
X100512182Y-112472100D01*
X100512180Y-112472100D01*
X100403522Y-112511649D01*
X100314938Y-112585978D01*
X100257122Y-112686120D01*
X100237042Y-112800000D01*
X98463546Y-112800000D01*
X98231366Y-112567820D01*
X98209626Y-112521200D01*
X98209340Y-112514646D01*
X98209340Y-112460000D01*
X99257042Y-112460000D01*
X99277122Y-112573879D01*
X99334938Y-112674021D01*
X99349360Y-112686122D01*
X99423521Y-112748350D01*
X99532182Y-112787900D01*
X99532184Y-112787900D01*
X99647816Y-112787900D01*
X99647818Y-112787900D01*
X99756479Y-112748350D01*
X99845061Y-112674021D01*
X99902878Y-112573878D01*
X99922958Y-112460000D01*
X99902878Y-112346122D01*
X99897577Y-112336940D01*
X99888644Y-112286282D01*
X99914364Y-112241734D01*
X99914365Y-112241733D01*
X99995061Y-112174021D01*
X100018330Y-112133718D01*
X100052878Y-112073878D01*
X100055709Y-112057820D01*
X106323682Y-112057820D01*
X106343762Y-112171699D01*
X106401578Y-112271841D01*
X106418789Y-112286282D01*
X106490161Y-112346170D01*
X106598822Y-112385720D01*
X106598824Y-112385720D01*
X106714456Y-112385720D01*
X106714458Y-112385720D01*
X106823119Y-112346170D01*
X106911701Y-112271841D01*
X106969518Y-112171698D01*
X106989598Y-112057820D01*
X106969518Y-111943942D01*
X106946470Y-111904021D01*
X106911701Y-111843798D01*
X106858915Y-111799507D01*
X106823119Y-111769470D01*
X106823117Y-111769469D01*
X106714459Y-111729920D01*
X106714458Y-111729920D01*
X106598822Y-111729920D01*
X106598820Y-111729920D01*
X106490162Y-111769469D01*
X106401578Y-111843798D01*
X106343762Y-111943940D01*
X106323682Y-112057820D01*
X100055709Y-112057820D01*
X100072958Y-111960000D01*
X100052878Y-111846122D01*
X100045809Y-111833878D01*
X99995061Y-111745978D01*
X99964100Y-111720000D01*
X101107042Y-111720000D01*
X101127122Y-111833879D01*
X101184938Y-111934021D01*
X101229230Y-111971185D01*
X101273521Y-112008350D01*
X101382182Y-112047900D01*
X101382184Y-112047900D01*
X101497816Y-112047900D01*
X101497818Y-112047900D01*
X101606479Y-112008350D01*
X101695061Y-111934021D01*
X101752878Y-111833878D01*
X101772958Y-111720000D01*
X101767668Y-111690000D01*
X102657042Y-111690000D01*
X102677122Y-111803879D01*
X102734938Y-111904021D01*
X102779230Y-111941185D01*
X102823521Y-111978350D01*
X102932182Y-112017900D01*
X102932184Y-112017900D01*
X103047816Y-112017900D01*
X103047818Y-112017900D01*
X103156479Y-111978350D01*
X103245061Y-111904021D01*
X103302878Y-111803878D01*
X103322958Y-111690000D01*
X103302878Y-111576122D01*
X103273470Y-111525185D01*
X103245061Y-111475978D01*
X103192230Y-111431649D01*
X103156479Y-111401650D01*
X103156477Y-111401649D01*
X103047819Y-111362100D01*
X103047818Y-111362100D01*
X102932182Y-111362100D01*
X102932180Y-111362100D01*
X102823522Y-111401649D01*
X102734938Y-111475978D01*
X102677122Y-111576120D01*
X102657042Y-111690000D01*
X101767668Y-111690000D01*
X101752878Y-111606122D01*
X101751577Y-111603869D01*
X101695061Y-111505978D01*
X101632203Y-111453235D01*
X101606479Y-111431650D01*
X101606477Y-111431649D01*
X101497819Y-111392100D01*
X101497818Y-111392100D01*
X101382182Y-111392100D01*
X101382180Y-111392100D01*
X101273522Y-111431649D01*
X101184938Y-111505978D01*
X101127122Y-111606120D01*
X101107042Y-111720000D01*
X99964100Y-111720000D01*
X99942275Y-111701687D01*
X99906479Y-111671650D01*
X99906477Y-111671649D01*
X99797819Y-111632100D01*
X99797818Y-111632100D01*
X99682182Y-111632100D01*
X99682180Y-111632100D01*
X99573522Y-111671649D01*
X99484938Y-111745978D01*
X99427122Y-111846120D01*
X99407042Y-111960000D01*
X99427122Y-112073879D01*
X99432423Y-112083060D01*
X99441356Y-112133718D01*
X99415636Y-112178266D01*
X99415635Y-112178267D01*
X99334938Y-112245978D01*
X99277122Y-112346120D01*
X99257042Y-112460000D01*
X98209340Y-112460000D01*
X98209340Y-110440000D01*
X99097042Y-110440000D01*
X99117122Y-110553879D01*
X99174938Y-110654021D01*
X99186900Y-110664058D01*
X99212620Y-110708606D01*
X99203689Y-110759264D01*
X99203688Y-110759264D01*
X99156764Y-110840538D01*
X99136684Y-110954420D01*
X99156764Y-111068299D01*
X99214580Y-111168441D01*
X99251729Y-111199612D01*
X99303163Y-111242770D01*
X99411824Y-111282320D01*
X99411826Y-111282320D01*
X99527458Y-111282320D01*
X99527460Y-111282320D01*
X99636121Y-111242770D01*
X99724703Y-111168441D01*
X99782520Y-111068298D01*
X99802600Y-110954420D01*
X99782520Y-110840542D01*
X99782518Y-110840538D01*
X99724703Y-110740398D01*
X99712741Y-110730361D01*
X99687021Y-110685813D01*
X99695952Y-110635155D01*
X99742878Y-110553878D01*
X99762958Y-110440000D01*
X99757668Y-110410000D01*
X102747042Y-110410000D01*
X102767122Y-110523879D01*
X102824938Y-110624021D01*
X102864331Y-110657075D01*
X102913521Y-110698350D01*
X103022182Y-110737900D01*
X103022184Y-110737900D01*
X103137816Y-110737900D01*
X103137818Y-110737900D01*
X103246479Y-110698350D01*
X103335061Y-110624021D01*
X103392878Y-110523878D01*
X103412958Y-110410000D01*
X103392878Y-110296122D01*
X103355453Y-110231299D01*
X103335061Y-110195978D01*
X103282230Y-110151649D01*
X103246479Y-110121650D01*
X103246477Y-110121649D01*
X103137819Y-110082100D01*
X103137818Y-110082100D01*
X103022182Y-110082100D01*
X103022180Y-110082100D01*
X102913522Y-110121649D01*
X102824938Y-110195978D01*
X102767122Y-110296120D01*
X102747042Y-110410000D01*
X99757668Y-110410000D01*
X99742878Y-110326122D01*
X99725557Y-110296120D01*
X99685061Y-110225978D01*
X99606380Y-110159958D01*
X99596479Y-110151650D01*
X99596477Y-110151649D01*
X99487819Y-110112100D01*
X99487818Y-110112100D01*
X99372182Y-110112100D01*
X99372180Y-110112100D01*
X99263522Y-110151649D01*
X99174938Y-110225978D01*
X99117122Y-110326120D01*
X99097042Y-110440000D01*
X98209340Y-110440000D01*
X98209340Y-109624168D01*
X98226933Y-109575830D01*
X98271482Y-109550110D01*
X98310258Y-109553503D01*
X98343822Y-109565720D01*
X98343824Y-109565720D01*
X98459456Y-109565720D01*
X98459458Y-109565720D01*
X98568119Y-109526170D01*
X98656701Y-109451841D01*
X98672863Y-109423846D01*
X98712267Y-109390781D01*
X98763707Y-109390779D01*
X98803113Y-109423843D01*
X98812046Y-109448386D01*
X98827121Y-109533877D01*
X98884938Y-109634021D01*
X98913249Y-109657776D01*
X98973521Y-109708350D01*
X99082182Y-109747900D01*
X99082184Y-109747900D01*
X99197816Y-109747900D01*
X99197818Y-109747900D01*
X99306479Y-109708350D01*
X99395061Y-109634021D01*
X99452878Y-109533878D01*
X99472958Y-109420000D01*
X99464037Y-109369406D01*
X100221682Y-109369406D01*
X100241762Y-109483285D01*
X100299578Y-109583427D01*
X100343870Y-109620591D01*
X100388161Y-109657756D01*
X100496822Y-109697306D01*
X100496824Y-109697306D01*
X100612456Y-109697306D01*
X100612458Y-109697306D01*
X100721119Y-109657756D01*
X100756294Y-109628239D01*
X100804629Y-109610647D01*
X100852965Y-109628239D01*
X100888161Y-109657772D01*
X100996822Y-109697322D01*
X100996824Y-109697322D01*
X101112456Y-109697322D01*
X101112458Y-109697322D01*
X101221119Y-109657772D01*
X101256303Y-109628248D01*
X101304639Y-109610655D01*
X101352975Y-109628247D01*
X101388161Y-109657772D01*
X101496822Y-109697322D01*
X101496824Y-109697322D01*
X101612456Y-109697322D01*
X101612458Y-109697322D01*
X101721119Y-109657772D01*
X101756301Y-109628249D01*
X101804635Y-109610657D01*
X101852971Y-109628248D01*
X101888161Y-109657776D01*
X101996822Y-109697326D01*
X101996824Y-109697326D01*
X102112456Y-109697326D01*
X102112458Y-109697326D01*
X102221119Y-109657776D01*
X102256306Y-109628249D01*
X102304641Y-109610657D01*
X102352977Y-109628249D01*
X102388161Y-109657772D01*
X102496822Y-109697322D01*
X102496824Y-109697322D01*
X102612456Y-109697322D01*
X102612458Y-109697322D01*
X102721119Y-109657772D01*
X102809701Y-109583443D01*
X102867518Y-109483300D01*
X102887598Y-109369422D01*
X102867518Y-109255544D01*
X102838902Y-109205979D01*
X102809701Y-109155400D01*
X102756292Y-109110586D01*
X102721119Y-109081072D01*
X102721117Y-109081071D01*
X102612459Y-109041522D01*
X102612458Y-109041522D01*
X102496822Y-109041522D01*
X102496820Y-109041522D01*
X102388161Y-109081071D01*
X102352973Y-109110597D01*
X102304635Y-109128189D01*
X102256300Y-109110596D01*
X102234257Y-109092100D01*
X102221119Y-109081076D01*
X102221117Y-109081075D01*
X102112459Y-109041526D01*
X102112458Y-109041526D01*
X102037320Y-109041526D01*
X102000329Y-109028063D01*
X101974681Y-109049584D01*
X101955553Y-109056546D01*
X101888159Y-109081076D01*
X101852979Y-109110596D01*
X101804642Y-109128189D01*
X101756304Y-109110595D01*
X101721120Y-109081071D01*
X101612459Y-109041522D01*
X101612458Y-109041522D01*
X101496822Y-109041522D01*
X101496820Y-109041522D01*
X101388161Y-109081071D01*
X101375018Y-109092100D01*
X101352988Y-109110586D01*
X101352978Y-109110594D01*
X101304640Y-109128187D01*
X101256302Y-109110594D01*
X101256292Y-109110586D01*
X101221119Y-109081072D01*
X101221118Y-109081071D01*
X101112459Y-109041522D01*
X101112458Y-109041522D01*
X100996822Y-109041522D01*
X100996820Y-109041522D01*
X100888161Y-109081071D01*
X100852985Y-109110587D01*
X100804647Y-109128179D01*
X100756312Y-109110586D01*
X100742528Y-109099020D01*
X100721119Y-109081056D01*
X100721117Y-109081055D01*
X100612459Y-109041506D01*
X100612458Y-109041506D01*
X100496822Y-109041506D01*
X100496820Y-109041506D01*
X100388162Y-109081055D01*
X100299578Y-109155384D01*
X100241762Y-109255526D01*
X100221682Y-109369406D01*
X99464037Y-109369406D01*
X99452878Y-109306122D01*
X99423667Y-109255526D01*
X99395061Y-109205978D01*
X99329713Y-109151146D01*
X99306479Y-109131650D01*
X99306477Y-109131649D01*
X99197819Y-109092100D01*
X99197818Y-109092100D01*
X99082182Y-109092100D01*
X99082180Y-109092100D01*
X98973522Y-109131649D01*
X98884938Y-109205978D01*
X98868775Y-109233974D01*
X98829369Y-109267039D01*
X98777930Y-109267039D01*
X98738525Y-109233974D01*
X98729593Y-109209435D01*
X98714518Y-109123942D01*
X98714517Y-109123940D01*
X98714517Y-109123939D01*
X98656701Y-109023798D01*
X98603915Y-108979507D01*
X98568119Y-108949470D01*
X98568117Y-108949469D01*
X98539967Y-108939223D01*
X98500562Y-108906158D01*
X98491629Y-108855500D01*
X98512510Y-108815387D01*
X98713265Y-108614632D01*
X98759882Y-108592894D01*
X98809569Y-108606208D01*
X98831561Y-108630208D01*
X98881578Y-108716841D01*
X98925870Y-108754005D01*
X98970161Y-108791170D01*
X99078822Y-108830720D01*
X99078824Y-108830720D01*
X99194456Y-108830720D01*
X99194458Y-108830720D01*
X99303119Y-108791170D01*
X99391701Y-108716841D01*
X99421516Y-108665200D01*
X99460919Y-108632136D01*
X99512359Y-108632136D01*
X99551763Y-108665198D01*
X99560213Y-108679833D01*
X99581579Y-108716842D01*
X99629745Y-108757257D01*
X99670161Y-108791170D01*
X99778822Y-108830720D01*
X99778824Y-108830720D01*
X99894456Y-108830720D01*
X99894458Y-108830720D01*
X100003119Y-108791170D01*
X100091701Y-108716841D01*
X100121516Y-108665200D01*
X100160919Y-108632136D01*
X100212359Y-108632136D01*
X100251763Y-108665198D01*
X100260213Y-108679833D01*
X100281579Y-108716842D01*
X100329745Y-108757257D01*
X100370161Y-108791170D01*
X100478822Y-108830720D01*
X100478824Y-108830720D01*
X100594456Y-108830720D01*
X100594458Y-108830720D01*
X100703119Y-108791170D01*
X100791701Y-108716841D01*
X100813069Y-108679831D01*
X100852471Y-108646767D01*
X100903911Y-108646765D01*
X100943317Y-108679829D01*
X100943318Y-108679831D01*
X100965378Y-108718041D01*
X101009670Y-108755205D01*
X101053961Y-108792370D01*
X101162622Y-108831920D01*
X101162624Y-108831920D01*
X101278256Y-108831920D01*
X101278258Y-108831920D01*
X101386919Y-108792370D01*
X101475501Y-108718041D01*
X101490189Y-108692601D01*
X101529591Y-108659538D01*
X101581031Y-108659537D01*
X101620437Y-108692601D01*
X101620438Y-108692602D01*
X101676578Y-108789841D01*
X101707020Y-108815384D01*
X101765161Y-108864170D01*
X101873822Y-108903720D01*
X101873824Y-108903720D01*
X101948961Y-108903720D01*
X101985951Y-108917182D01*
X102011600Y-108895661D01*
X102036931Y-108886441D01*
X102098119Y-108864170D01*
X102186701Y-108789841D01*
X102244518Y-108689698D01*
X102247019Y-108675510D01*
X102267900Y-108635396D01*
X102549353Y-108353945D01*
X102595973Y-108332206D01*
X102602527Y-108331920D01*
X103647608Y-108331920D01*
X103695946Y-108349513D01*
X103721666Y-108394062D01*
X103721666Y-108420176D01*
X103714926Y-108458399D01*
X103707094Y-108502820D01*
X103706882Y-108504020D01*
X103711273Y-108528920D01*
X103726962Y-108617899D01*
X103784778Y-108718041D01*
X103829070Y-108755205D01*
X103873361Y-108792370D01*
X103982022Y-108831920D01*
X103982024Y-108831920D01*
X104097656Y-108831920D01*
X104097658Y-108831920D01*
X104206319Y-108792370D01*
X104294901Y-108718041D01*
X104317614Y-108678699D01*
X104357019Y-108645634D01*
X104408459Y-108645634D01*
X104447864Y-108678697D01*
X104455733Y-108692326D01*
X104470579Y-108718042D01*
X104518745Y-108758457D01*
X104559161Y-108792370D01*
X104667822Y-108831920D01*
X104667824Y-108831920D01*
X104783456Y-108831920D01*
X104783458Y-108831920D01*
X104892119Y-108792370D01*
X104980701Y-108718041D01*
X105038518Y-108617898D01*
X105058598Y-108504020D01*
X105043814Y-108420177D01*
X105052747Y-108369520D01*
X105092152Y-108336455D01*
X105117872Y-108331920D01*
X106610040Y-108331920D01*
X106658378Y-108349513D01*
X106684098Y-108394062D01*
X106675165Y-108444720D01*
X106667646Y-108455458D01*
X106665178Y-108458398D01*
X106607362Y-108558540D01*
X106587282Y-108672420D01*
X106607362Y-108786299D01*
X106665178Y-108886441D01*
X106693160Y-108909920D01*
X106753761Y-108960770D01*
X106862422Y-109000320D01*
X106862424Y-109000320D01*
X106978056Y-109000320D01*
X106978058Y-109000320D01*
X107086719Y-108960770D01*
X107175301Y-108886441D01*
X107233118Y-108786298D01*
X107253198Y-108672420D01*
X107233118Y-108558542D01*
X107201640Y-108504020D01*
X107175301Y-108458398D01*
X107172834Y-108455458D01*
X107155240Y-108407121D01*
X107172833Y-108358783D01*
X107217381Y-108333063D01*
X107230440Y-108331920D01*
X107474350Y-108331920D01*
X107522688Y-108349513D01*
X107527524Y-108353946D01*
X107575376Y-108401798D01*
X107596259Y-108441911D01*
X107598761Y-108456102D01*
X107656578Y-108556245D01*
X107700256Y-108592894D01*
X107745161Y-108630574D01*
X107853822Y-108670124D01*
X107853824Y-108670124D01*
X107969456Y-108670124D01*
X107969458Y-108670124D01*
X108078119Y-108630574D01*
X108166701Y-108556245D01*
X108224518Y-108456102D01*
X108244598Y-108342224D01*
X108224518Y-108228346D01*
X108209364Y-108202098D01*
X108166701Y-108128202D01*
X108078119Y-108053874D01*
X108078118Y-108053873D01*
X108001033Y-108025815D01*
X107973581Y-108008326D01*
X107931734Y-107966479D01*
X107851628Y-107886374D01*
X107829889Y-107839754D01*
X107843203Y-107790067D01*
X107885340Y-107760562D01*
X107904803Y-107758000D01*
X108800800Y-107758000D01*
X108849138Y-107775593D01*
G37*
G04 #@! TD.AperFunction*
G04 #@! TA.AperFunction,Conductor*
G36*
X120325459Y-107771593D02*
G01*
X120351179Y-107816142D01*
X120342246Y-107866800D01*
X120325458Y-107886807D01*
X120254938Y-107945978D01*
X120197122Y-108046120D01*
X120177042Y-108160000D01*
X120197122Y-108273879D01*
X120254938Y-108374021D01*
X120292570Y-108405597D01*
X120343521Y-108448350D01*
X120452182Y-108487900D01*
X120452184Y-108487900D01*
X120567816Y-108487900D01*
X120567818Y-108487900D01*
X120676479Y-108448350D01*
X120706462Y-108423190D01*
X120754800Y-108405597D01*
X120803137Y-108423190D01*
X120828857Y-108467738D01*
X120830000Y-108480797D01*
X120830000Y-118346800D01*
X120812407Y-118395138D01*
X120767858Y-118420858D01*
X120754800Y-118422000D01*
X111127200Y-118422000D01*
X111078862Y-118404407D01*
X111053142Y-118359858D01*
X111052000Y-118346800D01*
X111052000Y-117101140D01*
X111843902Y-117101140D01*
X111863982Y-117215019D01*
X111921798Y-117315161D01*
X111966090Y-117352325D01*
X112010381Y-117389490D01*
X112119042Y-117429040D01*
X112119044Y-117429040D01*
X112234676Y-117429040D01*
X112234678Y-117429040D01*
X112343339Y-117389490D01*
X112431921Y-117315161D01*
X112489738Y-117215018D01*
X112509818Y-117101140D01*
X112489738Y-116987262D01*
X112489737Y-116987260D01*
X112431921Y-116887118D01*
X112379135Y-116842827D01*
X112343339Y-116812790D01*
X112343337Y-116812789D01*
X112234679Y-116773240D01*
X112234678Y-116773240D01*
X112119042Y-116773240D01*
X112119040Y-116773240D01*
X112010382Y-116812789D01*
X111921798Y-116887118D01*
X111863982Y-116987260D01*
X111843902Y-117101140D01*
X111052000Y-117101140D01*
X111052000Y-116303640D01*
X113717042Y-116303640D01*
X113737122Y-116417519D01*
X113794938Y-116517661D01*
X113839230Y-116554825D01*
X113883521Y-116591990D01*
X113992182Y-116631540D01*
X113992184Y-116631540D01*
X114107816Y-116631540D01*
X114107818Y-116631540D01*
X114216479Y-116591990D01*
X114305061Y-116517661D01*
X114362878Y-116417518D01*
X114382958Y-116303640D01*
X114362878Y-116189762D01*
X114315084Y-116106979D01*
X114305061Y-116089618D01*
X114237168Y-116032650D01*
X114216479Y-116015290D01*
X114216477Y-116015289D01*
X114107819Y-115975740D01*
X114107818Y-115975740D01*
X113992182Y-115975740D01*
X113992180Y-115975740D01*
X113883522Y-116015289D01*
X113794938Y-116089618D01*
X113737122Y-116189760D01*
X113717042Y-116303640D01*
X111052000Y-116303640D01*
X111052000Y-115694040D01*
X111602962Y-115694040D01*
X111623042Y-115807919D01*
X111680858Y-115908061D01*
X111725150Y-115945225D01*
X111769441Y-115982390D01*
X111878102Y-116021940D01*
X111878104Y-116021940D01*
X111993736Y-116021940D01*
X111993738Y-116021940D01*
X112102399Y-115982390D01*
X112190981Y-115908061D01*
X112248798Y-115807918D01*
X112248979Y-115806891D01*
X112249501Y-115805985D01*
X112251048Y-115801737D01*
X112251796Y-115802009D01*
X112274691Y-115762341D01*
X112323026Y-115744741D01*
X112371366Y-115762328D01*
X112387296Y-115785066D01*
X112388832Y-115784180D01*
X112449938Y-115890021D01*
X112471438Y-115908061D01*
X112538521Y-115964350D01*
X112647182Y-116003900D01*
X112647184Y-116003900D01*
X112762816Y-116003900D01*
X112762818Y-116003900D01*
X112871479Y-115964350D01*
X112960061Y-115890021D01*
X113017878Y-115789878D01*
X113037958Y-115676000D01*
X113017878Y-115562122D01*
X112994644Y-115521879D01*
X112960061Y-115461978D01*
X112895731Y-115408000D01*
X114498702Y-115408000D01*
X114518782Y-115521879D01*
X114576598Y-115622021D01*
X114620890Y-115659185D01*
X114665181Y-115696350D01*
X114773842Y-115735900D01*
X114773844Y-115735900D01*
X114889476Y-115735900D01*
X114889478Y-115735900D01*
X114998139Y-115696350D01*
X115086721Y-115622021D01*
X115144538Y-115521878D01*
X115164618Y-115408000D01*
X115144538Y-115294122D01*
X115122525Y-115255994D01*
X115086721Y-115193978D01*
X115033935Y-115149687D01*
X114998139Y-115119650D01*
X114998137Y-115119649D01*
X114889479Y-115080100D01*
X114889478Y-115080100D01*
X114773842Y-115080100D01*
X114773840Y-115080100D01*
X114665182Y-115119649D01*
X114576598Y-115193978D01*
X114518782Y-115294120D01*
X114498702Y-115408000D01*
X112895731Y-115408000D01*
X112892977Y-115405689D01*
X112871479Y-115387650D01*
X112871477Y-115387649D01*
X112762819Y-115348100D01*
X112762818Y-115348100D01*
X112647182Y-115348100D01*
X112647180Y-115348100D01*
X112538522Y-115387649D01*
X112449938Y-115461978D01*
X112392121Y-115562122D01*
X112391939Y-115563157D01*
X112391413Y-115564066D01*
X112389872Y-115568303D01*
X112389124Y-115568031D01*
X112366219Y-115607705D01*
X112317881Y-115625298D01*
X112269544Y-115607704D01*
X112253626Y-115584971D01*
X112252088Y-115585860D01*
X112190981Y-115480018D01*
X112138195Y-115435727D01*
X112102399Y-115405690D01*
X112102397Y-115405689D01*
X111993739Y-115366140D01*
X111993738Y-115366140D01*
X111878102Y-115366140D01*
X111878100Y-115366140D01*
X111769442Y-115405689D01*
X111680858Y-115480018D01*
X111623042Y-115580160D01*
X111602962Y-115694040D01*
X111052000Y-115694040D01*
X111052000Y-115041973D01*
X112922042Y-115041973D01*
X112942122Y-115155852D01*
X112999938Y-115255994D01*
X113026999Y-115278700D01*
X113088521Y-115330323D01*
X113197182Y-115369873D01*
X113197184Y-115369873D01*
X113312816Y-115369873D01*
X113312818Y-115369873D01*
X113421479Y-115330323D01*
X113510061Y-115255994D01*
X113567878Y-115155851D01*
X113587958Y-115041973D01*
X113571882Y-114950800D01*
X115362402Y-114950800D01*
X115382482Y-115064679D01*
X115440298Y-115164821D01*
X115475047Y-115193978D01*
X115528881Y-115239150D01*
X115637542Y-115278700D01*
X115637544Y-115278700D01*
X115753176Y-115278700D01*
X115753178Y-115278700D01*
X115861839Y-115239150D01*
X115950421Y-115164821D01*
X116008238Y-115064678D01*
X116028318Y-114950800D01*
X116008238Y-114836922D01*
X116003059Y-114827951D01*
X115950421Y-114736778D01*
X115894526Y-114689878D01*
X115861839Y-114662450D01*
X115861837Y-114662449D01*
X115753179Y-114622900D01*
X115753178Y-114622900D01*
X115637542Y-114622900D01*
X115637540Y-114622900D01*
X115528882Y-114662449D01*
X115440298Y-114736778D01*
X115382482Y-114836920D01*
X115362402Y-114950800D01*
X113571882Y-114950800D01*
X113567878Y-114928095D01*
X113567877Y-114928093D01*
X113510061Y-114827951D01*
X113441945Y-114770796D01*
X113421479Y-114753623D01*
X113421477Y-114753622D01*
X113312819Y-114714073D01*
X113312818Y-114714073D01*
X113197182Y-114714073D01*
X113197180Y-114714073D01*
X113088522Y-114753622D01*
X112999938Y-114827951D01*
X112942122Y-114928093D01*
X112922042Y-115041973D01*
X111052000Y-115041973D01*
X111052000Y-114603700D01*
X111613122Y-114603700D01*
X111633202Y-114717579D01*
X111691018Y-114817721D01*
X111735310Y-114854885D01*
X111779601Y-114892050D01*
X111888262Y-114931600D01*
X111888264Y-114931600D01*
X112003896Y-114931600D01*
X112003898Y-114931600D01*
X112112559Y-114892050D01*
X112201141Y-114817721D01*
X112258958Y-114717578D01*
X112279038Y-114603700D01*
X112258958Y-114489822D01*
X112250636Y-114475408D01*
X112201141Y-114389678D01*
X112139875Y-114338271D01*
X112112559Y-114315350D01*
X112112557Y-114315349D01*
X112003899Y-114275800D01*
X112003898Y-114275800D01*
X111888262Y-114275800D01*
X111888260Y-114275800D01*
X111779602Y-114315349D01*
X111691018Y-114389678D01*
X111633202Y-114489820D01*
X111613122Y-114603700D01*
X111052000Y-114603700D01*
X111052000Y-113894687D01*
X111069593Y-113846349D01*
X111114142Y-113820629D01*
X111164800Y-113829562D01*
X111192326Y-113857088D01*
X111220877Y-113906542D01*
X111269043Y-113946957D01*
X111309459Y-113980870D01*
X111418120Y-114020420D01*
X111418122Y-114020420D01*
X111533754Y-114020420D01*
X111533756Y-114020420D01*
X111642417Y-113980870D01*
X111730999Y-113906541D01*
X111788816Y-113806398D01*
X111808896Y-113692520D01*
X111788816Y-113578642D01*
X111750143Y-113511657D01*
X111731000Y-113478499D01*
X111702372Y-113454478D01*
X111676652Y-113409929D01*
X111685585Y-113359271D01*
X111702371Y-113339266D01*
X111713461Y-113329961D01*
X111771278Y-113229818D01*
X111791358Y-113115940D01*
X111771278Y-113002062D01*
X111761503Y-112985131D01*
X111713461Y-112901918D01*
X111660675Y-112857627D01*
X111624879Y-112827590D01*
X111624877Y-112827589D01*
X111516219Y-112788040D01*
X111511667Y-112787238D01*
X111478085Y-112767849D01*
X111445094Y-112786897D01*
X111432035Y-112788040D01*
X111400580Y-112788040D01*
X111291922Y-112827589D01*
X111203339Y-112901917D01*
X111192325Y-112920995D01*
X111152919Y-112954059D01*
X111101479Y-112954059D01*
X111062075Y-112920993D01*
X111052000Y-112883394D01*
X111052000Y-112473411D01*
X111069593Y-112425073D01*
X111114142Y-112399353D01*
X111164800Y-112408286D01*
X111192325Y-112435812D01*
X111243296Y-112524099D01*
X111243298Y-112524101D01*
X111287590Y-112561265D01*
X111331881Y-112598430D01*
X111440542Y-112637980D01*
X111440546Y-112637980D01*
X111445093Y-112638782D01*
X111478674Y-112658170D01*
X111511666Y-112639123D01*
X111524725Y-112637980D01*
X111556176Y-112637980D01*
X111556178Y-112637980D01*
X111664839Y-112598430D01*
X111753421Y-112524101D01*
X111811238Y-112423958D01*
X111831318Y-112310080D01*
X111811238Y-112196202D01*
X111809669Y-112193485D01*
X111753422Y-112096061D01*
X111753421Y-112096059D01*
X111738565Y-112083594D01*
X111712847Y-112039047D01*
X111721780Y-111988389D01*
X111738566Y-111968383D01*
X111749701Y-111959041D01*
X111749705Y-111959035D01*
X111807517Y-111858899D01*
X111807518Y-111858898D01*
X111827598Y-111745020D01*
X111807518Y-111631142D01*
X111807517Y-111631141D01*
X111807517Y-111631138D01*
X111778872Y-111581523D01*
X111769940Y-111530865D01*
X111795660Y-111486317D01*
X111843998Y-111468724D01*
X111881751Y-111482465D01*
X111883128Y-111480083D01*
X111888821Y-111483370D01*
X111997482Y-111522920D01*
X111997484Y-111522920D01*
X112113116Y-111522920D01*
X112113118Y-111522920D01*
X112221779Y-111483370D01*
X112310361Y-111409041D01*
X112368178Y-111308898D01*
X112388258Y-111195020D01*
X112368178Y-111081142D01*
X112368177Y-111081140D01*
X112310361Y-110980998D01*
X112257575Y-110936707D01*
X112221779Y-110906670D01*
X112221777Y-110906669D01*
X112113119Y-110867120D01*
X112113118Y-110867120D01*
X111997482Y-110867120D01*
X111997480Y-110867120D01*
X111888822Y-110906669D01*
X111800238Y-110980998D01*
X111742422Y-111081140D01*
X111722342Y-111195020D01*
X111742422Y-111308898D01*
X111771068Y-111358516D01*
X111779999Y-111409174D01*
X111754279Y-111453722D01*
X111705941Y-111471315D01*
X111668188Y-111457573D01*
X111666812Y-111459957D01*
X111661118Y-111456669D01*
X111552459Y-111417120D01*
X111552458Y-111417120D01*
X111436822Y-111417120D01*
X111436820Y-111417120D01*
X111328162Y-111456669D01*
X111239578Y-111530998D01*
X111192325Y-111612845D01*
X111152920Y-111645910D01*
X111101480Y-111645910D01*
X111062075Y-111612845D01*
X111052000Y-111575245D01*
X111052000Y-110771020D01*
X111069593Y-110722682D01*
X111114142Y-110696962D01*
X111127200Y-110695820D01*
X111265302Y-110695820D01*
X111265303Y-110695820D01*
X111358843Y-110657075D01*
X112663473Y-109352443D01*
X112710093Y-109330704D01*
X112759780Y-109344018D01*
X112789285Y-109386155D01*
X112790704Y-109392559D01*
X112795161Y-109417837D01*
X112852978Y-109517981D01*
X112897270Y-109555145D01*
X112941561Y-109592310D01*
X113050222Y-109631860D01*
X113050224Y-109631860D01*
X113165856Y-109631860D01*
X113165858Y-109631860D01*
X113274519Y-109592310D01*
X113363101Y-109517981D01*
X113420918Y-109417838D01*
X113440998Y-109303960D01*
X113420918Y-109190082D01*
X113420917Y-109190080D01*
X113363101Y-109089938D01*
X113287043Y-109026119D01*
X113274519Y-109015610D01*
X113274517Y-109015609D01*
X113184401Y-108982809D01*
X113144996Y-108949744D01*
X113136063Y-108899085D01*
X113156947Y-108858970D01*
X113325896Y-108690021D01*
X113500487Y-108515430D01*
X113547106Y-108493691D01*
X113596793Y-108507005D01*
X113626298Y-108549142D01*
X113628860Y-108568605D01*
X113628860Y-114318809D01*
X113626297Y-114338271D01*
X113608261Y-114405590D01*
X113608261Y-114496010D01*
X113620800Y-114542810D01*
X113631661Y-114583346D01*
X113631663Y-114583351D01*
X113643412Y-114603700D01*
X113676872Y-114661653D01*
X113676873Y-114661654D01*
X113676875Y-114661657D01*
X113740802Y-114725584D01*
X113740804Y-114725585D01*
X113740807Y-114725588D01*
X113802076Y-114760962D01*
X113819108Y-114770796D01*
X113819109Y-114770796D01*
X113819112Y-114770798D01*
X113906450Y-114794199D01*
X113906451Y-114794199D01*
X113996869Y-114794199D01*
X113996870Y-114794199D01*
X114084208Y-114770798D01*
X114162513Y-114725588D01*
X114247048Y-114641053D01*
X114284607Y-114576000D01*
X114507042Y-114576000D01*
X114527122Y-114689879D01*
X114584938Y-114790021D01*
X114629230Y-114827185D01*
X114673521Y-114864350D01*
X114782182Y-114903900D01*
X114782184Y-114903900D01*
X114897816Y-114903900D01*
X114897818Y-114903900D01*
X115006479Y-114864350D01*
X115095061Y-114790021D01*
X115152878Y-114689878D01*
X115172958Y-114576000D01*
X115152878Y-114462122D01*
X115120240Y-114405590D01*
X115095061Y-114361978D01*
X115039489Y-114315349D01*
X115006479Y-114287650D01*
X115006477Y-114287649D01*
X114897819Y-114248100D01*
X114897818Y-114248100D01*
X114782182Y-114248100D01*
X114782180Y-114248100D01*
X114673522Y-114287649D01*
X114584938Y-114361978D01*
X114527122Y-114462120D01*
X114507042Y-114576000D01*
X114284607Y-114576000D01*
X114292258Y-114562748D01*
X114305346Y-114513900D01*
X114315660Y-114475409D01*
X114315660Y-111724020D01*
X114704302Y-111724020D01*
X114724382Y-111837899D01*
X114782198Y-111938041D01*
X114826490Y-111975205D01*
X114870781Y-112012370D01*
X114979442Y-112051920D01*
X114979444Y-112051920D01*
X115095076Y-112051920D01*
X115095078Y-112051920D01*
X115203739Y-112012370D01*
X115235166Y-111986000D01*
X116227042Y-111986000D01*
X116247122Y-112099879D01*
X116304938Y-112200021D01*
X116349230Y-112237185D01*
X116393521Y-112274350D01*
X116502182Y-112313900D01*
X116502184Y-112313900D01*
X116617816Y-112313900D01*
X116617818Y-112313900D01*
X116726479Y-112274350D01*
X116801884Y-112211078D01*
X116850221Y-112193485D01*
X116898559Y-112211079D01*
X116919697Y-112239908D01*
X116944945Y-112300864D01*
X117424552Y-112780470D01*
X117446292Y-112827090D01*
X117432978Y-112876777D01*
X117390841Y-112906282D01*
X117384444Y-112907700D01*
X117382187Y-112908098D01*
X117273522Y-112947649D01*
X117184938Y-113021978D01*
X117130125Y-113116920D01*
X117090720Y-113149985D01*
X117039281Y-113149985D01*
X116999875Y-113116920D01*
X116945061Y-113021978D01*
X116880351Y-112967681D01*
X116856479Y-112947650D01*
X116856477Y-112947649D01*
X116747819Y-112908100D01*
X116747818Y-112908100D01*
X116632182Y-112908100D01*
X116632180Y-112908100D01*
X116523522Y-112947649D01*
X116434938Y-113021978D01*
X116377122Y-113122120D01*
X116357042Y-113236000D01*
X116377122Y-113349879D01*
X116434938Y-113450021D01*
X116468878Y-113478499D01*
X116523521Y-113524350D01*
X116632182Y-113563900D01*
X116632184Y-113563900D01*
X116747816Y-113563900D01*
X116747818Y-113563900D01*
X116856479Y-113524350D01*
X116945061Y-113450021D01*
X116999875Y-113355078D01*
X117039279Y-113322014D01*
X117090719Y-113322014D01*
X117130123Y-113355076D01*
X117155918Y-113399754D01*
X117184939Y-113450022D01*
X117225313Y-113483899D01*
X117273521Y-113524350D01*
X117382182Y-113563900D01*
X117382184Y-113563900D01*
X117497816Y-113563900D01*
X117497818Y-113563900D01*
X117524581Y-113554159D01*
X117576019Y-113554159D01*
X117615425Y-113587223D01*
X117625500Y-113624824D01*
X117625500Y-115091623D01*
X117664245Y-115185164D01*
X118816047Y-116336964D01*
X118836930Y-116377078D01*
X118844061Y-116417518D01*
X118847122Y-116434879D01*
X118904938Y-116535021D01*
X118949230Y-116572185D01*
X118993521Y-116609350D01*
X119102182Y-116648900D01*
X119102184Y-116648900D01*
X119217816Y-116648900D01*
X119217818Y-116648900D01*
X119326479Y-116609350D01*
X119415061Y-116535021D01*
X119472878Y-116434878D01*
X119492958Y-116321000D01*
X119472878Y-116207122D01*
X119472877Y-116207120D01*
X119415061Y-116106978D01*
X119362275Y-116062687D01*
X119326479Y-116032650D01*
X119326477Y-116032649D01*
X119217819Y-115993100D01*
X119211339Y-115991958D01*
X119211862Y-115988986D01*
X119174827Y-115975507D01*
X119169991Y-115971074D01*
X118156526Y-114957608D01*
X118134786Y-114910988D01*
X118134500Y-114904434D01*
X118134500Y-114186000D01*
X118622042Y-114186000D01*
X118642122Y-114299879D01*
X118699938Y-114400021D01*
X118744230Y-114437185D01*
X118788521Y-114474350D01*
X118897182Y-114513900D01*
X118897184Y-114513900D01*
X119012816Y-114513900D01*
X119012818Y-114513900D01*
X119121479Y-114474350D01*
X119210061Y-114400021D01*
X119267878Y-114299878D01*
X119287958Y-114186000D01*
X119267878Y-114072122D01*
X119267877Y-114072120D01*
X119210061Y-113971978D01*
X119132076Y-113906542D01*
X119121479Y-113897650D01*
X119121477Y-113897649D01*
X119012819Y-113858100D01*
X119012818Y-113858100D01*
X118897182Y-113858100D01*
X118897180Y-113858100D01*
X118788522Y-113897649D01*
X118699938Y-113971978D01*
X118642122Y-114072120D01*
X118622042Y-114186000D01*
X118134500Y-114186000D01*
X118134500Y-113511657D01*
X118152093Y-113463319D01*
X118196642Y-113437599D01*
X118236422Y-113444613D01*
X118237338Y-113442100D01*
X118295637Y-113463319D01*
X118352182Y-113483900D01*
X118352184Y-113483900D01*
X118467816Y-113483900D01*
X118467818Y-113483900D01*
X118576479Y-113444350D01*
X118665061Y-113370021D01*
X118722878Y-113269878D01*
X118742958Y-113156000D01*
X118722878Y-113042122D01*
X118699750Y-113002062D01*
X118689975Y-112985131D01*
X118679900Y-112947531D01*
X118679900Y-111730000D01*
X119015042Y-111730000D01*
X119035122Y-111843879D01*
X119092938Y-111944021D01*
X119110839Y-111959041D01*
X119181521Y-112018350D01*
X119290182Y-112057900D01*
X119290184Y-112057900D01*
X119405816Y-112057900D01*
X119405818Y-112057900D01*
X119514479Y-112018350D01*
X119603061Y-111944021D01*
X119660878Y-111843878D01*
X119680958Y-111730000D01*
X119660878Y-111616122D01*
X119660877Y-111616120D01*
X119603061Y-111515978D01*
X119532378Y-111456669D01*
X119514479Y-111441650D01*
X119514477Y-111441649D01*
X119405819Y-111402100D01*
X119405818Y-111402100D01*
X119290182Y-111402100D01*
X119290180Y-111402100D01*
X119181522Y-111441649D01*
X119092938Y-111515978D01*
X119035122Y-111616120D01*
X119015042Y-111730000D01*
X118679900Y-111730000D01*
X118679900Y-109596199D01*
X118682462Y-109576736D01*
X118683185Y-109574038D01*
X118702260Y-109502850D01*
X118702260Y-109429150D01*
X118683185Y-109357963D01*
X118646336Y-109294138D01*
X118646334Y-109294136D01*
X118646332Y-109294133D01*
X117828198Y-108476000D01*
X118667042Y-108476000D01*
X118687122Y-108589879D01*
X118744938Y-108690021D01*
X118789230Y-108727185D01*
X118833521Y-108764350D01*
X118942182Y-108803900D01*
X118942184Y-108803900D01*
X119057816Y-108803900D01*
X119057818Y-108803900D01*
X119166479Y-108764350D01*
X119255061Y-108690021D01*
X119312878Y-108589878D01*
X119332958Y-108476000D01*
X119312878Y-108362122D01*
X119276874Y-108299760D01*
X119255061Y-108261978D01*
X119184901Y-108203108D01*
X119166479Y-108187650D01*
X119166477Y-108187649D01*
X119057819Y-108148100D01*
X119057818Y-108148100D01*
X118942182Y-108148100D01*
X118942180Y-108148100D01*
X118833522Y-108187649D01*
X118744938Y-108261978D01*
X118687122Y-108362120D01*
X118667042Y-108476000D01*
X117828198Y-108476000D01*
X117706262Y-108354064D01*
X117685379Y-108313948D01*
X117682878Y-108299762D01*
X117682877Y-108299760D01*
X117625061Y-108199618D01*
X117553023Y-108139172D01*
X117536479Y-108125290D01*
X117536477Y-108125289D01*
X117427819Y-108085740D01*
X117427818Y-108085740D01*
X117312182Y-108085740D01*
X117312180Y-108085740D01*
X117203522Y-108125289D01*
X117114938Y-108199618D01*
X117057122Y-108299760D01*
X117037042Y-108413640D01*
X117057122Y-108527519D01*
X117114937Y-108627659D01*
X117114938Y-108627660D01*
X117114939Y-108627661D01*
X117203521Y-108701990D01*
X117280606Y-108730046D01*
X117308059Y-108747537D01*
X118098074Y-109537552D01*
X118119814Y-109584172D01*
X118120100Y-109590726D01*
X118120100Y-111180964D01*
X118102507Y-111229302D01*
X118057958Y-111255022D01*
X118007300Y-111246089D01*
X117996563Y-111238571D01*
X117965991Y-111212919D01*
X117964479Y-111211650D01*
X117964477Y-111211649D01*
X117855819Y-111172100D01*
X117855818Y-111172100D01*
X117740182Y-111172100D01*
X117740180Y-111172100D01*
X117631522Y-111211649D01*
X117604686Y-111234167D01*
X117556348Y-111251760D01*
X117508011Y-111234166D01*
X117482291Y-111189618D01*
X117482291Y-111163504D01*
X117493658Y-111099040D01*
X117473578Y-110985162D01*
X117471174Y-110980998D01*
X117415761Y-110885018D01*
X117362975Y-110840727D01*
X117327179Y-110810690D01*
X117327177Y-110810689D01*
X117218519Y-110771140D01*
X117218518Y-110771140D01*
X117102882Y-110771140D01*
X117102880Y-110771140D01*
X116994222Y-110810689D01*
X116905638Y-110885018D01*
X116847822Y-110985160D01*
X116827742Y-111099040D01*
X116847822Y-111212919D01*
X116866973Y-111246089D01*
X116896125Y-111296583D01*
X116906200Y-111334181D01*
X116906200Y-111687186D01*
X116888607Y-111735524D01*
X116844058Y-111761244D01*
X116793400Y-111752311D01*
X116782663Y-111744793D01*
X116732827Y-111702977D01*
X116726479Y-111697650D01*
X116726477Y-111697649D01*
X116617819Y-111658100D01*
X116617818Y-111658100D01*
X116502182Y-111658100D01*
X116502180Y-111658100D01*
X116393522Y-111697649D01*
X116304938Y-111771978D01*
X116247122Y-111872120D01*
X116227042Y-111986000D01*
X115235166Y-111986000D01*
X115292321Y-111938041D01*
X115350138Y-111837898D01*
X115370218Y-111724020D01*
X115350138Y-111610142D01*
X115333615Y-111581523D01*
X115292321Y-111509998D01*
X115228766Y-111456670D01*
X115203739Y-111435670D01*
X115203737Y-111435669D01*
X115095079Y-111396120D01*
X115095078Y-111396120D01*
X114979442Y-111396120D01*
X114979440Y-111396120D01*
X114870782Y-111435669D01*
X114782198Y-111509998D01*
X114724382Y-111610140D01*
X114704302Y-111724020D01*
X114315660Y-111724020D01*
X114315660Y-110121280D01*
X116835362Y-110121280D01*
X116855442Y-110235159D01*
X116913258Y-110335301D01*
X116957550Y-110372465D01*
X117001841Y-110409630D01*
X117110502Y-110449180D01*
X117110504Y-110449180D01*
X117226136Y-110449180D01*
X117226138Y-110449180D01*
X117334799Y-110409630D01*
X117423381Y-110335301D01*
X117481198Y-110235158D01*
X117501278Y-110121280D01*
X117481198Y-110007402D01*
X117481197Y-110007400D01*
X117423381Y-109907258D01*
X117370595Y-109862967D01*
X117334799Y-109832930D01*
X117334797Y-109832929D01*
X117226139Y-109793380D01*
X117226138Y-109793380D01*
X117110502Y-109793380D01*
X117110500Y-109793380D01*
X117001842Y-109832929D01*
X116913258Y-109907258D01*
X116855442Y-110007400D01*
X116835362Y-110121280D01*
X114315660Y-110121280D01*
X114315660Y-108912240D01*
X115745702Y-108912240D01*
X115765782Y-109026119D01*
X115823598Y-109126261D01*
X115867890Y-109163425D01*
X115912181Y-109200590D01*
X116020842Y-109240140D01*
X116020844Y-109240140D01*
X116136476Y-109240140D01*
X116136478Y-109240140D01*
X116245139Y-109200590D01*
X116333721Y-109126261D01*
X116391538Y-109026118D01*
X116411618Y-108912240D01*
X116391538Y-108798362D01*
X116391537Y-108798360D01*
X116333721Y-108698218D01*
X116280935Y-108653927D01*
X116245139Y-108623890D01*
X116245137Y-108623889D01*
X116136479Y-108584340D01*
X116136478Y-108584340D01*
X116020842Y-108584340D01*
X116020840Y-108584340D01*
X115912182Y-108623889D01*
X115823598Y-108698218D01*
X115765782Y-108798360D01*
X115745702Y-108912240D01*
X114315660Y-108912240D01*
X114315660Y-108368751D01*
X114292258Y-108281413D01*
X114247048Y-108203108D01*
X114247047Y-108203107D01*
X114247046Y-108203105D01*
X114183114Y-108139173D01*
X114104807Y-108093962D01*
X114085928Y-108088903D01*
X114043792Y-108059399D01*
X114030478Y-108009712D01*
X114042867Y-107974485D01*
X114045750Y-107970167D01*
X114045755Y-107970163D01*
X114084500Y-107876623D01*
X114084500Y-107829200D01*
X114102093Y-107780862D01*
X114146642Y-107755142D01*
X114159700Y-107754000D01*
X120277121Y-107754000D01*
X120325459Y-107771593D01*
G37*
G04 #@! TD.AperFunction*
G04 #@! TA.AperFunction,Conductor*
G36*
X113187279Y-97221593D02*
G01*
X113212999Y-97266142D01*
X113204066Y-97316800D01*
X113164661Y-97349865D01*
X113146022Y-97356649D01*
X113057438Y-97430978D01*
X112999622Y-97531120D01*
X112979542Y-97645000D01*
X112999622Y-97758879D01*
X113057438Y-97859021D01*
X113101730Y-97896185D01*
X113146021Y-97933350D01*
X113254682Y-97972900D01*
X113254684Y-97972900D01*
X113370316Y-97972900D01*
X113370318Y-97972900D01*
X113478979Y-97933350D01*
X113567561Y-97859021D01*
X113625378Y-97758878D01*
X113645458Y-97645000D01*
X113625378Y-97531122D01*
X113625377Y-97531120D01*
X113567561Y-97430978D01*
X113514775Y-97386687D01*
X113478979Y-97356650D01*
X113478977Y-97356649D01*
X113460339Y-97349865D01*
X113420934Y-97316800D01*
X113412002Y-97266141D01*
X113437722Y-97221593D01*
X113486059Y-97204000D01*
X114478941Y-97204000D01*
X114527279Y-97221593D01*
X114552999Y-97266142D01*
X114544066Y-97316800D01*
X114504661Y-97349865D01*
X114486022Y-97356649D01*
X114397438Y-97430978D01*
X114339622Y-97531120D01*
X114319542Y-97645000D01*
X114339622Y-97758879D01*
X114397438Y-97859021D01*
X114441730Y-97896185D01*
X114486021Y-97933350D01*
X114594682Y-97972900D01*
X114594684Y-97972900D01*
X114710316Y-97972900D01*
X114710318Y-97972900D01*
X114818979Y-97933350D01*
X114907561Y-97859021D01*
X114965378Y-97758878D01*
X114985458Y-97645000D01*
X114965378Y-97531122D01*
X114965377Y-97531120D01*
X114907561Y-97430978D01*
X114854775Y-97386687D01*
X114818979Y-97356650D01*
X114818977Y-97356649D01*
X114800339Y-97349865D01*
X114760934Y-97316800D01*
X114752002Y-97266141D01*
X114777722Y-97221593D01*
X114826059Y-97204000D01*
X115764800Y-97204000D01*
X115813138Y-97221593D01*
X115838858Y-97266142D01*
X115840000Y-97279200D01*
X115840000Y-98895700D01*
X115822407Y-98944038D01*
X115777858Y-98969758D01*
X115764800Y-98970900D01*
X115374972Y-98970900D01*
X115326634Y-98953307D01*
X115300914Y-98908758D01*
X115309847Y-98858100D01*
X115335377Y-98813879D01*
X115335378Y-98813878D01*
X115355458Y-98700000D01*
X115335378Y-98586122D01*
X115313876Y-98548879D01*
X115277561Y-98485978D01*
X115216806Y-98435000D01*
X115188979Y-98411650D01*
X115188977Y-98411649D01*
X115080319Y-98372100D01*
X115080318Y-98372100D01*
X114964682Y-98372100D01*
X114964680Y-98372100D01*
X114856022Y-98411649D01*
X114767438Y-98485978D01*
X114709622Y-98586120D01*
X114689542Y-98700000D01*
X114709622Y-98813879D01*
X114767438Y-98914021D01*
X114861060Y-98992578D01*
X114859947Y-98993903D01*
X114887663Y-99026930D01*
X114887666Y-99078370D01*
X114870174Y-99105828D01*
X113300969Y-100675033D01*
X113273515Y-100692524D01*
X113166022Y-100731649D01*
X113077438Y-100805978D01*
X113019622Y-100906120D01*
X112999542Y-101020000D01*
X113019622Y-101133879D01*
X113077438Y-101234021D01*
X113121730Y-101271185D01*
X113166021Y-101308350D01*
X113274682Y-101347900D01*
X113274684Y-101347900D01*
X113390316Y-101347900D01*
X113390318Y-101347900D01*
X113498979Y-101308350D01*
X113587561Y-101234021D01*
X113645378Y-101133878D01*
X113665458Y-101020000D01*
X113665457Y-101019998D01*
X113665458Y-101019997D01*
X113663043Y-101006302D01*
X113671975Y-100955643D01*
X113683922Y-100940073D01*
X114566504Y-100057490D01*
X114613122Y-100035752D01*
X114662809Y-100049066D01*
X114692314Y-100091203D01*
X114693734Y-100123723D01*
X114689542Y-100147498D01*
X114709622Y-100261379D01*
X114767438Y-100361521D01*
X114811730Y-100398685D01*
X114856021Y-100435850D01*
X114964682Y-100475400D01*
X114964684Y-100475400D01*
X115000709Y-100475400D01*
X115049047Y-100492993D01*
X115074767Y-100537542D01*
X115074767Y-100563658D01*
X115059542Y-100649999D01*
X115079622Y-100763879D01*
X115137438Y-100864021D01*
X115231060Y-100942578D01*
X115230305Y-100943477D01*
X115259050Y-100977734D01*
X115259050Y-101029174D01*
X115236723Y-101061061D01*
X115147437Y-101135980D01*
X115089622Y-101236120D01*
X115069542Y-101350000D01*
X115089622Y-101463879D01*
X115147438Y-101564021D01*
X115191730Y-101601185D01*
X115236021Y-101638350D01*
X115344682Y-101677900D01*
X115344684Y-101677900D01*
X115460316Y-101677900D01*
X115460318Y-101677900D01*
X115568979Y-101638350D01*
X115657561Y-101564021D01*
X115657563Y-101564019D01*
X115699675Y-101491078D01*
X115739079Y-101458012D01*
X115790519Y-101458012D01*
X115829925Y-101491076D01*
X115840000Y-101528677D01*
X115840000Y-103196800D01*
X115822407Y-103245138D01*
X115777858Y-103270858D01*
X115764800Y-103272000D01*
X114159700Y-103272000D01*
X114111362Y-103254407D01*
X114085642Y-103209858D01*
X114084500Y-103196800D01*
X114084500Y-102910625D01*
X114102093Y-102862287D01*
X114146642Y-102836567D01*
X114185417Y-102839959D01*
X114262182Y-102867900D01*
X114262184Y-102867900D01*
X114377816Y-102867900D01*
X114377818Y-102867900D01*
X114486479Y-102828350D01*
X114575061Y-102754021D01*
X114632878Y-102653878D01*
X114652958Y-102540000D01*
X114641321Y-102474005D01*
X114650252Y-102423348D01*
X114689657Y-102390282D01*
X114741097Y-102390282D01*
X114763715Y-102403340D01*
X114793521Y-102428350D01*
X114902182Y-102467900D01*
X114902184Y-102467900D01*
X115017816Y-102467900D01*
X115017818Y-102467900D01*
X115126479Y-102428350D01*
X115215061Y-102354021D01*
X115272878Y-102253878D01*
X115292958Y-102140000D01*
X115272878Y-102026122D01*
X115272194Y-102024937D01*
X115215061Y-101925978D01*
X115162275Y-101881687D01*
X115126479Y-101851650D01*
X115126477Y-101851649D01*
X115017819Y-101812100D01*
X115017818Y-101812100D01*
X114902182Y-101812100D01*
X114902180Y-101812100D01*
X114793522Y-101851649D01*
X114704938Y-101925978D01*
X114647122Y-102026120D01*
X114627042Y-102140000D01*
X114638679Y-102205994D01*
X114629746Y-102256652D01*
X114590341Y-102289717D01*
X114538901Y-102289717D01*
X114516284Y-102276659D01*
X114489134Y-102253878D01*
X114486479Y-102251650D01*
X114486477Y-102251649D01*
X114377819Y-102212100D01*
X114377818Y-102212100D01*
X114262182Y-102212100D01*
X114262180Y-102212100D01*
X114262178Y-102212101D01*
X114261192Y-102212460D01*
X114260142Y-102212459D01*
X114255702Y-102213243D01*
X114255563Y-102212459D01*
X114209752Y-102212458D01*
X114170348Y-102179392D01*
X114161418Y-102128735D01*
X114161826Y-102126414D01*
X114162958Y-102120000D01*
X114142878Y-102006122D01*
X114096608Y-101925979D01*
X114085061Y-101905978D01*
X114020313Y-101851649D01*
X113996479Y-101831650D01*
X113996477Y-101831649D01*
X113887819Y-101792100D01*
X113887818Y-101792100D01*
X113772182Y-101792100D01*
X113772180Y-101792100D01*
X113663522Y-101831649D01*
X113574938Y-101905978D01*
X113519783Y-102001511D01*
X113480378Y-102034576D01*
X113428938Y-102034576D01*
X113412190Y-102024905D01*
X113412172Y-102024937D01*
X113406478Y-102021649D01*
X113297819Y-101982100D01*
X113297818Y-101982100D01*
X113182182Y-101982100D01*
X113182180Y-101982100D01*
X113073522Y-102021649D01*
X112984938Y-102095978D01*
X112927122Y-102196120D01*
X112907042Y-102310000D01*
X112927122Y-102423879D01*
X112984938Y-102524021D01*
X113028036Y-102560184D01*
X113073521Y-102598350D01*
X113182182Y-102637900D01*
X113182184Y-102637900D01*
X113297816Y-102637900D01*
X113297818Y-102637900D01*
X113406479Y-102598350D01*
X113451962Y-102560184D01*
X113500300Y-102542591D01*
X113548638Y-102560184D01*
X113574358Y-102604733D01*
X113575500Y-102617791D01*
X113575500Y-103196800D01*
X113557907Y-103245138D01*
X113513358Y-103270858D01*
X113500300Y-103272000D01*
X111137200Y-103272000D01*
X111088862Y-103254407D01*
X111063142Y-103209858D01*
X111062000Y-103196800D01*
X111062000Y-101335000D01*
X111679542Y-101335000D01*
X111699622Y-101448879D01*
X111757438Y-101549021D01*
X111775315Y-101564021D01*
X111846021Y-101623350D01*
X111954682Y-101662900D01*
X111954684Y-101662900D01*
X112070316Y-101662900D01*
X112070318Y-101662900D01*
X112178979Y-101623350D01*
X112267561Y-101549021D01*
X112325378Y-101448878D01*
X112345458Y-101335000D01*
X112325378Y-101221122D01*
X112324534Y-101219660D01*
X112267561Y-101120978D01*
X112227502Y-101087365D01*
X112201782Y-101042817D01*
X112210714Y-100992158D01*
X112250117Y-100959093D01*
X112250120Y-100959093D01*
X112313977Y-100935851D01*
X112313977Y-100935850D01*
X112313979Y-100935850D01*
X112402561Y-100861521D01*
X112460378Y-100761378D01*
X112480458Y-100647500D01*
X112460378Y-100533622D01*
X112426764Y-100475400D01*
X112402561Y-100433478D01*
X112316958Y-100361650D01*
X112313979Y-100359150D01*
X112313977Y-100359149D01*
X112205319Y-100319600D01*
X112205318Y-100319600D01*
X112089682Y-100319600D01*
X112089680Y-100319600D01*
X111981022Y-100359149D01*
X111892438Y-100433478D01*
X111834622Y-100533620D01*
X111814542Y-100647500D01*
X111834622Y-100761379D01*
X111892438Y-100861521D01*
X111932497Y-100895134D01*
X111958217Y-100939682D01*
X111949285Y-100990341D01*
X111909881Y-101023406D01*
X111846021Y-101046649D01*
X111757438Y-101120978D01*
X111699622Y-101221120D01*
X111679542Y-101335000D01*
X111062000Y-101335000D01*
X111062000Y-99519715D01*
X111079593Y-99471377D01*
X111124142Y-99445657D01*
X111162917Y-99449049D01*
X111242182Y-99477900D01*
X111242184Y-99477900D01*
X111357816Y-99477900D01*
X111357818Y-99477900D01*
X111466479Y-99438350D01*
X111555061Y-99364021D01*
X111612878Y-99263878D01*
X111632958Y-99150000D01*
X111612878Y-99036122D01*
X111582798Y-98984021D01*
X111555061Y-98935978D01*
X111502275Y-98891687D01*
X111466479Y-98861650D01*
X111466477Y-98861649D01*
X111357819Y-98822100D01*
X111357818Y-98822100D01*
X111242182Y-98822100D01*
X111242180Y-98822100D01*
X111162920Y-98850949D01*
X111111480Y-98850949D01*
X111072075Y-98817884D01*
X111062000Y-98780284D01*
X111062000Y-98770000D01*
X113007042Y-98770000D01*
X113027122Y-98883879D01*
X113084938Y-98984021D01*
X113110869Y-99005779D01*
X113173521Y-99058350D01*
X113282182Y-99097900D01*
X113282184Y-99097900D01*
X113397816Y-99097900D01*
X113397818Y-99097900D01*
X113506479Y-99058350D01*
X113595061Y-98984021D01*
X113652878Y-98883878D01*
X113672958Y-98770000D01*
X113652878Y-98656122D01*
X113612463Y-98586120D01*
X113595061Y-98555978D01*
X113542275Y-98511687D01*
X113506479Y-98481650D01*
X113506477Y-98481649D01*
X113397819Y-98442100D01*
X113397818Y-98442100D01*
X113282182Y-98442100D01*
X113282180Y-98442100D01*
X113173522Y-98481649D01*
X113084938Y-98555978D01*
X113027122Y-98656120D01*
X113007042Y-98770000D01*
X111062000Y-98770000D01*
X111062000Y-98435000D01*
X111619542Y-98435000D01*
X111639622Y-98548879D01*
X111697438Y-98649021D01*
X111741730Y-98686185D01*
X111786021Y-98723350D01*
X111894682Y-98762900D01*
X111894684Y-98762900D01*
X112010316Y-98762900D01*
X112010318Y-98762900D01*
X112118979Y-98723350D01*
X112207561Y-98649021D01*
X112265378Y-98548878D01*
X112285458Y-98435000D01*
X112265378Y-98321122D01*
X112265377Y-98321120D01*
X112207561Y-98220978D01*
X112154775Y-98176687D01*
X112118979Y-98146650D01*
X112118977Y-98146649D01*
X112010319Y-98107100D01*
X112010318Y-98107100D01*
X111894682Y-98107100D01*
X111894680Y-98107100D01*
X111786022Y-98146649D01*
X111697438Y-98220978D01*
X111639622Y-98321120D01*
X111619542Y-98435000D01*
X111062000Y-98435000D01*
X111062000Y-97279200D01*
X111079593Y-97230862D01*
X111124142Y-97205142D01*
X111137200Y-97204000D01*
X113138941Y-97204000D01*
X113187279Y-97221593D01*
G37*
G04 #@! TD.AperFunction*
G04 #@! TA.AperFunction,Conductor*
G36*
X115829925Y-100773755D02*
G01*
X115840000Y-100811356D01*
X115840000Y-101171322D01*
X115822407Y-101219660D01*
X115777858Y-101245380D01*
X115727200Y-101236447D01*
X115699675Y-101208922D01*
X115657561Y-101135978D01*
X115563940Y-101057422D01*
X115564693Y-101056523D01*
X115535948Y-101022261D01*
X115535951Y-100970821D01*
X115558277Y-100938938D01*
X115558976Y-100938350D01*
X115558979Y-100938350D01*
X115647561Y-100864021D01*
X115647563Y-100864019D01*
X115699675Y-100773757D01*
X115739079Y-100740691D01*
X115790519Y-100740691D01*
X115829925Y-100773755D01*
G37*
G04 #@! TD.AperFunction*
G04 #@! TA.AperFunction,Conductor*
G36*
X115813138Y-99688906D02*
G01*
X115838858Y-99733455D01*
X115840000Y-99746513D01*
X115840000Y-100488643D01*
X115822407Y-100536981D01*
X115777858Y-100562701D01*
X115727200Y-100553768D01*
X115699675Y-100526243D01*
X115647561Y-100435978D01*
X115594775Y-100391687D01*
X115558979Y-100361650D01*
X115558977Y-100361649D01*
X115450319Y-100322100D01*
X115450318Y-100322100D01*
X115414291Y-100322100D01*
X115365953Y-100304507D01*
X115340233Y-100259958D01*
X115340233Y-100233842D01*
X115355458Y-100147500D01*
X115341115Y-100066157D01*
X115350048Y-100015500D01*
X115389453Y-99982435D01*
X115415173Y-99977900D01*
X115430316Y-99977900D01*
X115430318Y-99977900D01*
X115538979Y-99938350D01*
X115627561Y-99864021D01*
X115685378Y-99763878D01*
X115690742Y-99733453D01*
X115716462Y-99688906D01*
X115764800Y-99671313D01*
X115813138Y-99688906D01*
G37*
G04 #@! TD.AperFunction*
M02*
