G04 #@! TF.GenerationSoftware,KiCad,Pcbnew,8.0.0*
G04 #@! TF.CreationDate,2025-02-24T10:50:18+08:00*
G04 #@! TF.ProjectId,CM2_MesoScope,434d325f-4d65-4736-9f53-636f70652e6b,rev?*
G04 #@! TF.SameCoordinates,Original*
G04 #@! TF.FileFunction,Other,ECO1*
%FSLAX46Y46*%
G04 Gerber Fmt 4.6, Leading zero omitted, Abs format (unit mm)*
G04 Created by KiCad (PCBNEW 8.0.0) date 2025-02-24 10:50:18*
%MOMM*%
%LPD*%
G01*
G04 APERTURE LIST*
%ADD10C,0.050000*%
G04 APERTURE END LIST*
D10*
X97446000Y-110602893D02*
X97446000Y-107504000D01*
X96446000Y-114602893D02*
G75*
G02*
X96446000Y-111602893I0J1500000D01*
G01*
X96446000Y-114602893D02*
G75*
G02*
X97446000Y-115602893I1J-999999D01*
G01*
X97446000Y-110602893D02*
G75*
G02*
X96446000Y-111602893I-1000000J0D01*
G01*
X97446000Y-118680000D02*
X97446000Y-115602893D01*
X121128000Y-107500000D02*
X121128000Y-118676000D01*
X97446000Y-107504000D02*
X109130000Y-107504000D01*
X97446000Y-118680000D02*
X100446000Y-118680000D01*
X105446000Y-118680000D02*
X109130000Y-118682260D01*
X100446000Y-118680000D02*
G75*
G02*
X101446000Y-119680000I0J-1000000D01*
G01*
X104446000Y-119680000D02*
G75*
G02*
X105446000Y-118680000I1000000J0D01*
G01*
X104446000Y-119680000D02*
G75*
G02*
X101446000Y-119680000I-1500000J0D01*
G01*
X119228000Y-119680000D02*
G75*
G02*
X120228000Y-118680000I1000000J0D01*
G01*
X121128000Y-107500000D02*
G75*
G02*
X120128000Y-106500000I0J1000000D01*
G01*
X119228000Y-119680000D02*
G75*
G02*
X116228000Y-119680000I-1500000J0D01*
G01*
X120228000Y-118680000D02*
X121128000Y-118676000D01*
X110799920Y-118676000D02*
X110799920Y-107500000D01*
X115228000Y-118680000D02*
G75*
G02*
X116228000Y-119680000I0J-1000000D01*
G01*
X117128000Y-106500000D02*
G75*
G02*
X116128000Y-107500000I-1000000J0D01*
G01*
X110799920Y-107500000D02*
X115228000Y-107500000D01*
X115228000Y-107500000D02*
X116128000Y-107500000D01*
X110792000Y-118680000D02*
X115228000Y-118680000D01*
X116160000Y-97060000D02*
X116160000Y-103590000D01*
X110800000Y-97060000D02*
X116160000Y-97060000D01*
X110800000Y-103598865D02*
X116160000Y-103590000D01*
X109130000Y-107504000D02*
X109130000Y-118680000D01*
X117128000Y-106500000D02*
G75*
G02*
X120128000Y-106500000I1500000J0D01*
G01*
X110800000Y-97060000D02*
X110800000Y-103598865D01*
M02*
