M48
; DRILL file {KiCad 8.0.0} date 2025-02-24T10:50:30+0800
; FORMAT={-:-/ absolute / metric / decimal}
; #@! TF.CreationDate,2025-02-24T10:50:30+08:00
; #@! TF.GenerationSoftware,Kicad,Pcbnew,8.0.0
; #@! TF.FileFunction,Plated,1,4,PTH
FMAT,2
METRIC
; #@! TA.AperFunction,Plated,PTH,ViaDrill
T1C0.150
%
G90
G05
T1
X97.955Y-108.088
X98.274Y-117.851
X98.402Y-109.238
X98.402Y-116.938
X98.497Y-111.323
X99.11Y-114.58
X99.137Y-108.503
X99.14Y-109.42
X99.43Y-110.44
X99.47Y-110.954
X99.59Y-112.46
X99.64Y-114.62
X99.74Y-111.96
X99.837Y-108.503
X99.849Y-116.2
X100.5Y-115.108
X100.537Y-108.503
X100.555Y-109.369
X100.57Y-112.8
X100.76Y-114.67
X101.055Y-114.039
X101.055Y-109.369
X101.22Y-108.504
X101.44Y-111.72
X101.55Y-113.85
X101.555Y-109.369
X101.56Y-115.87
X101.916Y-117.664
X101.932Y-108.576
X102.043Y-116.546
X102.055Y-109.369
X102.06Y-113.91
X102.555Y-109.369
X102.628Y-117.613
X102.643Y-108.58
X102.8Y-115.57
X102.99Y-111.69
X103.08Y-110.41
X103.329Y-108.58
X103.339Y-117.613
X103.477Y-115.159
X104.04Y-108.504
X104.05Y-117.613
X104.144Y-110.445
X104.726Y-108.504
X104.737Y-117.673
X105.078Y-113.355
X105.18Y-115.92
X105.513Y-115.337
X106.108Y-116.953
X106.148Y-117.673
X106.657Y-112.058
X106.794Y-116.953
X106.844Y-115.417
X106.87Y-113.645
X106.92Y-108.672
X107.447Y-108.651
X107.585Y-112.039
X107.585Y-112.75
X107.776Y-117.877
X107.912Y-108.342
X108.43Y-110.99
X108.574Y-116.064
X108.586Y-114.542
X111.3Y-99.15
X111.458Y-113.116
X111.476Y-113.693
X111.495Y-111.745
X111.498Y-112.31
X111.936Y-115.694
X111.941Y-115.148
X111.946Y-114.604
X111.953Y-98.435
X112.012Y-101.335
X112.055Y-111.195
X112.147Y-100.647
X112.177Y-117.101
X112.675Y-113.814
X112.705Y-115.676
X112.705Y-116.309
X113.108Y-109.304
X113.24Y-102.31
X113.255Y-115.042
X113.312Y-97.645
X113.332Y-101.02
X113.34Y-98.77
X113.83Y-102.12
X113.952Y-114.451
X113.972Y-108.414
X114.05Y-116.304
X114.32Y-102.54
X114.652Y-97.645
X114.832Y-115.408
X114.84Y-114.576
X114.96Y-102.14
X115.022Y-98.7
X115.022Y-100.147
X115.037Y-111.724
X115.372Y-99.65
X115.392Y-100.65
X115.402Y-101.35
X115.695Y-114.951
X115.712Y-116.216
X116.079Y-108.912
X116.56Y-111.986
X116.69Y-113.236
X117.015Y-99.955
X117.161Y-111.099
X117.168Y-110.121
X117.37Y-108.414
X117.44Y-113.236
X117.798Y-111.5
X118.41Y-113.156
X118.955Y-114.186
X118.955Y-114.826
X119.0Y-108.476
X119.16Y-116.321
X119.348Y-111.73
X119.475Y-109.936
X120.51Y-108.16
M30
