G04 #@! TF.GenerationSoftware,KiCad,Pcbnew,8.0.0*
G04 #@! TF.CreationDate,2025-02-24T10:50:18+08:00*
G04 #@! TF.ProjectId,CM2_MesoScope,434d325f-4d65-4736-9f53-636f70652e6b,rev?*
G04 #@! TF.SameCoordinates,Original*
G04 #@! TF.FileFunction,Copper,L2,Inr*
G04 #@! TF.FilePolarity,Positive*
%FSLAX46Y46*%
G04 Gerber Fmt 4.6, Leading zero omitted, Abs format (unit mm)*
G04 Created by KiCad (PCBNEW 8.0.0) date 2025-02-24 10:50:18*
%MOMM*%
%LPD*%
G01*
G04 APERTURE LIST*
G04 #@! TA.AperFunction,ViaPad*
%ADD10C,0.350000*%
G04 #@! TD*
G04 #@! TA.AperFunction,Conductor*
%ADD11C,0.304800*%
G04 #@! TD*
G04 #@! TA.AperFunction,Conductor*
%ADD12C,0.203200*%
G04 #@! TD*
G04 #@! TA.AperFunction,Conductor*
%ADD13C,0.152400*%
G04 #@! TD*
G04 APERTURE END LIST*
D10*
X114840000Y-114576000D03*
X106844028Y-115416608D03*
X102800000Y-115570000D03*
X107776040Y-117876620D03*
X100570000Y-112800000D03*
X115022500Y-98700000D03*
X115037260Y-111724020D03*
X106920240Y-108672420D03*
X106148040Y-117673420D03*
X119000000Y-108476000D03*
X106656640Y-112057820D03*
X112055300Y-111195020D03*
X118955000Y-114186000D03*
X104039840Y-108504020D03*
X113240000Y-102310000D03*
X103476640Y-115158820D03*
X116078660Y-108912240D03*
X104725640Y-108504020D03*
X103080000Y-110410000D03*
X101440000Y-111720000D03*
X116560000Y-111986000D03*
X112176860Y-117101140D03*
X114831660Y-115408000D03*
X113108040Y-109303960D03*
X104736640Y-117672820D03*
X115695360Y-114950800D03*
X111946080Y-114603700D03*
X106870000Y-113645000D03*
X111300000Y-99150000D03*
X98274040Y-117851220D03*
X113255000Y-115041973D03*
X97954840Y-108088220D03*
X102990000Y-111690000D03*
X101220440Y-108504020D03*
X101916400Y-117664000D03*
X99110000Y-114580000D03*
X105078450Y-113355420D03*
X113972260Y-108413960D03*
X112012500Y-101335000D03*
X118410000Y-113156000D03*
X117370000Y-108413640D03*
X113951660Y-114450800D03*
X106794040Y-116952820D03*
X98401640Y-116937820D03*
X115711660Y-116216000D03*
X111941000Y-115147940D03*
X112705000Y-116308640D03*
X119475000Y-109936000D03*
X118955000Y-114826000D03*
X112675060Y-113814440D03*
X112705000Y-115676000D03*
X101931640Y-108575820D03*
X99640000Y-114620000D03*
X107585000Y-112750000D03*
X105180000Y-115920000D03*
X111498360Y-112310080D03*
X107911640Y-108342224D03*
X108430000Y-110990000D03*
X117168320Y-110121280D03*
X101054634Y-114039414D03*
X100760000Y-114670000D03*
X100500000Y-115108020D03*
X102043400Y-116546400D03*
X102060000Y-113910000D03*
X116690000Y-113236000D03*
X111475938Y-113692520D03*
X108573740Y-116063800D03*
X111458400Y-113115940D03*
X108586440Y-114542340D03*
X117798000Y-111500000D03*
X101550000Y-113850000D03*
X117440000Y-113236000D03*
X101560000Y-115870000D03*
X102554640Y-109369422D03*
X102054640Y-109369426D03*
X101554640Y-109369422D03*
X101054640Y-109369422D03*
X100554640Y-109369406D03*
X99140000Y-109420000D03*
X99430000Y-110440000D03*
X98401640Y-109237820D03*
X99469642Y-110954420D03*
X99136640Y-108502820D03*
X99836640Y-108502820D03*
X99740000Y-111960000D03*
X99590000Y-112460000D03*
X100536640Y-108502820D03*
X98496640Y-111323420D03*
X111494640Y-111745020D03*
X103338840Y-117613220D03*
X102642840Y-108580220D03*
X105513040Y-115336620D03*
X107585000Y-112038800D03*
X103328640Y-108580220D03*
X106108240Y-116952820D03*
X99848840Y-116200220D03*
X104050040Y-117613220D03*
X102627640Y-117613220D03*
X107447038Y-108650991D03*
X113332500Y-101020000D03*
X117015000Y-99955000D03*
X111952500Y-98435000D03*
X112147500Y-100647500D03*
X117160700Y-111099040D03*
X119160000Y-116321000D03*
X113312500Y-97645000D03*
X111935920Y-115694040D03*
X114050000Y-116303640D03*
X114652500Y-97645000D03*
X104143980Y-110445320D03*
X113830000Y-102120000D03*
X113340000Y-98770000D03*
X114320000Y-102540000D03*
X119348000Y-111730000D03*
X114960000Y-102140000D03*
X120510000Y-108160000D03*
X115372500Y-99650000D03*
X115022500Y-100147500D03*
X115392500Y-100650000D03*
X115402500Y-101350000D03*
D11*
X111200000Y-116796000D02*
X108604000Y-116796000D01*
X111194800Y-109116000D02*
X108614000Y-109116000D01*
X108604000Y-116796000D02*
X108600000Y-116800000D01*
X111930000Y-103040400D02*
X111930000Y-108019600D01*
X112012500Y-101335000D02*
X112720000Y-102042500D01*
X112720000Y-102042500D02*
X112720000Y-107161700D01*
X112720000Y-107161700D02*
X113972260Y-108413960D01*
X108020920Y-112314080D02*
X108023560Y-112311440D01*
X108023560Y-112311440D02*
X108024920Y-112310080D01*
X108024920Y-112310080D02*
X111498360Y-112310080D01*
X107585000Y-112750000D02*
X108020920Y-112314080D01*
X108430000Y-110990000D02*
X108730000Y-110690000D01*
X108734000Y-110686000D02*
X116603600Y-110686000D01*
X116603600Y-110686000D02*
X117168320Y-110121280D01*
X108730000Y-110690000D02*
X108732640Y-110687360D01*
X108732640Y-110687360D02*
X108734000Y-110686000D01*
X108730000Y-110690000D02*
X108734000Y-110686000D01*
D12*
X108573740Y-116063800D02*
X110217120Y-114420420D01*
X110945020Y-113692520D02*
X110143770Y-114493770D01*
X111475938Y-113692520D02*
X110945020Y-113692520D01*
D13*
X117650000Y-113026000D02*
X117440000Y-113236000D01*
D12*
X110011480Y-113117300D02*
X110008840Y-113119940D01*
X110012840Y-113115940D02*
X110008840Y-113119940D01*
D13*
X117798000Y-111500000D02*
X117650000Y-111648000D01*
D12*
X111458400Y-113115940D02*
X110012840Y-113115940D01*
X110008840Y-113119940D02*
X108586440Y-114542340D01*
D13*
X117650000Y-111648000D02*
X117650000Y-113026000D01*
X99410180Y-110459820D02*
X99430000Y-110440000D01*
X99315440Y-110459820D02*
X99410180Y-110459820D01*
X98401640Y-109411640D02*
X98401640Y-109237820D01*
X99430000Y-110440000D02*
X98401640Y-109411640D01*
X99485580Y-110954420D02*
X99469642Y-110954420D01*
X99870000Y-110240000D02*
X99870000Y-110570000D01*
X99550000Y-108916180D02*
X99550000Y-109920000D01*
X99136640Y-108502820D02*
X99550000Y-108916180D01*
X99870000Y-110570000D02*
X99485580Y-110954420D01*
X99550000Y-109920000D02*
X99870000Y-110240000D01*
X99696440Y-111958420D02*
X99698020Y-111960000D01*
X99836640Y-109744230D02*
X99836640Y-108502820D01*
X99740000Y-111960000D02*
X100220000Y-111480000D01*
X100220000Y-110127590D02*
X99836640Y-109744230D01*
X99836640Y-108502820D02*
X99899640Y-108565820D01*
X99698020Y-111960000D02*
X99740000Y-111960000D01*
X100220000Y-111480000D02*
X100220000Y-110127590D01*
X100153440Y-108886020D02*
X100536640Y-108502820D01*
X100620000Y-110062580D02*
X100153440Y-109596020D01*
X99590000Y-112460000D02*
X100060000Y-112460000D01*
X100153440Y-109596020D02*
X100153440Y-108886020D01*
X100620000Y-111900000D02*
X100620000Y-110062580D01*
X100060000Y-112460000D02*
X100620000Y-111900000D01*
D11*
X107585000Y-112038800D02*
X107878780Y-111745020D01*
X107878780Y-111745020D02*
X111494640Y-111745020D01*
D13*
X117030000Y-99970000D02*
X117896000Y-99970000D01*
X113830000Y-102120000D02*
X113840000Y-102110000D01*
X113830000Y-99260000D02*
X113340000Y-98770000D01*
X113830000Y-102120000D02*
X113830000Y-99260000D01*
D12*
X114320000Y-107756884D02*
X114680000Y-108116884D01*
X119348000Y-111730000D02*
X119348000Y-110758000D01*
X115901956Y-109338840D02*
X114680000Y-108116884D01*
X116090000Y-109338840D02*
X115901956Y-109338840D01*
X117928840Y-109338840D02*
X116090000Y-109338840D01*
X119348000Y-110758000D02*
X118000000Y-109410000D01*
X118000000Y-109410000D02*
X117928840Y-109338840D01*
X114320000Y-102540000D02*
X114320000Y-107756884D01*
X114960000Y-107420000D02*
X115490000Y-107950000D01*
D13*
X120300000Y-107950000D02*
X115490000Y-107950000D01*
D12*
X114960000Y-102140000D02*
X114960000Y-107420000D01*
D13*
X120510000Y-108160000D02*
X120300000Y-107950000D01*
X116538000Y-98962000D02*
X117896000Y-98962000D01*
X115850000Y-99650000D02*
X116538000Y-98962000D01*
X115372500Y-99650000D02*
X115850000Y-99650000D01*
X115022500Y-100147500D02*
X116022500Y-100147500D01*
X116700000Y-99470000D02*
X117896000Y-99470000D01*
X116022500Y-100147500D02*
X116700000Y-99470000D01*
X116630000Y-100650000D02*
X116810000Y-100470000D01*
X115392500Y-100650000D02*
X116630000Y-100650000D01*
X117896000Y-100470000D02*
X116810000Y-100470000D01*
X116460000Y-101350000D02*
X116840000Y-100970000D01*
X115402500Y-101350000D02*
X116460000Y-101350000D01*
X116840000Y-100970000D02*
X117896000Y-100970000D01*
G04 #@! TA.AperFunction,Conductor*
G36*
X108849138Y-107775593D02*
G01*
X108874858Y-107820142D01*
X108876000Y-107833200D01*
X108876000Y-110305500D01*
X108858407Y-110353838D01*
X108813858Y-110379558D01*
X108800800Y-110380700D01*
X108693807Y-110380700D01*
X108659647Y-110389853D01*
X108642566Y-110394430D01*
X108642565Y-110394429D01*
X108616163Y-110401504D01*
X108616156Y-110401506D01*
X108594088Y-110414248D01*
X108546541Y-110441698D01*
X108502672Y-110485569D01*
X108502671Y-110485570D01*
X108311580Y-110676659D01*
X108284130Y-110694148D01*
X108263520Y-110701650D01*
X108174938Y-110775978D01*
X108117122Y-110876120D01*
X108097042Y-110990000D01*
X108117122Y-111103879D01*
X108174938Y-111204021D01*
X108212595Y-111235618D01*
X108263521Y-111278350D01*
X108285272Y-111286267D01*
X108306119Y-111293855D01*
X108345524Y-111326920D01*
X108354457Y-111377579D01*
X108328736Y-111422127D01*
X108280399Y-111439720D01*
X107838587Y-111439720D01*
X107767303Y-111458820D01*
X107760935Y-111460527D01*
X107691325Y-111500715D01*
X107691320Y-111500719D01*
X107466578Y-111725460D01*
X107439127Y-111742949D01*
X107418521Y-111750449D01*
X107329938Y-111824778D01*
X107272122Y-111924920D01*
X107252042Y-112038800D01*
X107272122Y-112152679D01*
X107329938Y-112252821D01*
X107418521Y-112327150D01*
X107422206Y-112329278D01*
X107455267Y-112368687D01*
X107455262Y-112420127D01*
X107422206Y-112459522D01*
X107418521Y-112461649D01*
X107329938Y-112535978D01*
X107272122Y-112636120D01*
X107252042Y-112750000D01*
X107272122Y-112863879D01*
X107329938Y-112964021D01*
X107343949Y-112975777D01*
X107418521Y-113038350D01*
X107527182Y-113077900D01*
X107527184Y-113077900D01*
X107642816Y-113077900D01*
X107642818Y-113077900D01*
X107751479Y-113038350D01*
X107840061Y-112964021D01*
X107886095Y-112884284D01*
X107898040Y-112868717D01*
X108129354Y-112637405D01*
X108175974Y-112615666D01*
X108182528Y-112615380D01*
X108800800Y-112615380D01*
X108849138Y-112632973D01*
X108874858Y-112677522D01*
X108876000Y-112690580D01*
X108876000Y-113861714D01*
X108858407Y-113910052D01*
X108853974Y-113914888D01*
X108576448Y-114192414D01*
X108534839Y-114211816D01*
X108535101Y-114213298D01*
X108528620Y-114214440D01*
X108419962Y-114253989D01*
X108331378Y-114328318D01*
X108273562Y-114428460D01*
X108253482Y-114542340D01*
X108273562Y-114656219D01*
X108331378Y-114756361D01*
X108375670Y-114793525D01*
X108419961Y-114830690D01*
X108528622Y-114870240D01*
X108528624Y-114870240D01*
X108644256Y-114870240D01*
X108644258Y-114870240D01*
X108752919Y-114830690D01*
X108752921Y-114830688D01*
X108758612Y-114827403D01*
X108759295Y-114828586D01*
X108800796Y-114813479D01*
X108849135Y-114831070D01*
X108874857Y-114875617D01*
X108876000Y-114888679D01*
X108876000Y-115370474D01*
X108858407Y-115418812D01*
X108853974Y-115423648D01*
X108563748Y-115713874D01*
X108522139Y-115733276D01*
X108522401Y-115734758D01*
X108515920Y-115735900D01*
X108407262Y-115775449D01*
X108318678Y-115849778D01*
X108260862Y-115949920D01*
X108240782Y-116063800D01*
X108260862Y-116177679D01*
X108318678Y-116277821D01*
X108362970Y-116314985D01*
X108407261Y-116352150D01*
X108515922Y-116391700D01*
X108515924Y-116391700D01*
X108631556Y-116391700D01*
X108631558Y-116391700D01*
X108740219Y-116352150D01*
X108752463Y-116341875D01*
X108800800Y-116324283D01*
X108849138Y-116341877D01*
X108874858Y-116386425D01*
X108876000Y-116399483D01*
X108876000Y-118350800D01*
X108858407Y-118399138D01*
X108813858Y-118424858D01*
X108800800Y-118426000D01*
X97775290Y-118426000D01*
X97726952Y-118408407D01*
X97701232Y-118363858D01*
X97700090Y-118350710D01*
X97700968Y-117613220D01*
X102294682Y-117613220D01*
X102314762Y-117727099D01*
X102372578Y-117827241D01*
X102416870Y-117864405D01*
X102461161Y-117901570D01*
X102569822Y-117941120D01*
X102569824Y-117941120D01*
X102685456Y-117941120D01*
X102685458Y-117941120D01*
X102794119Y-117901570D01*
X102882701Y-117827241D01*
X102882703Y-117827239D01*
X102918115Y-117765903D01*
X102957519Y-117732837D01*
X103008959Y-117732837D01*
X103048365Y-117765901D01*
X103048365Y-117765903D01*
X103083776Y-117827239D01*
X103083778Y-117827241D01*
X103128070Y-117864405D01*
X103172361Y-117901570D01*
X103281022Y-117941120D01*
X103281024Y-117941120D01*
X103396656Y-117941120D01*
X103396658Y-117941120D01*
X103505319Y-117901570D01*
X103593901Y-117827241D01*
X103593903Y-117827239D01*
X103629315Y-117765903D01*
X103668719Y-117732837D01*
X103720159Y-117732837D01*
X103759565Y-117765901D01*
X103759565Y-117765903D01*
X103794976Y-117827239D01*
X103794978Y-117827241D01*
X103839270Y-117864405D01*
X103883561Y-117901570D01*
X103992222Y-117941120D01*
X103992224Y-117941120D01*
X104107856Y-117941120D01*
X104107858Y-117941120D01*
X104216519Y-117901570D01*
X104305101Y-117827241D01*
X104362918Y-117727098D01*
X104382998Y-117613220D01*
X104362918Y-117499342D01*
X104340514Y-117460537D01*
X104305101Y-117399198D01*
X104252315Y-117354907D01*
X104216519Y-117324870D01*
X104216517Y-117324869D01*
X104107859Y-117285320D01*
X104107858Y-117285320D01*
X103992222Y-117285320D01*
X103992220Y-117285320D01*
X103883562Y-117324869D01*
X103794978Y-117399198D01*
X103759565Y-117460537D01*
X103720160Y-117493602D01*
X103668720Y-117493602D01*
X103629315Y-117460537D01*
X103593901Y-117399198D01*
X103541115Y-117354907D01*
X103505319Y-117324870D01*
X103505317Y-117324869D01*
X103396659Y-117285320D01*
X103396658Y-117285320D01*
X103281022Y-117285320D01*
X103281020Y-117285320D01*
X103172362Y-117324869D01*
X103083778Y-117399198D01*
X103048365Y-117460537D01*
X103008960Y-117493602D01*
X102957520Y-117493602D01*
X102918115Y-117460537D01*
X102882701Y-117399198D01*
X102829915Y-117354907D01*
X102794119Y-117324870D01*
X102794117Y-117324869D01*
X102685459Y-117285320D01*
X102685458Y-117285320D01*
X102569822Y-117285320D01*
X102569820Y-117285320D01*
X102461162Y-117324869D01*
X102372578Y-117399198D01*
X102314762Y-117499340D01*
X102294682Y-117613220D01*
X97700968Y-117613220D01*
X97701772Y-116937820D01*
X98068682Y-116937820D01*
X98088762Y-117051699D01*
X98146578Y-117151841D01*
X98190870Y-117189005D01*
X98235161Y-117226170D01*
X98343822Y-117265720D01*
X98343824Y-117265720D01*
X98459456Y-117265720D01*
X98459458Y-117265720D01*
X98568119Y-117226170D01*
X98656701Y-117151841D01*
X98714518Y-117051698D01*
X98731953Y-116952820D01*
X105775282Y-116952820D01*
X105795362Y-117066699D01*
X105853178Y-117166841D01*
X105897470Y-117204005D01*
X105941761Y-117241170D01*
X106050422Y-117280720D01*
X106050424Y-117280720D01*
X106166056Y-117280720D01*
X106166058Y-117280720D01*
X106274719Y-117241170D01*
X106363301Y-117166841D01*
X106386014Y-117127499D01*
X106425419Y-117094434D01*
X106476859Y-117094434D01*
X106516265Y-117127498D01*
X106516266Y-117127500D01*
X106538979Y-117166842D01*
X106587145Y-117207257D01*
X106627561Y-117241170D01*
X106736222Y-117280720D01*
X106736224Y-117280720D01*
X106851856Y-117280720D01*
X106851858Y-117280720D01*
X106960519Y-117241170D01*
X107049101Y-117166841D01*
X107106918Y-117066698D01*
X107126998Y-116952820D01*
X107106918Y-116838942D01*
X107090904Y-116811205D01*
X107049101Y-116738798D01*
X106996315Y-116694507D01*
X106960519Y-116664470D01*
X106960517Y-116664469D01*
X106851859Y-116624920D01*
X106851858Y-116624920D01*
X106736222Y-116624920D01*
X106736220Y-116624920D01*
X106627562Y-116664469D01*
X106538978Y-116738798D01*
X106516265Y-116778140D01*
X106476860Y-116811205D01*
X106425420Y-116811205D01*
X106386015Y-116778140D01*
X106363301Y-116738798D01*
X106310515Y-116694507D01*
X106274719Y-116664470D01*
X106274717Y-116664469D01*
X106166059Y-116624920D01*
X106166058Y-116624920D01*
X106050422Y-116624920D01*
X106050420Y-116624920D01*
X105941762Y-116664469D01*
X105853178Y-116738798D01*
X105795362Y-116838940D01*
X105775282Y-116952820D01*
X98731953Y-116952820D01*
X98734598Y-116937820D01*
X98714518Y-116823942D01*
X98714517Y-116823940D01*
X98656701Y-116723798D01*
X98585994Y-116664469D01*
X98568119Y-116649470D01*
X98568117Y-116649469D01*
X98459459Y-116609920D01*
X98459458Y-116609920D01*
X98343822Y-116609920D01*
X98343820Y-116609920D01*
X98235162Y-116649469D01*
X98146578Y-116723798D01*
X98088762Y-116823940D01*
X98068682Y-116937820D01*
X97701772Y-116937820D01*
X97702238Y-116546400D01*
X101710442Y-116546400D01*
X101730522Y-116660279D01*
X101788338Y-116760421D01*
X101832630Y-116797585D01*
X101876921Y-116834750D01*
X101985582Y-116874300D01*
X101985584Y-116874300D01*
X102101216Y-116874300D01*
X102101218Y-116874300D01*
X102209879Y-116834750D01*
X102298461Y-116760421D01*
X102356278Y-116660278D01*
X102376358Y-116546400D01*
X102356278Y-116432522D01*
X102332709Y-116391699D01*
X102298461Y-116332378D01*
X102233441Y-116277821D01*
X102209879Y-116258050D01*
X102209877Y-116258049D01*
X102101219Y-116218500D01*
X102101218Y-116218500D01*
X101985582Y-116218500D01*
X101985580Y-116218500D01*
X101876922Y-116258049D01*
X101788338Y-116332378D01*
X101730522Y-116432520D01*
X101710442Y-116546400D01*
X97702238Y-116546400D01*
X97702650Y-116200220D01*
X99515882Y-116200220D01*
X99535962Y-116314099D01*
X99593778Y-116414241D01*
X99615563Y-116432520D01*
X99682361Y-116488570D01*
X99791022Y-116528120D01*
X99791024Y-116528120D01*
X99906656Y-116528120D01*
X99906658Y-116528120D01*
X100015319Y-116488570D01*
X100103901Y-116414241D01*
X100161718Y-116314098D01*
X100181798Y-116200220D01*
X100161718Y-116086342D01*
X100131429Y-116033879D01*
X100103901Y-115986198D01*
X100051115Y-115941907D01*
X100015319Y-115911870D01*
X100015317Y-115911869D01*
X99906659Y-115872320D01*
X99906658Y-115872320D01*
X99791022Y-115872320D01*
X99791020Y-115872320D01*
X99682362Y-115911869D01*
X99593778Y-115986198D01*
X99535962Y-116086340D01*
X99515882Y-116200220D01*
X97702650Y-116200220D01*
X97703043Y-115870000D01*
X101227042Y-115870000D01*
X101247122Y-115983879D01*
X101304938Y-116084021D01*
X101349230Y-116121185D01*
X101393521Y-116158350D01*
X101502182Y-116197900D01*
X101502184Y-116197900D01*
X101617816Y-116197900D01*
X101617818Y-116197900D01*
X101726479Y-116158350D01*
X101815061Y-116084021D01*
X101872878Y-115983878D01*
X101884142Y-115920000D01*
X104847042Y-115920000D01*
X104867122Y-116033879D01*
X104924938Y-116134021D01*
X104953933Y-116158350D01*
X105013521Y-116208350D01*
X105122182Y-116247900D01*
X105122184Y-116247900D01*
X105237816Y-116247900D01*
X105237818Y-116247900D01*
X105346479Y-116208350D01*
X105435061Y-116134021D01*
X105492878Y-116033878D01*
X105512958Y-115920000D01*
X105492878Y-115806122D01*
X105476249Y-115777319D01*
X105467318Y-115726661D01*
X105493038Y-115682113D01*
X105541375Y-115664520D01*
X105570856Y-115664520D01*
X105570858Y-115664520D01*
X105679519Y-115624970D01*
X105768101Y-115550641D01*
X105825918Y-115450498D01*
X105845998Y-115336620D01*
X105825918Y-115222742D01*
X105798738Y-115175664D01*
X105768101Y-115122598D01*
X105715315Y-115078307D01*
X105679519Y-115048270D01*
X105679517Y-115048269D01*
X105570859Y-115008720D01*
X105570858Y-115008720D01*
X105455222Y-115008720D01*
X105455220Y-115008720D01*
X105346562Y-115048269D01*
X105257978Y-115122598D01*
X105200162Y-115222740D01*
X105180082Y-115336620D01*
X105200162Y-115450498D01*
X105216791Y-115479301D01*
X105225722Y-115529959D01*
X105200002Y-115574507D01*
X105151665Y-115592100D01*
X105122180Y-115592100D01*
X105013522Y-115631649D01*
X104924938Y-115705978D01*
X104867122Y-115806120D01*
X104847042Y-115920000D01*
X101884142Y-115920000D01*
X101892958Y-115870000D01*
X101872878Y-115756122D01*
X101855869Y-115726661D01*
X101815061Y-115655978D01*
X101760204Y-115609949D01*
X101726479Y-115581650D01*
X101726477Y-115581649D01*
X101617819Y-115542100D01*
X101617818Y-115542100D01*
X101502182Y-115542100D01*
X101502180Y-115542100D01*
X101393522Y-115581649D01*
X101304938Y-115655978D01*
X101247122Y-115756120D01*
X101227042Y-115870000D01*
X97703043Y-115870000D01*
X97703950Y-115108020D01*
X100167042Y-115108020D01*
X100187122Y-115221899D01*
X100244938Y-115322041D01*
X100271199Y-115344076D01*
X100333521Y-115396370D01*
X100442182Y-115435920D01*
X100442184Y-115435920D01*
X100557816Y-115435920D01*
X100557818Y-115435920D01*
X100666479Y-115396370D01*
X100755061Y-115322041D01*
X100812878Y-115221898D01*
X100832958Y-115108020D01*
X100824756Y-115061504D01*
X100833688Y-115010847D01*
X100873090Y-114977782D01*
X100926479Y-114958350D01*
X101015061Y-114884021D01*
X101072878Y-114783878D01*
X101092958Y-114670000D01*
X101072878Y-114556122D01*
X101072877Y-114556120D01*
X101072877Y-114556118D01*
X101028996Y-114480113D01*
X101020064Y-114429455D01*
X101045784Y-114384907D01*
X101094121Y-114367314D01*
X101112450Y-114367314D01*
X101112452Y-114367314D01*
X101221113Y-114327764D01*
X101309695Y-114253435D01*
X101345871Y-114190774D01*
X101385274Y-114157712D01*
X101436713Y-114157711D01*
X101436714Y-114157711D01*
X101492182Y-114177900D01*
X101492184Y-114177900D01*
X101607816Y-114177900D01*
X101607818Y-114177900D01*
X101716479Y-114138350D01*
X101720907Y-114134633D01*
X101769244Y-114117038D01*
X101817580Y-114134628D01*
X101893521Y-114198350D01*
X102002182Y-114237900D01*
X102002184Y-114237900D01*
X102117816Y-114237900D01*
X102117818Y-114237900D01*
X102226479Y-114198350D01*
X102315061Y-114124021D01*
X102372878Y-114023878D01*
X102392958Y-113910000D01*
X102372878Y-113796122D01*
X102346864Y-113751064D01*
X102315061Y-113695978D01*
X102262275Y-113651687D01*
X102226479Y-113621650D01*
X102226477Y-113621649D01*
X102117819Y-113582100D01*
X102117818Y-113582100D01*
X102002182Y-113582100D01*
X102002180Y-113582100D01*
X101893520Y-113621650D01*
X101893518Y-113621651D01*
X101889086Y-113625370D01*
X101840748Y-113642961D01*
X101792416Y-113625368D01*
X101716479Y-113561650D01*
X101716476Y-113561648D01*
X101716475Y-113561648D01*
X101607819Y-113522100D01*
X101607818Y-113522100D01*
X101492182Y-113522100D01*
X101492180Y-113522100D01*
X101383522Y-113561649D01*
X101294938Y-113635978D01*
X101258762Y-113698637D01*
X101219356Y-113731702D01*
X101167917Y-113731702D01*
X101112453Y-113711514D01*
X101112452Y-113711514D01*
X100996816Y-113711514D01*
X100996814Y-113711514D01*
X100888156Y-113751063D01*
X100799572Y-113825392D01*
X100741756Y-113925534D01*
X100721676Y-114039414D01*
X100741756Y-114153295D01*
X100785638Y-114229301D01*
X100794570Y-114279959D01*
X100768850Y-114324507D01*
X100720513Y-114342100D01*
X100702180Y-114342100D01*
X100593522Y-114381649D01*
X100504938Y-114455978D01*
X100447122Y-114556120D01*
X100427042Y-114670000D01*
X100435244Y-114716515D01*
X100426311Y-114767173D01*
X100386907Y-114800237D01*
X100333524Y-114819667D01*
X100333523Y-114819668D01*
X100244938Y-114893998D01*
X100187122Y-114994140D01*
X100167042Y-115108020D01*
X97703950Y-115108020D01*
X97704531Y-114620000D01*
X99307042Y-114620000D01*
X99327122Y-114733879D01*
X99384938Y-114834021D01*
X99420993Y-114864274D01*
X99473521Y-114908350D01*
X99582182Y-114947900D01*
X99582184Y-114947900D01*
X99697816Y-114947900D01*
X99697818Y-114947900D01*
X99806479Y-114908350D01*
X99895061Y-114834021D01*
X99952878Y-114733878D01*
X99972958Y-114620000D01*
X99952878Y-114506122D01*
X99937862Y-114480113D01*
X99895061Y-114405978D01*
X99842275Y-114361687D01*
X99806479Y-114331650D01*
X99806477Y-114331649D01*
X99697819Y-114292100D01*
X99697818Y-114292100D01*
X99582182Y-114292100D01*
X99582180Y-114292100D01*
X99473522Y-114331649D01*
X99384938Y-114405978D01*
X99327122Y-114506120D01*
X99307042Y-114620000D01*
X97704531Y-114620000D01*
X97708456Y-111323420D01*
X98163682Y-111323420D01*
X98183762Y-111437299D01*
X98241578Y-111537441D01*
X98265558Y-111557562D01*
X98330161Y-111611770D01*
X98438822Y-111651320D01*
X98438824Y-111651320D01*
X98554456Y-111651320D01*
X98554458Y-111651320D01*
X98663119Y-111611770D01*
X98751701Y-111537441D01*
X98809518Y-111437298D01*
X98829598Y-111323420D01*
X98809518Y-111209542D01*
X98809517Y-111209540D01*
X98751701Y-111109398D01*
X98698915Y-111065107D01*
X98663119Y-111035070D01*
X98663117Y-111035069D01*
X98554459Y-110995520D01*
X98554458Y-110995520D01*
X98438822Y-110995520D01*
X98438820Y-110995520D01*
X98330162Y-111035069D01*
X98241578Y-111109398D01*
X98183762Y-111209540D01*
X98163682Y-111323420D01*
X97708456Y-111323420D01*
X97710939Y-109237820D01*
X98068682Y-109237820D01*
X98088762Y-109351699D01*
X98146578Y-109451840D01*
X98146579Y-109451841D01*
X98168863Y-109470540D01*
X98190000Y-109499367D01*
X98207417Y-109541414D01*
X98207419Y-109541417D01*
X99064314Y-110398310D01*
X99086054Y-110444930D01*
X99086340Y-110451484D01*
X99086340Y-110505391D01*
X99121219Y-110589595D01*
X99153315Y-110621691D01*
X99165263Y-110637261D01*
X99174939Y-110654021D01*
X99186902Y-110664059D01*
X99212621Y-110708608D01*
X99203688Y-110759264D01*
X99156764Y-110840538D01*
X99136684Y-110954420D01*
X99156764Y-111068299D01*
X99214580Y-111168441D01*
X99251729Y-111199612D01*
X99303163Y-111242770D01*
X99411824Y-111282320D01*
X99411826Y-111282320D01*
X99527458Y-111282320D01*
X99527460Y-111282320D01*
X99636121Y-111242770D01*
X99724703Y-111168441D01*
X99782520Y-111068298D01*
X99796989Y-110986237D01*
X99817870Y-110946125D01*
X99862526Y-110901469D01*
X99909147Y-110879731D01*
X99958834Y-110893045D01*
X99988338Y-110935183D01*
X99990900Y-110954645D01*
X99990900Y-111353955D01*
X99973307Y-111402293D01*
X99968874Y-111407129D01*
X99765929Y-111610074D01*
X99719309Y-111631814D01*
X99712755Y-111632100D01*
X99682180Y-111632100D01*
X99573522Y-111671649D01*
X99484938Y-111745978D01*
X99427122Y-111846120D01*
X99407042Y-111960000D01*
X99427122Y-112073879D01*
X99432423Y-112083060D01*
X99441356Y-112133718D01*
X99415636Y-112178266D01*
X99415635Y-112178267D01*
X99334938Y-112245978D01*
X99277122Y-112346120D01*
X99257042Y-112460000D01*
X99277122Y-112573879D01*
X99334938Y-112674021D01*
X99352909Y-112689100D01*
X99423521Y-112748350D01*
X99532182Y-112787900D01*
X99532184Y-112787900D01*
X99647816Y-112787900D01*
X99647818Y-112787900D01*
X99756479Y-112748350D01*
X99806124Y-112706692D01*
X99854462Y-112689100D01*
X100105570Y-112689100D01*
X100105571Y-112689100D01*
X100130231Y-112678884D01*
X100130234Y-112678884D01*
X100160004Y-112666553D01*
X100189775Y-112654222D01*
X100814222Y-112029774D01*
X100849100Y-111945570D01*
X100849100Y-111854430D01*
X100849100Y-110445320D01*
X103811022Y-110445320D01*
X103831102Y-110559199D01*
X103888918Y-110659341D01*
X103923606Y-110688447D01*
X103977501Y-110733670D01*
X104086162Y-110773220D01*
X104086164Y-110773220D01*
X104201796Y-110773220D01*
X104201798Y-110773220D01*
X104310459Y-110733670D01*
X104399041Y-110659341D01*
X104456858Y-110559198D01*
X104476938Y-110445320D01*
X104456858Y-110331442D01*
X104441881Y-110305500D01*
X104399041Y-110231298D01*
X104346255Y-110187007D01*
X104310459Y-110156970D01*
X104310457Y-110156969D01*
X104201799Y-110117420D01*
X104201798Y-110117420D01*
X104086162Y-110117420D01*
X104086160Y-110117420D01*
X103977502Y-110156969D01*
X103888918Y-110231298D01*
X103831102Y-110331440D01*
X103811022Y-110445320D01*
X100849100Y-110445320D01*
X100849100Y-110017009D01*
X100814221Y-109932805D01*
X100749775Y-109868359D01*
X100671191Y-109789775D01*
X100649451Y-109743155D01*
X100662765Y-109693468D01*
X100698646Y-109665936D01*
X100721115Y-109657758D01*
X100721116Y-109657757D01*
X100721119Y-109657756D01*
X100756294Y-109628239D01*
X100804629Y-109610647D01*
X100852965Y-109628239D01*
X100888161Y-109657772D01*
X100996822Y-109697322D01*
X100996824Y-109697322D01*
X101112456Y-109697322D01*
X101112458Y-109697322D01*
X101221119Y-109657772D01*
X101256303Y-109628248D01*
X101304639Y-109610655D01*
X101352975Y-109628247D01*
X101388161Y-109657772D01*
X101496822Y-109697322D01*
X101496824Y-109697322D01*
X101612456Y-109697322D01*
X101612458Y-109697322D01*
X101721119Y-109657772D01*
X101756301Y-109628249D01*
X101804635Y-109610657D01*
X101852971Y-109628248D01*
X101888161Y-109657776D01*
X101996822Y-109697326D01*
X101996824Y-109697326D01*
X102112456Y-109697326D01*
X102112458Y-109697326D01*
X102221119Y-109657776D01*
X102256306Y-109628249D01*
X102304641Y-109610657D01*
X102352977Y-109628249D01*
X102388161Y-109657772D01*
X102496822Y-109697322D01*
X102496824Y-109697322D01*
X102612456Y-109697322D01*
X102612458Y-109697322D01*
X102721119Y-109657772D01*
X102809701Y-109583443D01*
X102867518Y-109483300D01*
X102887598Y-109369422D01*
X102867518Y-109255544D01*
X102838902Y-109205979D01*
X102809701Y-109155400D01*
X102756292Y-109110586D01*
X102721119Y-109081072D01*
X102721117Y-109081071D01*
X102646700Y-109053985D01*
X102607295Y-109020920D01*
X102598362Y-108970261D01*
X102624083Y-108925713D01*
X102672420Y-108908120D01*
X102700656Y-108908120D01*
X102700658Y-108908120D01*
X102809319Y-108868570D01*
X102897901Y-108794241D01*
X102920614Y-108754899D01*
X102960019Y-108721834D01*
X103011459Y-108721834D01*
X103050865Y-108754898D01*
X103050866Y-108754900D01*
X103073579Y-108794242D01*
X103117052Y-108830719D01*
X103162161Y-108868570D01*
X103270822Y-108908120D01*
X103270824Y-108908120D01*
X103386456Y-108908120D01*
X103386458Y-108908120D01*
X103495119Y-108868570D01*
X103583701Y-108794241D01*
X103641518Y-108694098D01*
X103649119Y-108650991D01*
X107114080Y-108650991D01*
X107134160Y-108764870D01*
X107191976Y-108865012D01*
X107228498Y-108895657D01*
X107280559Y-108939341D01*
X107389220Y-108978891D01*
X107389222Y-108978891D01*
X107504854Y-108978891D01*
X107504856Y-108978891D01*
X107613517Y-108939341D01*
X107702099Y-108865012D01*
X107759916Y-108764869D01*
X107765892Y-108730977D01*
X107791611Y-108686431D01*
X107839948Y-108668837D01*
X107853016Y-108669981D01*
X107853818Y-108670122D01*
X107853822Y-108670124D01*
X107853826Y-108670124D01*
X107969456Y-108670124D01*
X107969458Y-108670124D01*
X108078119Y-108630574D01*
X108166701Y-108556245D01*
X108224518Y-108456102D01*
X108244598Y-108342224D01*
X108224518Y-108228346D01*
X108210462Y-108204000D01*
X108166701Y-108128202D01*
X108094396Y-108067532D01*
X108078119Y-108053874D01*
X108078117Y-108053873D01*
X107969459Y-108014324D01*
X107969458Y-108014324D01*
X107853822Y-108014324D01*
X107853820Y-108014324D01*
X107745162Y-108053873D01*
X107656578Y-108128202D01*
X107598761Y-108228346D01*
X107592785Y-108262237D01*
X107567064Y-108306785D01*
X107518726Y-108324377D01*
X107505669Y-108323234D01*
X107504858Y-108323091D01*
X107504856Y-108323091D01*
X107389220Y-108323091D01*
X107389218Y-108323091D01*
X107280560Y-108362640D01*
X107191976Y-108436969D01*
X107134160Y-108537111D01*
X107114080Y-108650991D01*
X103649119Y-108650991D01*
X103661598Y-108580220D01*
X103641518Y-108466342D01*
X103625504Y-108438605D01*
X103583701Y-108366198D01*
X103512894Y-108306785D01*
X103495119Y-108291870D01*
X103495117Y-108291869D01*
X103386459Y-108252320D01*
X103386458Y-108252320D01*
X103270822Y-108252320D01*
X103270820Y-108252320D01*
X103162162Y-108291869D01*
X103073578Y-108366198D01*
X103050865Y-108405540D01*
X103011460Y-108438605D01*
X102960020Y-108438605D01*
X102920615Y-108405540D01*
X102897901Y-108366198D01*
X102827094Y-108306785D01*
X102809319Y-108291870D01*
X102809317Y-108291869D01*
X102700659Y-108252320D01*
X102700658Y-108252320D01*
X102585022Y-108252320D01*
X102585020Y-108252320D01*
X102476362Y-108291869D01*
X102387778Y-108366198D01*
X102353635Y-108425337D01*
X102314230Y-108458402D01*
X102262790Y-108458402D01*
X102223385Y-108425337D01*
X102186701Y-108361798D01*
X102133915Y-108317507D01*
X102098119Y-108287470D01*
X102098117Y-108287469D01*
X101989459Y-108247920D01*
X101989458Y-108247920D01*
X101873822Y-108247920D01*
X101873820Y-108247920D01*
X101765162Y-108287469D01*
X101676578Y-108361798D01*
X101618762Y-108461940D01*
X101598682Y-108575820D01*
X101618762Y-108689699D01*
X101676578Y-108789841D01*
X101720870Y-108827005D01*
X101765161Y-108864170D01*
X101873822Y-108903720D01*
X101873824Y-108903720D01*
X101948961Y-108903720D01*
X101985951Y-108917182D01*
X102011600Y-108895661D01*
X102026979Y-108890063D01*
X102098119Y-108864170D01*
X102186701Y-108789841D01*
X102220844Y-108730701D01*
X102260248Y-108697638D01*
X102311688Y-108697637D01*
X102351093Y-108730701D01*
X102351094Y-108730702D01*
X102387778Y-108794241D01*
X102431252Y-108830719D01*
X102476361Y-108868570D01*
X102519261Y-108884184D01*
X102550780Y-108895657D01*
X102590185Y-108928722D01*
X102599118Y-108979381D01*
X102573397Y-109023929D01*
X102525060Y-109041522D01*
X102496820Y-109041522D01*
X102388161Y-109081071D01*
X102352973Y-109110597D01*
X102304635Y-109128189D01*
X102256300Y-109110596D01*
X102226715Y-109085772D01*
X102221119Y-109081076D01*
X102221117Y-109081075D01*
X102112459Y-109041526D01*
X102112458Y-109041526D01*
X102037320Y-109041526D01*
X102000329Y-109028063D01*
X101974681Y-109049584D01*
X101962592Y-109053985D01*
X101888159Y-109081076D01*
X101852979Y-109110596D01*
X101804642Y-109128189D01*
X101756304Y-109110595D01*
X101721120Y-109081071D01*
X101612459Y-109041522D01*
X101612458Y-109041522D01*
X101496822Y-109041522D01*
X101496820Y-109041522D01*
X101388161Y-109081071D01*
X101371731Y-109094858D01*
X101352988Y-109110586D01*
X101352978Y-109110594D01*
X101304640Y-109128187D01*
X101256302Y-109110594D01*
X101256292Y-109110586D01*
X101221119Y-109081072D01*
X101221118Y-109081071D01*
X101112459Y-109041522D01*
X101112458Y-109041522D01*
X100996822Y-109041522D01*
X100996820Y-109041522D01*
X100888161Y-109081071D01*
X100852985Y-109110587D01*
X100804647Y-109128179D01*
X100756312Y-109110586D01*
X100742528Y-109099020D01*
X100721119Y-109081056D01*
X100721117Y-109081055D01*
X100612459Y-109041506D01*
X100612458Y-109041506D01*
X100503498Y-109041506D01*
X100455160Y-109023913D01*
X100429440Y-108979364D01*
X100438373Y-108928706D01*
X100450324Y-108913132D01*
X100510710Y-108852746D01*
X100557330Y-108831006D01*
X100563884Y-108830720D01*
X100594456Y-108830720D01*
X100594458Y-108830720D01*
X100703119Y-108791170D01*
X100791701Y-108716841D01*
X100849518Y-108616698D01*
X100869598Y-108502820D01*
X100849518Y-108388942D01*
X100849517Y-108388940D01*
X100791701Y-108288798D01*
X100721031Y-108229500D01*
X100703119Y-108214470D01*
X100703117Y-108214469D01*
X100594459Y-108174920D01*
X100594458Y-108174920D01*
X100478822Y-108174920D01*
X100478820Y-108174920D01*
X100370162Y-108214469D01*
X100281578Y-108288798D01*
X100251765Y-108340438D01*
X100212360Y-108373503D01*
X100160921Y-108373503D01*
X100121515Y-108340438D01*
X100091701Y-108288798D01*
X100021031Y-108229500D01*
X100003119Y-108214470D01*
X100003117Y-108214469D01*
X99894459Y-108174920D01*
X99894458Y-108174920D01*
X99778822Y-108174920D01*
X99778820Y-108174920D01*
X99670162Y-108214469D01*
X99581578Y-108288798D01*
X99551765Y-108340438D01*
X99512360Y-108373503D01*
X99460921Y-108373503D01*
X99421515Y-108340438D01*
X99391701Y-108288798D01*
X99321031Y-108229500D01*
X99303119Y-108214470D01*
X99303117Y-108214469D01*
X99194459Y-108174920D01*
X99194458Y-108174920D01*
X99078822Y-108174920D01*
X99078820Y-108174920D01*
X98970162Y-108214469D01*
X98881578Y-108288798D01*
X98823762Y-108388940D01*
X98803682Y-108502820D01*
X98823762Y-108616699D01*
X98881578Y-108716841D01*
X98925870Y-108754005D01*
X98970161Y-108791170D01*
X99078822Y-108830720D01*
X99109395Y-108830720D01*
X99157733Y-108848313D01*
X99162569Y-108852746D01*
X99278869Y-108969046D01*
X99300609Y-109015666D01*
X99287295Y-109065353D01*
X99245158Y-109094858D01*
X99204327Y-109093075D01*
X99204298Y-109093243D01*
X99203022Y-109093018D01*
X99199976Y-109092885D01*
X99197822Y-109092101D01*
X99197819Y-109092100D01*
X99197818Y-109092100D01*
X99082182Y-109092100D01*
X99082180Y-109092100D01*
X98973522Y-109131649D01*
X98884938Y-109205978D01*
X98868775Y-109233974D01*
X98829369Y-109267039D01*
X98777930Y-109267039D01*
X98738525Y-109233974D01*
X98729593Y-109209435D01*
X98714518Y-109123942D01*
X98714517Y-109123940D01*
X98714517Y-109123939D01*
X98656701Y-109023798D01*
X98591449Y-108969046D01*
X98568119Y-108949470D01*
X98568117Y-108949469D01*
X98459459Y-108909920D01*
X98459458Y-108909920D01*
X98343822Y-108909920D01*
X98343820Y-108909920D01*
X98235162Y-108949469D01*
X98146578Y-109023798D01*
X98088762Y-109123940D01*
X98068682Y-109237820D01*
X97710939Y-109237820D01*
X97712611Y-107833110D01*
X97730262Y-107784794D01*
X97774841Y-107759127D01*
X97787811Y-107758000D01*
X108800800Y-107758000D01*
X108849138Y-107775593D01*
G37*
G04 #@! TD.AperFunction*
G04 #@! TA.AperFunction,Conductor*
G36*
X113187279Y-97221593D02*
G01*
X113212999Y-97266142D01*
X113204066Y-97316800D01*
X113164661Y-97349865D01*
X113146022Y-97356649D01*
X113057438Y-97430978D01*
X112999622Y-97531120D01*
X112979542Y-97645000D01*
X112999622Y-97758879D01*
X113057438Y-97859021D01*
X113101730Y-97896185D01*
X113146021Y-97933350D01*
X113254682Y-97972900D01*
X113254684Y-97972900D01*
X113370316Y-97972900D01*
X113370318Y-97972900D01*
X113478979Y-97933350D01*
X113567561Y-97859021D01*
X113625378Y-97758878D01*
X113645458Y-97645000D01*
X113625378Y-97531122D01*
X113625377Y-97531120D01*
X113567561Y-97430978D01*
X113514775Y-97386687D01*
X113478979Y-97356650D01*
X113478977Y-97356649D01*
X113460339Y-97349865D01*
X113420934Y-97316800D01*
X113412002Y-97266141D01*
X113437722Y-97221593D01*
X113486059Y-97204000D01*
X114478941Y-97204000D01*
X114527279Y-97221593D01*
X114552999Y-97266142D01*
X114544066Y-97316800D01*
X114504661Y-97349865D01*
X114486022Y-97356649D01*
X114397438Y-97430978D01*
X114339622Y-97531120D01*
X114319542Y-97645000D01*
X114339622Y-97758879D01*
X114397438Y-97859021D01*
X114441730Y-97896185D01*
X114486021Y-97933350D01*
X114594682Y-97972900D01*
X114594684Y-97972900D01*
X114710316Y-97972900D01*
X114710318Y-97972900D01*
X114818979Y-97933350D01*
X114907561Y-97859021D01*
X114965378Y-97758878D01*
X114985458Y-97645000D01*
X114965378Y-97531122D01*
X114965377Y-97531120D01*
X114907561Y-97430978D01*
X114854775Y-97386687D01*
X114818979Y-97356650D01*
X114818977Y-97356649D01*
X114800339Y-97349865D01*
X114760934Y-97316800D01*
X114752002Y-97266141D01*
X114777722Y-97221593D01*
X114826059Y-97204000D01*
X115754800Y-97204000D01*
X115803138Y-97221593D01*
X115828858Y-97266142D01*
X115830000Y-97279200D01*
X115830000Y-99314855D01*
X115812407Y-99363193D01*
X115807974Y-99368029D01*
X115777129Y-99398874D01*
X115730509Y-99420614D01*
X115723955Y-99420900D01*
X115636962Y-99420900D01*
X115588624Y-99403307D01*
X115538978Y-99361649D01*
X115430319Y-99322100D01*
X115430318Y-99322100D01*
X115314682Y-99322100D01*
X115314680Y-99322100D01*
X115206022Y-99361649D01*
X115117438Y-99435978D01*
X115059622Y-99536120D01*
X115039542Y-99650000D01*
X115053885Y-99731342D01*
X115044952Y-99782000D01*
X115005547Y-99815065D01*
X114979827Y-99819600D01*
X114964680Y-99819600D01*
X114856022Y-99859149D01*
X114767438Y-99933478D01*
X114709622Y-100033620D01*
X114689542Y-100147500D01*
X114709622Y-100261379D01*
X114767438Y-100361521D01*
X114785409Y-100376600D01*
X114856021Y-100435850D01*
X114964682Y-100475400D01*
X114964684Y-100475400D01*
X115000709Y-100475400D01*
X115049047Y-100492993D01*
X115074767Y-100537542D01*
X115074767Y-100563655D01*
X115059542Y-100650000D01*
X115069582Y-100706939D01*
X115079622Y-100763879D01*
X115137438Y-100864021D01*
X115231060Y-100942578D01*
X115230305Y-100943477D01*
X115259050Y-100977734D01*
X115259050Y-101029174D01*
X115236723Y-101061061D01*
X115147437Y-101135980D01*
X115089622Y-101236120D01*
X115069542Y-101350000D01*
X115089622Y-101463879D01*
X115147438Y-101564021D01*
X115165409Y-101579100D01*
X115236021Y-101638350D01*
X115344682Y-101677900D01*
X115344684Y-101677900D01*
X115460316Y-101677900D01*
X115460318Y-101677900D01*
X115568979Y-101638350D01*
X115618624Y-101596692D01*
X115666962Y-101579100D01*
X115754800Y-101579100D01*
X115803138Y-101596693D01*
X115828858Y-101641242D01*
X115830000Y-101654300D01*
X115830000Y-103196800D01*
X115812407Y-103245138D01*
X115767858Y-103270858D01*
X115754800Y-103272000D01*
X115289700Y-103272000D01*
X115241362Y-103254407D01*
X115215642Y-103209858D01*
X115214500Y-103196800D01*
X115214500Y-102375141D01*
X115224574Y-102337543D01*
X115272878Y-102253878D01*
X115292958Y-102140000D01*
X115272878Y-102026122D01*
X115223769Y-101941061D01*
X115215061Y-101925978D01*
X115130514Y-101855036D01*
X115126479Y-101851650D01*
X115126477Y-101851649D01*
X115017819Y-101812100D01*
X115017818Y-101812100D01*
X114902182Y-101812100D01*
X114902180Y-101812100D01*
X114793522Y-101851649D01*
X114704938Y-101925978D01*
X114647122Y-102026120D01*
X114647122Y-102026122D01*
X114627042Y-102140000D01*
X114628264Y-102146933D01*
X114638679Y-102205994D01*
X114629746Y-102256652D01*
X114590341Y-102289717D01*
X114538901Y-102289717D01*
X114516284Y-102276659D01*
X114489134Y-102253878D01*
X114486479Y-102251650D01*
X114486477Y-102251649D01*
X114377819Y-102212100D01*
X114377818Y-102212100D01*
X114262182Y-102212100D01*
X114262180Y-102212100D01*
X114262178Y-102212101D01*
X114261192Y-102212460D01*
X114260142Y-102212459D01*
X114255702Y-102213243D01*
X114255563Y-102212459D01*
X114209752Y-102212458D01*
X114170348Y-102179392D01*
X114161418Y-102128735D01*
X114161826Y-102126414D01*
X114162958Y-102120000D01*
X114142878Y-102006122D01*
X114140675Y-102002307D01*
X114085061Y-101905979D01*
X114080832Y-101900939D01*
X114082031Y-101899932D01*
X114060241Y-101862176D01*
X114059100Y-101849128D01*
X114059100Y-99214428D01*
X114059099Y-99214427D01*
X114044652Y-99179550D01*
X114044651Y-99179548D01*
X114024222Y-99130226D01*
X113691640Y-98797644D01*
X113670759Y-98757533D01*
X113652878Y-98656122D01*
X113648778Y-98649021D01*
X113595061Y-98555978D01*
X113542275Y-98511687D01*
X113506479Y-98481650D01*
X113506477Y-98481649D01*
X113397819Y-98442100D01*
X113397818Y-98442100D01*
X113282182Y-98442100D01*
X113282180Y-98442100D01*
X113173522Y-98481649D01*
X113084938Y-98555978D01*
X113027122Y-98656120D01*
X113007042Y-98770000D01*
X113027122Y-98883879D01*
X113084938Y-98984021D01*
X113129230Y-99021185D01*
X113173521Y-99058350D01*
X113282182Y-99097900D01*
X113312754Y-99097900D01*
X113361092Y-99115493D01*
X113365928Y-99119925D01*
X113578874Y-99332870D01*
X113600614Y-99379491D01*
X113600900Y-99386045D01*
X113600900Y-100661348D01*
X113583307Y-100709686D01*
X113538758Y-100735406D01*
X113499980Y-100732013D01*
X113390320Y-100692100D01*
X113390318Y-100692100D01*
X113274682Y-100692100D01*
X113274680Y-100692100D01*
X113166022Y-100731649D01*
X113077438Y-100805978D01*
X113019622Y-100906120D01*
X112999542Y-101020000D01*
X113019622Y-101133879D01*
X113077438Y-101234021D01*
X113121730Y-101271185D01*
X113166021Y-101308350D01*
X113274682Y-101347900D01*
X113274684Y-101347900D01*
X113390316Y-101347900D01*
X113390318Y-101347900D01*
X113461778Y-101321890D01*
X113499980Y-101307986D01*
X113551420Y-101307986D01*
X113590825Y-101341051D01*
X113600900Y-101378651D01*
X113600900Y-101849128D01*
X113583307Y-101897466D01*
X113575690Y-101905083D01*
X113574938Y-101905979D01*
X113517122Y-102006120D01*
X113497042Y-102120000D01*
X113517122Y-102233879D01*
X113574938Y-102334021D01*
X113598774Y-102354021D01*
X113663521Y-102408350D01*
X113772182Y-102447900D01*
X113772184Y-102447900D01*
X113887815Y-102447900D01*
X113887818Y-102447900D01*
X113888798Y-102447542D01*
X113889841Y-102447542D01*
X113894298Y-102446757D01*
X113894436Y-102447542D01*
X113940235Y-102447537D01*
X113979644Y-102480596D01*
X113988583Y-102531254D01*
X113988582Y-102531259D01*
X113987042Y-102539996D01*
X113987042Y-102539997D01*
X113987042Y-102539998D01*
X113987042Y-102540000D01*
X114002102Y-102625408D01*
X114007122Y-102653879D01*
X114030112Y-102693698D01*
X114055425Y-102737543D01*
X114065500Y-102775141D01*
X114065500Y-103196800D01*
X114047907Y-103245138D01*
X114003358Y-103270858D01*
X113990300Y-103272000D01*
X113100500Y-103272000D01*
X113052162Y-103254407D01*
X113026442Y-103209858D01*
X113025300Y-103196800D01*
X113025300Y-102002306D01*
X113008890Y-101941067D01*
X113008888Y-101941061D01*
X113004847Y-101925978D01*
X113004494Y-101924658D01*
X112964300Y-101855041D01*
X112964297Y-101855038D01*
X112964296Y-101855036D01*
X112325543Y-101216284D01*
X112313596Y-101200715D01*
X112267561Y-101120979D01*
X112227500Y-101087364D01*
X112201780Y-101042817D01*
X112210713Y-100992158D01*
X112250116Y-100959094D01*
X112303451Y-100939682D01*
X112313977Y-100935851D01*
X112313977Y-100935850D01*
X112313979Y-100935850D01*
X112402561Y-100861521D01*
X112460378Y-100761378D01*
X112480458Y-100647500D01*
X112460378Y-100533622D01*
X112460377Y-100533620D01*
X112402561Y-100433478D01*
X112316958Y-100361650D01*
X112313979Y-100359150D01*
X112313977Y-100359149D01*
X112205319Y-100319600D01*
X112205318Y-100319600D01*
X112089682Y-100319600D01*
X112089680Y-100319600D01*
X111981022Y-100359149D01*
X111892438Y-100433478D01*
X111834622Y-100533620D01*
X111814542Y-100647500D01*
X111834622Y-100761379D01*
X111892438Y-100861521D01*
X111932497Y-100895134D01*
X111958217Y-100939682D01*
X111949285Y-100990341D01*
X111909881Y-101023406D01*
X111846021Y-101046649D01*
X111757438Y-101120978D01*
X111699622Y-101221120D01*
X111679542Y-101335000D01*
X111699622Y-101448879D01*
X111757437Y-101549019D01*
X111757438Y-101549020D01*
X111757439Y-101549021D01*
X111846021Y-101623350D01*
X111866627Y-101630850D01*
X111894082Y-101648341D01*
X112392674Y-102146933D01*
X112414414Y-102193553D01*
X112414700Y-102200107D01*
X112414700Y-103196800D01*
X112397107Y-103245138D01*
X112352558Y-103270858D01*
X112339500Y-103272000D01*
X111127200Y-103272000D01*
X111078862Y-103254407D01*
X111053142Y-103209858D01*
X111052000Y-103196800D01*
X111052000Y-98435000D01*
X111619542Y-98435000D01*
X111639622Y-98548879D01*
X111697438Y-98649021D01*
X111741730Y-98686185D01*
X111786021Y-98723350D01*
X111894682Y-98762900D01*
X111894684Y-98762900D01*
X112010316Y-98762900D01*
X112010318Y-98762900D01*
X112118979Y-98723350D01*
X112207561Y-98649021D01*
X112265378Y-98548878D01*
X112285458Y-98435000D01*
X112265378Y-98321122D01*
X112265377Y-98321120D01*
X112207561Y-98220978D01*
X112154775Y-98176687D01*
X112118979Y-98146650D01*
X112118977Y-98146649D01*
X112010319Y-98107100D01*
X112010318Y-98107100D01*
X111894682Y-98107100D01*
X111894680Y-98107100D01*
X111786022Y-98146649D01*
X111697438Y-98220978D01*
X111639622Y-98321120D01*
X111619542Y-98435000D01*
X111052000Y-98435000D01*
X111052000Y-97279200D01*
X111069593Y-97230862D01*
X111114142Y-97205142D01*
X111127200Y-97204000D01*
X113138941Y-97204000D01*
X113187279Y-97221593D01*
G37*
G04 #@! TD.AperFunction*
G04 #@! TA.AperFunction,Conductor*
G36*
X112897731Y-107771593D02*
G01*
X112902567Y-107776026D01*
X113659213Y-108532672D01*
X113671164Y-108548246D01*
X113717198Y-108627981D01*
X113761490Y-108665145D01*
X113805781Y-108702310D01*
X113914442Y-108741860D01*
X113914444Y-108741860D01*
X114030076Y-108741860D01*
X114030078Y-108741860D01*
X114138739Y-108702310D01*
X114227321Y-108627981D01*
X114285138Y-108527838D01*
X114305218Y-108413960D01*
X114285138Y-108300082D01*
X114285137Y-108300081D01*
X114285137Y-108300078D01*
X114272751Y-108278625D01*
X114263819Y-108227967D01*
X114289539Y-108183419D01*
X114337877Y-108165826D01*
X114386214Y-108183420D01*
X114391050Y-108187852D01*
X114464245Y-108261047D01*
X115757790Y-109554593D01*
X115757791Y-109554593D01*
X115757793Y-109554595D01*
X115851333Y-109593341D01*
X115851334Y-109593341D01*
X115961331Y-109593341D01*
X115961339Y-109593340D01*
X116039377Y-109593340D01*
X117792274Y-109593340D01*
X117840612Y-109610933D01*
X117845448Y-109615366D01*
X119071474Y-110841392D01*
X119093214Y-110888012D01*
X119093500Y-110894566D01*
X119093500Y-111494858D01*
X119083425Y-111532458D01*
X119035122Y-111616120D01*
X119015042Y-111730000D01*
X119035122Y-111843879D01*
X119092938Y-111944021D01*
X119110839Y-111959041D01*
X119181521Y-112018350D01*
X119290182Y-112057900D01*
X119290184Y-112057900D01*
X119405816Y-112057900D01*
X119405818Y-112057900D01*
X119514479Y-112018350D01*
X119603061Y-111944021D01*
X119660878Y-111843878D01*
X119680958Y-111730000D01*
X119660878Y-111616122D01*
X119659582Y-111613878D01*
X119612575Y-111532458D01*
X119602500Y-111494858D01*
X119602500Y-110817383D01*
X119602501Y-110817374D01*
X119602501Y-110707378D01*
X119602501Y-110707377D01*
X119563755Y-110613837D01*
X119563753Y-110613835D01*
X119563753Y-110613834D01*
X119337297Y-110387378D01*
X119315557Y-110340758D01*
X119328871Y-110291071D01*
X119371008Y-110261566D01*
X119410606Y-110263295D01*
X119410702Y-110262757D01*
X119414796Y-110263478D01*
X119416192Y-110263539D01*
X119417182Y-110263900D01*
X119417184Y-110263900D01*
X119532816Y-110263900D01*
X119532818Y-110263900D01*
X119641479Y-110224350D01*
X119730061Y-110150021D01*
X119787878Y-110049878D01*
X119807958Y-109936000D01*
X119787878Y-109822122D01*
X119771284Y-109793380D01*
X119730061Y-109721978D01*
X119677275Y-109677687D01*
X119641479Y-109647650D01*
X119641477Y-109647649D01*
X119532819Y-109608100D01*
X119532818Y-109608100D01*
X119417182Y-109608100D01*
X119417180Y-109608100D01*
X119308522Y-109647649D01*
X119219938Y-109721978D01*
X119162122Y-109822120D01*
X119142042Y-109936000D01*
X119155456Y-110012073D01*
X119146523Y-110062731D01*
X119107118Y-110095796D01*
X119055678Y-110095796D01*
X119028224Y-110078305D01*
X118144163Y-109194245D01*
X118073003Y-109123085D01*
X118073002Y-109123084D01*
X117979463Y-109084340D01*
X116140623Y-109084340D01*
X116038522Y-109084340D01*
X115990184Y-109066747D01*
X115985348Y-109062314D01*
X114805408Y-107882374D01*
X114783668Y-107835754D01*
X114796982Y-107786067D01*
X114839119Y-107756562D01*
X114858582Y-107754000D01*
X114902934Y-107754000D01*
X114951272Y-107771593D01*
X114956108Y-107776026D01*
X115345834Y-108165752D01*
X115345835Y-108165752D01*
X115345837Y-108165754D01*
X115439377Y-108204500D01*
X115439378Y-108204500D01*
X115540621Y-108204500D01*
X115540623Y-108204500D01*
X115588124Y-108184823D01*
X115616902Y-108179100D01*
X116996536Y-108179100D01*
X117044874Y-108196693D01*
X117070594Y-108241242D01*
X117061661Y-108291900D01*
X117057122Y-108299760D01*
X117037042Y-108413640D01*
X117057122Y-108527519D01*
X117114938Y-108627661D01*
X117159230Y-108664825D01*
X117203521Y-108701990D01*
X117312182Y-108741540D01*
X117312184Y-108741540D01*
X117427816Y-108741540D01*
X117427818Y-108741540D01*
X117536479Y-108701990D01*
X117625061Y-108627661D01*
X117682878Y-108527518D01*
X117702958Y-108413640D01*
X117682878Y-108299762D01*
X117678339Y-108291900D01*
X117669406Y-108241242D01*
X117695126Y-108196694D01*
X117743463Y-108179100D01*
X120117310Y-108179100D01*
X120165648Y-108196693D01*
X120191367Y-108241240D01*
X120194860Y-108261047D01*
X120197122Y-108273879D01*
X120254938Y-108374021D01*
X120292570Y-108405597D01*
X120343521Y-108448350D01*
X120452182Y-108487900D01*
X120452184Y-108487900D01*
X120567816Y-108487900D01*
X120567818Y-108487900D01*
X120676479Y-108448350D01*
X120706462Y-108423190D01*
X120754800Y-108405597D01*
X120803137Y-108423190D01*
X120828857Y-108467738D01*
X120830000Y-108480797D01*
X120830000Y-118346800D01*
X120812407Y-118395138D01*
X120767858Y-118420858D01*
X120754800Y-118422000D01*
X111127200Y-118422000D01*
X111078862Y-118404407D01*
X111053142Y-118359858D01*
X111052000Y-118346800D01*
X111052000Y-115694040D01*
X111602962Y-115694040D01*
X111623042Y-115807919D01*
X111680858Y-115908061D01*
X111725150Y-115945225D01*
X111769441Y-115982390D01*
X111878102Y-116021940D01*
X111878104Y-116021940D01*
X111993736Y-116021940D01*
X111993738Y-116021940D01*
X112102399Y-115982390D01*
X112190981Y-115908061D01*
X112248798Y-115807918D01*
X112248979Y-115806891D01*
X112249501Y-115805985D01*
X112251048Y-115801737D01*
X112251796Y-115802009D01*
X112274691Y-115762341D01*
X112323026Y-115744741D01*
X112371366Y-115762328D01*
X112387296Y-115785066D01*
X112388832Y-115784180D01*
X112449937Y-115890019D01*
X112449938Y-115890020D01*
X112449939Y-115890021D01*
X112494782Y-115927649D01*
X112503201Y-115934713D01*
X112528921Y-115979262D01*
X112519988Y-116029920D01*
X112503201Y-116049927D01*
X112449937Y-116094620D01*
X112392122Y-116194760D01*
X112372042Y-116308640D01*
X112392122Y-116422519D01*
X112449938Y-116522661D01*
X112494230Y-116559825D01*
X112538521Y-116596990D01*
X112647182Y-116636540D01*
X112647184Y-116636540D01*
X112762816Y-116636540D01*
X112762818Y-116636540D01*
X112871479Y-116596990D01*
X112960061Y-116522661D01*
X113017878Y-116422518D01*
X113037958Y-116308640D01*
X113037076Y-116303640D01*
X113717042Y-116303640D01*
X113737122Y-116417519D01*
X113794938Y-116517661D01*
X113826208Y-116543899D01*
X113883521Y-116591990D01*
X113992182Y-116631540D01*
X113992184Y-116631540D01*
X114107816Y-116631540D01*
X114107818Y-116631540D01*
X114216479Y-116591990D01*
X114305061Y-116517661D01*
X114362878Y-116417518D01*
X114382958Y-116303640D01*
X114367505Y-116216000D01*
X115378702Y-116216000D01*
X115398782Y-116329879D01*
X115456598Y-116430021D01*
X115500890Y-116467185D01*
X115545181Y-116504350D01*
X115653842Y-116543900D01*
X115653844Y-116543900D01*
X115769476Y-116543900D01*
X115769478Y-116543900D01*
X115878139Y-116504350D01*
X115966721Y-116430021D01*
X116024538Y-116329878D01*
X116026103Y-116321000D01*
X118827042Y-116321000D01*
X118847122Y-116434879D01*
X118904938Y-116535021D01*
X118949230Y-116572185D01*
X118993521Y-116609350D01*
X119102182Y-116648900D01*
X119102184Y-116648900D01*
X119217816Y-116648900D01*
X119217818Y-116648900D01*
X119326479Y-116609350D01*
X119415061Y-116535021D01*
X119472878Y-116434878D01*
X119492958Y-116321000D01*
X119472878Y-116207122D01*
X119465741Y-116194760D01*
X119415061Y-116106978D01*
X119347069Y-116049927D01*
X119326479Y-116032650D01*
X119326477Y-116032649D01*
X119217819Y-115993100D01*
X119217818Y-115993100D01*
X119102182Y-115993100D01*
X119102180Y-115993100D01*
X118993522Y-116032649D01*
X118904938Y-116106978D01*
X118847122Y-116207120D01*
X118827042Y-116321000D01*
X116026103Y-116321000D01*
X116044618Y-116216000D01*
X116024538Y-116102122D01*
X116020206Y-116094619D01*
X115966721Y-116001978D01*
X115886556Y-115934713D01*
X115878139Y-115927650D01*
X115878137Y-115927649D01*
X115769479Y-115888100D01*
X115769478Y-115888100D01*
X115653842Y-115888100D01*
X115653840Y-115888100D01*
X115545182Y-115927649D01*
X115456598Y-116001978D01*
X115398782Y-116102120D01*
X115378702Y-116216000D01*
X114367505Y-116216000D01*
X114362878Y-116189762D01*
X114315084Y-116106979D01*
X114305061Y-116089618D01*
X114237168Y-116032650D01*
X114216479Y-116015290D01*
X114216477Y-116015289D01*
X114107819Y-115975740D01*
X114107818Y-115975740D01*
X113992182Y-115975740D01*
X113992180Y-115975740D01*
X113883522Y-116015289D01*
X113794938Y-116089618D01*
X113737122Y-116189760D01*
X113717042Y-116303640D01*
X113037076Y-116303640D01*
X113017878Y-116194762D01*
X112967197Y-116106979D01*
X112960062Y-116094620D01*
X112906799Y-116049927D01*
X112881079Y-116005378D01*
X112890012Y-115954720D01*
X112906799Y-115934713D01*
X112915216Y-115927650D01*
X112960061Y-115890021D01*
X113017878Y-115789878D01*
X113037958Y-115676000D01*
X113017878Y-115562122D01*
X113017877Y-115562120D01*
X112960061Y-115461978D01*
X112893107Y-115405798D01*
X112871479Y-115387650D01*
X112871477Y-115387649D01*
X112762819Y-115348100D01*
X112762818Y-115348100D01*
X112647182Y-115348100D01*
X112647180Y-115348100D01*
X112538522Y-115387649D01*
X112449938Y-115461978D01*
X112392121Y-115562122D01*
X112391939Y-115563157D01*
X112391413Y-115564066D01*
X112389872Y-115568303D01*
X112389124Y-115568031D01*
X112366219Y-115607705D01*
X112317881Y-115625298D01*
X112269544Y-115607704D01*
X112253626Y-115584971D01*
X112252088Y-115585860D01*
X112190983Y-115480021D01*
X112186754Y-115474982D01*
X112187935Y-115473990D01*
X112166105Y-115436180D01*
X112175038Y-115385521D01*
X112191825Y-115365514D01*
X112196061Y-115361961D01*
X112253878Y-115261818D01*
X112273958Y-115147940D01*
X112253878Y-115034062D01*
X112253877Y-115034060D01*
X112196061Y-114933918D01*
X112143275Y-114889627D01*
X112107479Y-114859590D01*
X112107477Y-114859589D01*
X112015194Y-114826000D01*
X118622042Y-114826000D01*
X118642122Y-114939879D01*
X118699938Y-115040021D01*
X118744230Y-115077185D01*
X118788521Y-115114350D01*
X118897182Y-115153900D01*
X118897184Y-115153900D01*
X119012816Y-115153900D01*
X119012818Y-115153900D01*
X119121479Y-115114350D01*
X119210061Y-115040021D01*
X119267878Y-114939878D01*
X119287958Y-114826000D01*
X119267878Y-114712122D01*
X119240569Y-114664821D01*
X119210061Y-114611978D01*
X119153690Y-114564678D01*
X119121479Y-114537650D01*
X119121477Y-114537649D01*
X119012819Y-114498100D01*
X119012818Y-114498100D01*
X118897182Y-114498100D01*
X118897180Y-114498100D01*
X118788522Y-114537649D01*
X118699938Y-114611978D01*
X118642122Y-114712120D01*
X118622042Y-114826000D01*
X112015194Y-114826000D01*
X111998819Y-114820040D01*
X111998818Y-114820040D01*
X111883182Y-114820040D01*
X111883180Y-114820040D01*
X111774522Y-114859589D01*
X111685938Y-114933918D01*
X111628122Y-115034060D01*
X111608042Y-115147940D01*
X111628122Y-115261819D01*
X111685936Y-115361958D01*
X111690166Y-115366998D01*
X111688983Y-115367990D01*
X111710813Y-115405798D01*
X111701882Y-115456456D01*
X111685099Y-115476460D01*
X111680860Y-115480016D01*
X111680858Y-115480019D01*
X111623042Y-115580160D01*
X111602962Y-115694040D01*
X111052000Y-115694040D01*
X111052000Y-114450800D01*
X113618702Y-114450800D01*
X113638782Y-114564679D01*
X113696598Y-114664821D01*
X113740890Y-114701985D01*
X113785181Y-114739150D01*
X113893842Y-114778700D01*
X113893844Y-114778700D01*
X114009476Y-114778700D01*
X114009478Y-114778700D01*
X114118139Y-114739150D01*
X114206721Y-114664821D01*
X114264538Y-114564678D01*
X114284618Y-114450800D01*
X114264538Y-114336922D01*
X114264537Y-114336920D01*
X114206721Y-114236778D01*
X114153935Y-114192487D01*
X114118139Y-114162450D01*
X114118137Y-114162449D01*
X114009479Y-114122900D01*
X114009478Y-114122900D01*
X113893842Y-114122900D01*
X113893840Y-114122900D01*
X113785182Y-114162449D01*
X113696598Y-114236778D01*
X113638782Y-114336920D01*
X113618702Y-114450800D01*
X111052000Y-114450800D01*
X111052000Y-114022220D01*
X111069593Y-113973882D01*
X111114142Y-113948162D01*
X111127200Y-113947020D01*
X111241747Y-113947020D01*
X111290085Y-113964613D01*
X111290085Y-113964614D01*
X111309458Y-113980870D01*
X111371640Y-114003502D01*
X111418120Y-114020420D01*
X111418122Y-114020420D01*
X111533754Y-114020420D01*
X111533756Y-114020420D01*
X111642417Y-113980870D01*
X111730999Y-113906541D01*
X111784173Y-113814440D01*
X112342102Y-113814440D01*
X112362182Y-113928319D01*
X112419998Y-114028461D01*
X112464290Y-114065625D01*
X112508581Y-114102790D01*
X112617242Y-114142340D01*
X112617244Y-114142340D01*
X112732876Y-114142340D01*
X112732878Y-114142340D01*
X112841539Y-114102790D01*
X112930121Y-114028461D01*
X112987938Y-113928318D01*
X113008018Y-113814440D01*
X112987938Y-113700562D01*
X112983295Y-113692520D01*
X112930121Y-113600418D01*
X112877335Y-113556127D01*
X112841539Y-113526090D01*
X112841537Y-113526089D01*
X112732879Y-113486540D01*
X112732878Y-113486540D01*
X112617242Y-113486540D01*
X112617240Y-113486540D01*
X112508582Y-113526089D01*
X112419998Y-113600418D01*
X112362182Y-113700560D01*
X112342102Y-113814440D01*
X111784173Y-113814440D01*
X111788816Y-113806398D01*
X111808896Y-113692520D01*
X111788816Y-113578642D01*
X111780304Y-113563899D01*
X111731000Y-113478499D01*
X111702372Y-113454478D01*
X111676652Y-113409929D01*
X111685585Y-113359271D01*
X111702371Y-113339266D01*
X111713461Y-113329961D01*
X111771278Y-113229818D01*
X111791358Y-113115940D01*
X111771278Y-113002062D01*
X111739863Y-112947649D01*
X111713461Y-112901918D01*
X111641280Y-112841352D01*
X111624879Y-112827590D01*
X111624877Y-112827589D01*
X111516219Y-112788040D01*
X111511667Y-112787238D01*
X111478085Y-112767849D01*
X111445094Y-112786897D01*
X111432035Y-112788040D01*
X111400580Y-112788040D01*
X111291920Y-112827589D01*
X111272547Y-112843846D01*
X111224209Y-112861440D01*
X111127200Y-112861440D01*
X111078862Y-112843847D01*
X111053142Y-112799298D01*
X111052000Y-112786240D01*
X111052000Y-112690580D01*
X111069593Y-112642242D01*
X111114142Y-112616522D01*
X111127200Y-112615380D01*
X111365190Y-112615380D01*
X111390909Y-112619914D01*
X111440542Y-112637980D01*
X111440546Y-112637980D01*
X111445093Y-112638782D01*
X111478674Y-112658170D01*
X111511666Y-112639123D01*
X111524725Y-112637980D01*
X111556176Y-112637980D01*
X111556178Y-112637980D01*
X111664839Y-112598430D01*
X111753421Y-112524101D01*
X111811238Y-112423958D01*
X111831318Y-112310080D01*
X111811238Y-112196202D01*
X111753421Y-112096059D01*
X111738565Y-112083594D01*
X111712847Y-112039047D01*
X111721780Y-111988389D01*
X111738566Y-111968383D01*
X111749701Y-111959041D01*
X111807518Y-111858898D01*
X111827598Y-111745020D01*
X111807518Y-111631142D01*
X111805230Y-111627179D01*
X111749701Y-111530998D01*
X111665714Y-111460526D01*
X111661119Y-111456670D01*
X111661117Y-111456669D01*
X111552459Y-111417120D01*
X111552458Y-111417120D01*
X111436822Y-111417120D01*
X111436820Y-111417120D01*
X111387190Y-111435185D01*
X111361470Y-111439720D01*
X111127200Y-111439720D01*
X111078862Y-111422127D01*
X111053142Y-111377578D01*
X111052000Y-111364520D01*
X111052000Y-111066500D01*
X111069593Y-111018162D01*
X111114142Y-110992442D01*
X111127200Y-110991300D01*
X116643790Y-110991300D01*
X116643793Y-110991300D01*
X116721441Y-110970494D01*
X116725359Y-110968231D01*
X116776016Y-110959295D01*
X116820566Y-110985011D01*
X116838164Y-111033348D01*
X116837022Y-111046412D01*
X116827742Y-111099039D01*
X116847822Y-111212919D01*
X116905638Y-111313061D01*
X116946418Y-111347279D01*
X116994221Y-111387390D01*
X117102882Y-111426940D01*
X117102884Y-111426940D01*
X117218516Y-111426940D01*
X117218518Y-111426940D01*
X117327179Y-111387390D01*
X117354013Y-111364872D01*
X117402348Y-111347279D01*
X117450686Y-111364871D01*
X117476407Y-111409419D01*
X117476408Y-111435537D01*
X117466743Y-111490350D01*
X117458344Y-111511272D01*
X117458612Y-111511383D01*
X117431115Y-111577764D01*
X117431115Y-111577766D01*
X117420900Y-111602429D01*
X117420900Y-111602430D01*
X117420900Y-112841352D01*
X117403307Y-112889690D01*
X117371420Y-112912017D01*
X117273522Y-112947649D01*
X117184938Y-113021978D01*
X117130125Y-113116920D01*
X117090720Y-113149985D01*
X117039281Y-113149985D01*
X116999875Y-113116920D01*
X116945061Y-113021978D01*
X116885232Y-112971777D01*
X116856479Y-112947650D01*
X116856477Y-112947649D01*
X116747819Y-112908100D01*
X116747818Y-112908100D01*
X116632182Y-112908100D01*
X116632180Y-112908100D01*
X116523522Y-112947649D01*
X116434938Y-113021978D01*
X116377122Y-113122120D01*
X116357042Y-113236000D01*
X116377122Y-113349879D01*
X116434938Y-113450021D01*
X116466811Y-113476765D01*
X116523521Y-113524350D01*
X116632182Y-113563900D01*
X116632184Y-113563900D01*
X116747816Y-113563900D01*
X116747818Y-113563900D01*
X116856479Y-113524350D01*
X116945061Y-113450021D01*
X116999875Y-113355078D01*
X117039279Y-113322014D01*
X117090719Y-113322014D01*
X117130123Y-113355076D01*
X117155918Y-113399754D01*
X117184939Y-113450022D01*
X117225313Y-113483899D01*
X117273521Y-113524350D01*
X117382182Y-113563900D01*
X117382184Y-113563900D01*
X117497816Y-113563900D01*
X117497818Y-113563900D01*
X117606479Y-113524350D01*
X117695061Y-113450021D01*
X117752878Y-113349878D01*
X117770760Y-113248465D01*
X117791640Y-113208354D01*
X117843996Y-113156000D01*
X118077042Y-113156000D01*
X118097122Y-113269879D01*
X118154938Y-113370021D01*
X118190373Y-113399754D01*
X118243521Y-113444350D01*
X118352182Y-113483900D01*
X118352184Y-113483900D01*
X118467816Y-113483900D01*
X118467818Y-113483900D01*
X118576479Y-113444350D01*
X118665061Y-113370021D01*
X118722878Y-113269878D01*
X118742958Y-113156000D01*
X118722878Y-113042122D01*
X118699750Y-113002062D01*
X118665061Y-112941978D01*
X118602745Y-112889690D01*
X118576479Y-112867650D01*
X118576477Y-112867649D01*
X118467819Y-112828100D01*
X118467818Y-112828100D01*
X118352182Y-112828100D01*
X118352180Y-112828100D01*
X118243522Y-112867649D01*
X118154938Y-112941978D01*
X118097122Y-113042120D01*
X118077042Y-113156000D01*
X117843996Y-113156000D01*
X117844222Y-113155774D01*
X117879100Y-113071570D01*
X117879100Y-112980430D01*
X117879100Y-111872081D01*
X117896693Y-111823743D01*
X117928580Y-111801416D01*
X117929247Y-111801172D01*
X117964479Y-111788350D01*
X118053061Y-111714021D01*
X118110878Y-111613878D01*
X118130958Y-111500000D01*
X118110878Y-111386122D01*
X118098406Y-111364520D01*
X118053061Y-111285978D01*
X117991314Y-111234167D01*
X117964479Y-111211650D01*
X117964477Y-111211649D01*
X117855819Y-111172100D01*
X117855818Y-111172100D01*
X117740182Y-111172100D01*
X117740180Y-111172100D01*
X117631522Y-111211649D01*
X117604686Y-111234167D01*
X117556348Y-111251760D01*
X117508011Y-111234166D01*
X117482291Y-111189618D01*
X117482291Y-111163504D01*
X117493658Y-111099040D01*
X117473578Y-110985162D01*
X117465109Y-110970493D01*
X117415761Y-110885018D01*
X117335155Y-110817383D01*
X117327179Y-110810690D01*
X117327177Y-110810689D01*
X117218519Y-110771140D01*
X117218518Y-110771140D01*
X117131767Y-110771140D01*
X117083429Y-110753547D01*
X117057709Y-110708998D01*
X117066642Y-110658340D01*
X117078588Y-110642770D01*
X117286742Y-110434616D01*
X117314191Y-110417130D01*
X117334799Y-110409630D01*
X117423381Y-110335301D01*
X117481198Y-110235158D01*
X117501278Y-110121280D01*
X117481198Y-110007402D01*
X117481197Y-110007400D01*
X117423381Y-109907258D01*
X117370595Y-109862967D01*
X117334799Y-109832930D01*
X117334797Y-109832929D01*
X117226139Y-109793380D01*
X117226138Y-109793380D01*
X117110502Y-109793380D01*
X117110500Y-109793380D01*
X117001842Y-109832929D01*
X116913258Y-109907258D01*
X116867225Y-109986991D01*
X116855274Y-110002565D01*
X116499166Y-110358674D01*
X116452547Y-110380414D01*
X116445993Y-110380700D01*
X111127200Y-110380700D01*
X111078862Y-110363107D01*
X111053142Y-110318558D01*
X111052000Y-110305500D01*
X111052000Y-107829200D01*
X111069593Y-107780862D01*
X111114142Y-107755142D01*
X111127200Y-107754000D01*
X112849393Y-107754000D01*
X112897731Y-107771593D01*
G37*
G04 #@! TD.AperFunction*
M02*
