G04 #@! TF.GenerationSoftware,KiCad,Pcbnew,8.0.0*
G04 #@! TF.CreationDate,2025-02-24T10:50:18+08:00*
G04 #@! TF.ProjectId,CM2_MesoScope,434d325f-4d65-4736-9f53-636f70652e6b,rev?*
G04 #@! TF.SameCoordinates,Original*
G04 #@! TF.FileFunction,Copper,L1,Top*
G04 #@! TF.FilePolarity,Positive*
%FSLAX46Y46*%
G04 Gerber Fmt 4.6, Leading zero omitted, Abs format (unit mm)*
G04 Created by KiCad (PCBNEW 8.0.0) date 2025-02-24 10:50:18*
%MOMM*%
%LPD*%
G01*
G04 APERTURE LIST*
G04 Aperture macros list*
%AMRoundRect*
0 Rectangle with rounded corners*
0 $1 Rounding radius*
0 $2 $3 $4 $5 $6 $7 $8 $9 X,Y pos of 4 corners*
0 Add a 4 corners polygon primitive as box body*
4,1,4,$2,$3,$4,$5,$6,$7,$8,$9,$2,$3,0*
0 Add four circle primitives for the rounded corners*
1,1,$1+$1,$2,$3*
1,1,$1+$1,$4,$5*
1,1,$1+$1,$6,$7*
1,1,$1+$1,$8,$9*
0 Add four rect primitives between the rounded corners*
20,1,$1+$1,$2,$3,$4,$5,0*
20,1,$1+$1,$4,$5,$6,$7,0*
20,1,$1+$1,$6,$7,$8,$9,0*
20,1,$1+$1,$8,$9,$2,$3,0*%
G04 Aperture macros list end*
G04 #@! TA.AperFunction,SMDPad,CuDef*
%ADD10RoundRect,0.147500X0.172500X-0.147500X0.172500X0.147500X-0.172500X0.147500X-0.172500X-0.147500X0*%
G04 #@! TD*
G04 #@! TA.AperFunction,SMDPad,CuDef*
%ADD11R,0.340000X0.310000*%
G04 #@! TD*
G04 #@! TA.AperFunction,SMDPad,CuDef*
%ADD12R,0.310000X0.340000*%
G04 #@! TD*
G04 #@! TA.AperFunction,SMDPad,CuDef*
%ADD13RoundRect,0.145000X-0.170000X0.145000X-0.170000X-0.145000X0.170000X-0.145000X0.170000X0.145000X0*%
G04 #@! TD*
G04 #@! TA.AperFunction,SMDPad,CuDef*
%ADD14RoundRect,0.145000X0.170000X-0.145000X0.170000X0.145000X-0.170000X0.145000X-0.170000X-0.145000X0*%
G04 #@! TD*
G04 #@! TA.AperFunction,SMDPad,CuDef*
%ADD15RoundRect,0.147500X0.147500X0.172500X-0.147500X0.172500X-0.147500X-0.172500X0.147500X-0.172500X0*%
G04 #@! TD*
G04 #@! TA.AperFunction,SMDPad,CuDef*
%ADD16R,0.260000X0.680000*%
G04 #@! TD*
G04 #@! TA.AperFunction,SMDPad,CuDef*
%ADD17R,0.680000X0.260000*%
G04 #@! TD*
G04 #@! TA.AperFunction,SMDPad,CuDef*
%ADD18R,3.100000X3.100000*%
G04 #@! TD*
G04 #@! TA.AperFunction,SMDPad,CuDef*
%ADD19R,0.830000X0.880000*%
G04 #@! TD*
G04 #@! TA.AperFunction,SMDPad,CuDef*
%ADD20RoundRect,0.147500X-0.172500X0.147500X-0.172500X-0.147500X0.172500X-0.147500X0.172500X0.147500X0*%
G04 #@! TD*
G04 #@! TA.AperFunction,SMDPad,CuDef*
%ADD21R,2.200000X1.050000*%
G04 #@! TD*
G04 #@! TA.AperFunction,SMDPad,CuDef*
%ADD22R,1.050000X1.000000*%
G04 #@! TD*
G04 #@! TA.AperFunction,SMDPad,CuDef*
%ADD23R,0.800000X0.300000*%
G04 #@! TD*
G04 #@! TA.AperFunction,SMDPad,CuDef*
%ADD24R,0.800000X0.400000*%
G04 #@! TD*
G04 #@! TA.AperFunction,SMDPad,CuDef*
%ADD25R,0.254000X0.675000*%
G04 #@! TD*
G04 #@! TA.AperFunction,SMDPad,CuDef*
%ADD26R,0.675000X0.254000*%
G04 #@! TD*
G04 #@! TA.AperFunction,SMDPad,CuDef*
%ADD27RoundRect,0.062500X0.062500X-0.375000X0.062500X0.375000X-0.062500X0.375000X-0.062500X-0.375000X0*%
G04 #@! TD*
G04 #@! TA.AperFunction,SMDPad,CuDef*
%ADD28RoundRect,0.062500X0.375000X-0.062500X0.375000X0.062500X-0.375000X0.062500X-0.375000X-0.062500X0*%
G04 #@! TD*
G04 #@! TA.AperFunction,FiducialPad,Local*
%ADD29RoundRect,0.062500X0.375000X-0.062500X0.375000X0.062500X-0.375000X0.062500X-0.375000X-0.062500X0*%
G04 #@! TD*
G04 #@! TA.AperFunction,SMDPad,CuDef*
%ADD30R,1.500000X1.500000*%
G04 #@! TD*
G04 #@! TA.AperFunction,SMDPad,CuDef*
%ADD31R,2.620000X0.870000*%
G04 #@! TD*
G04 #@! TA.AperFunction,SMDPad,CuDef*
%ADD32RoundRect,0.232500X0.427500X-0.232500X0.427500X0.232500X-0.427500X0.232500X-0.427500X-0.232500X0*%
G04 #@! TD*
G04 #@! TA.AperFunction,SMDPad,CuDef*
%ADD33R,2.500000X2.500000*%
G04 #@! TD*
G04 #@! TA.AperFunction,ViaPad*
%ADD34C,0.350000*%
G04 #@! TD*
G04 #@! TA.AperFunction,Conductor*
%ADD35C,0.152400*%
G04 #@! TD*
G04 #@! TA.AperFunction,Conductor*
%ADD36C,0.254000*%
G04 #@! TD*
G04 #@! TA.AperFunction,Conductor*
%ADD37C,0.101600*%
G04 #@! TD*
G04 APERTURE END LIST*
D10*
X107300000Y-110705000D03*
X107300000Y-109735000D03*
D11*
X105596640Y-110902820D03*
X105596640Y-110352820D03*
X105574040Y-112639220D03*
X105574040Y-113189220D03*
D12*
X98501640Y-111882220D03*
X97951640Y-111882220D03*
X98501640Y-112441020D03*
X97951640Y-112441020D03*
D11*
X106132840Y-112639220D03*
X106132840Y-113189220D03*
X105015240Y-110903220D03*
X105015240Y-110353220D03*
D13*
X106870000Y-112755000D03*
X106870000Y-113645000D03*
D14*
X106336040Y-110752420D03*
X106336040Y-109862420D03*
D12*
X105559440Y-111475820D03*
X105009440Y-111475820D03*
X105559440Y-112060020D03*
X105009440Y-112060020D03*
D11*
X106107440Y-114798220D03*
X106107440Y-115348220D03*
X105570000Y-108025820D03*
X105570000Y-108575820D03*
D12*
X98501640Y-112999820D03*
X97951640Y-112999820D03*
D11*
X101931640Y-108575820D03*
X101931640Y-108025820D03*
D13*
X98096240Y-114053420D03*
X98096240Y-114943420D03*
D11*
X102642840Y-108575820D03*
X102642840Y-108025820D03*
D12*
X107585000Y-112750000D03*
X108135000Y-112750000D03*
D11*
X104050040Y-117617620D03*
X104050040Y-118167620D03*
X102627640Y-117617620D03*
X102627640Y-118167620D03*
D13*
X106336040Y-108160620D03*
X106336040Y-109050620D03*
D12*
X98501640Y-111317820D03*
X97951640Y-111317820D03*
D11*
X100510000Y-117017420D03*
X100510000Y-117567420D03*
D15*
X102401440Y-115020000D03*
X101431440Y-115020000D03*
D12*
X106651640Y-112060020D03*
X106101640Y-112060020D03*
D11*
X104740000Y-115285000D03*
X104740000Y-114735000D03*
X104130000Y-114735000D03*
X104130000Y-115285000D03*
X105523240Y-115348220D03*
X105523240Y-114798220D03*
X100510000Y-115712620D03*
X100510000Y-116262620D03*
D12*
X99895240Y-115108020D03*
X99345240Y-115108020D03*
D16*
X100054640Y-114039420D03*
X100554640Y-114039420D03*
X101054640Y-114039420D03*
X101554640Y-114039420D03*
X102054640Y-114039420D03*
X102554640Y-114039420D03*
X103054640Y-114039420D03*
X103554640Y-114039420D03*
D17*
X104139640Y-113454420D03*
X104139640Y-112954420D03*
X104139640Y-112454420D03*
X104139640Y-111954420D03*
X104139640Y-111454420D03*
X104139640Y-110954420D03*
X104139640Y-110454420D03*
X104139640Y-109954420D03*
D16*
X103554640Y-109369420D03*
X103054640Y-109369420D03*
X102554640Y-109369420D03*
X102054640Y-109369420D03*
X101554640Y-109369420D03*
X101054640Y-109369420D03*
X100554640Y-109369420D03*
X100054640Y-109369420D03*
D17*
X99469640Y-109954420D03*
X99469640Y-110454420D03*
X99469640Y-110954420D03*
X99469640Y-111454420D03*
X99469640Y-111954420D03*
X99469640Y-112454420D03*
X99469640Y-112954420D03*
X99469640Y-113454420D03*
D18*
X101804640Y-111704420D03*
D11*
X107778820Y-117327620D03*
X107778820Y-117877620D03*
X107214840Y-117877620D03*
X107214840Y-117327620D03*
D19*
X98189040Y-115966420D03*
X98189040Y-117856420D03*
X99629040Y-117856420D03*
X99629040Y-115966420D03*
D11*
X103338840Y-117617620D03*
X103338840Y-118167620D03*
D12*
X98502640Y-110180420D03*
X97952640Y-110180420D03*
X98498240Y-110739220D03*
X97948240Y-110739220D03*
D20*
X107780000Y-114525000D03*
X107780000Y-115495000D03*
D11*
X106112440Y-114274820D03*
X106112440Y-113724820D03*
D13*
X106844040Y-114526620D03*
X106844040Y-115416620D03*
D11*
X105538440Y-114265420D03*
X105538440Y-113715420D03*
X103328640Y-108575820D03*
X103328640Y-108025820D03*
D12*
X107585000Y-112038800D03*
X108135000Y-112038800D03*
D21*
X115662900Y-111673680D03*
X115662900Y-108723680D03*
D22*
X117162900Y-110198680D03*
D23*
X117896000Y-100970000D03*
X117896000Y-100470000D03*
X117896000Y-99970000D03*
X117896000Y-99470000D03*
X117896000Y-98962000D03*
D24*
X120396000Y-101970000D03*
X120396000Y-97934000D03*
D25*
X112176860Y-113776140D03*
D26*
X112039360Y-114688640D03*
X112039360Y-115188640D03*
X112039360Y-115688640D03*
X112039360Y-116188640D03*
D25*
X112176860Y-117101140D03*
X112676860Y-117101140D03*
X113176860Y-117101140D03*
X113676860Y-117101140D03*
X114176860Y-117101140D03*
X114676860Y-117101140D03*
X115176860Y-117101140D03*
X115676860Y-117101140D03*
X116176860Y-117101140D03*
X116676860Y-117101140D03*
D26*
X116814360Y-116188640D03*
X116814360Y-115688640D03*
X116814360Y-115188640D03*
X116814360Y-114688640D03*
D25*
X116676860Y-113776140D03*
X116176860Y-113776140D03*
X115676860Y-113776140D03*
X115176860Y-113776140D03*
X114676860Y-113776140D03*
X114176860Y-113776140D03*
X113676860Y-113776140D03*
X113176860Y-113776140D03*
X112676860Y-113776140D03*
D12*
X111870000Y-102530000D03*
X112420000Y-102530000D03*
D27*
X112835000Y-101335000D03*
X113335000Y-101335000D03*
X113835000Y-101335000D03*
X114335000Y-101335000D03*
D28*
X115022500Y-100647500D03*
D29*
X115022500Y-100147500D03*
D28*
X115022500Y-99647500D03*
X115022500Y-99147500D03*
D27*
X114335000Y-98460000D03*
X113835000Y-98460000D03*
X113335000Y-98460000D03*
X112835000Y-98460000D03*
D28*
X112147500Y-99147500D03*
X112147500Y-99647500D03*
X112147500Y-100147500D03*
X112147500Y-100647500D03*
D30*
X113585000Y-99897500D03*
D31*
X119160000Y-116321000D03*
X119160000Y-113271000D03*
D32*
X119000000Y-110116000D03*
X119000000Y-108476000D03*
D33*
X113096860Y-110218640D03*
D34*
X114840000Y-114576000D03*
X106844028Y-115416608D03*
X102800000Y-115570000D03*
X107776040Y-117876620D03*
X100570000Y-112800000D03*
X115022500Y-98700000D03*
X115037260Y-111724020D03*
X106920240Y-108672420D03*
X106148040Y-117673420D03*
X119000000Y-108476000D03*
X106656640Y-112057820D03*
X112055300Y-111195020D03*
X118955000Y-114186000D03*
X104039840Y-108504020D03*
X113240000Y-102310000D03*
X103476640Y-115158820D03*
X116078660Y-108912240D03*
X104725640Y-108504020D03*
X103080000Y-110410000D03*
X101440000Y-111720000D03*
X116560000Y-111986000D03*
X112176860Y-117101140D03*
X114831660Y-115408000D03*
X113108040Y-109303960D03*
X104736640Y-117672820D03*
X115695360Y-114950800D03*
X111946080Y-114603700D03*
X106870000Y-113645000D03*
X111300000Y-99150000D03*
X98274040Y-117851220D03*
X113255000Y-115041973D03*
X97954840Y-108088220D03*
X102990000Y-111690000D03*
X101220440Y-108504020D03*
X101916400Y-117664000D03*
X99110000Y-114580000D03*
X105078450Y-113355420D03*
X113972260Y-108413960D03*
X112012500Y-101335000D03*
X118410000Y-113156000D03*
X117370000Y-108413640D03*
X113951660Y-114450800D03*
X106794040Y-116952820D03*
X98401640Y-116937820D03*
X115711660Y-116216000D03*
X111941000Y-115147940D03*
X112705000Y-116308640D03*
X119475000Y-109936000D03*
X118955000Y-114826000D03*
X112675060Y-113814440D03*
X112705000Y-115676000D03*
X101931640Y-108575820D03*
X99640000Y-114620000D03*
X107585000Y-112750000D03*
X105180000Y-115920000D03*
X111498360Y-112310080D03*
X107911640Y-108342224D03*
X108430000Y-110990000D03*
X117168320Y-110121280D03*
X101054634Y-114039414D03*
X100760000Y-114670000D03*
X100500000Y-115108020D03*
X102043400Y-116546400D03*
X102060000Y-113910000D03*
X116690000Y-113236000D03*
X111475938Y-113692520D03*
X108573740Y-116063800D03*
X111458400Y-113115940D03*
X108586440Y-114542340D03*
X117798000Y-111500000D03*
X101550000Y-113850000D03*
X117440000Y-113236000D03*
X101560000Y-115870000D03*
X102554640Y-109369422D03*
X102054640Y-109369426D03*
X101554640Y-109369422D03*
X101054640Y-109369422D03*
X100554640Y-109369406D03*
X99140000Y-109420000D03*
X99430000Y-110440000D03*
X98401640Y-109237820D03*
X99469642Y-110954420D03*
X99136640Y-108502820D03*
X99836640Y-108502820D03*
X99740000Y-111960000D03*
X99590000Y-112460000D03*
X100536640Y-108502820D03*
X98496640Y-111323420D03*
X111494640Y-111745020D03*
X103338840Y-117613220D03*
X102642840Y-108580220D03*
X105513040Y-115336620D03*
X107585000Y-112038800D03*
X103328640Y-108580220D03*
X106108240Y-116952820D03*
X99848840Y-116200220D03*
X104050040Y-117613220D03*
X102627640Y-117613220D03*
X107447038Y-108650991D03*
X113332500Y-101020000D03*
X117015000Y-99955000D03*
X111952500Y-98435000D03*
X112147500Y-100647500D03*
X117160700Y-111099040D03*
X119160000Y-116321000D03*
X113312500Y-97645000D03*
X111935920Y-115694040D03*
X114050000Y-116303640D03*
X114652500Y-97645000D03*
X104143980Y-110445320D03*
X113830000Y-102120000D03*
X113340000Y-98770000D03*
X114320000Y-102540000D03*
X119348000Y-111730000D03*
X114960000Y-102140000D03*
X120510000Y-108160000D03*
X115372500Y-99650000D03*
X115022500Y-100147500D03*
X115392500Y-100650000D03*
X115402500Y-101350000D03*
D35*
X103054640Y-114697020D02*
X103054640Y-114736820D01*
X103338840Y-118167620D02*
X104050040Y-118167620D01*
X97952640Y-108090420D02*
X97954840Y-108088220D01*
X105015240Y-110353220D02*
X105583440Y-110353220D01*
D36*
X119051820Y-108723680D02*
X119346860Y-108428640D01*
D35*
X111954420Y-114603700D02*
X112039360Y-114688640D01*
X112039360Y-116188640D02*
X112039360Y-116963640D01*
X116676860Y-117101140D02*
X116676860Y-116326140D01*
X105599440Y-110337220D02*
X105861240Y-110337220D01*
X105547840Y-113724820D02*
X105538440Y-113715420D01*
X103602820Y-115285000D02*
X103476640Y-115158820D01*
X103328640Y-108025820D02*
X103561640Y-108025820D01*
X104050040Y-118167620D02*
X104241840Y-118167620D01*
X106351240Y-109050620D02*
X106542040Y-109050620D01*
X115933200Y-115188640D02*
X116814360Y-115188640D01*
X104241840Y-118167620D02*
X104736640Y-117672820D01*
X102369240Y-118167620D02*
X101906240Y-117704620D01*
X111946080Y-114603700D02*
X111954420Y-114603700D01*
X102627640Y-118167620D02*
X102369240Y-118167620D01*
X98268840Y-117856420D02*
X98274040Y-117851220D01*
X116814360Y-115688640D02*
X116814360Y-116188640D01*
X101220440Y-108349560D02*
X101220440Y-108504020D01*
X97952640Y-110180420D02*
X97952640Y-108090420D01*
X105583440Y-110353220D02*
X105599440Y-110337220D01*
X97951640Y-112441020D02*
X97951640Y-112999820D01*
X98189040Y-117856420D02*
X98268840Y-117856420D01*
X111302500Y-99147500D02*
X111300000Y-99150000D01*
X97951640Y-111317820D02*
X97951640Y-111882220D01*
X106542040Y-109050620D02*
X106920240Y-108672420D01*
X101819820Y-117567420D02*
X101916400Y-117664000D01*
X106870000Y-113645000D02*
X107415000Y-113645000D01*
X105538440Y-113715420D02*
X105438450Y-113715420D01*
X115695360Y-114950800D02*
X115933200Y-115188640D01*
X106775640Y-115348220D02*
X106844028Y-115416608D01*
X103054640Y-114736820D02*
X103476640Y-115158820D01*
X101544180Y-108025820D02*
X101220440Y-108349560D01*
X97948240Y-111314420D02*
X97951640Y-111317820D01*
X103561640Y-108025820D02*
X104039840Y-108504020D01*
X106414220Y-113189220D02*
X106132840Y-113189220D01*
X106336040Y-109862420D02*
X106336040Y-109065820D01*
X115662900Y-111673680D02*
X116247680Y-111673680D01*
X106844040Y-115416620D02*
X106844028Y-115416608D01*
X116247680Y-111673680D02*
X116560000Y-111986000D01*
X116676860Y-116326140D02*
X116814360Y-116188640D01*
X103054640Y-114039420D02*
X103054640Y-114697020D01*
X105861240Y-108575820D02*
X106336040Y-109050620D01*
X100510000Y-117567420D02*
X101819820Y-117567420D01*
X104130000Y-115285000D02*
X103602820Y-115285000D01*
X107753420Y-117854000D02*
X107776040Y-117876620D01*
X106336040Y-109065820D02*
X106351240Y-109050620D01*
X99110000Y-114580000D02*
X98746580Y-114943420D01*
X114692178Y-114576000D02*
X114840000Y-114576000D01*
X107415000Y-113645000D02*
X108048640Y-113011360D01*
X115022500Y-99147500D02*
X115022500Y-98700000D01*
X102642840Y-108025820D02*
X101544180Y-108025820D01*
X102800000Y-115570000D02*
X102401440Y-115171440D01*
X105574040Y-113189220D02*
X106132840Y-113189220D01*
X105861240Y-110337220D02*
X106336040Y-109862420D01*
X112176860Y-117101140D02*
X112176860Y-117101140D01*
X116814360Y-115188640D02*
X116814360Y-115688640D01*
X97948240Y-110739220D02*
X97948240Y-111314420D01*
X112147500Y-99147500D02*
X111302500Y-99147500D01*
X106112440Y-113724820D02*
X105547840Y-113724820D01*
X106870000Y-113645000D02*
X106414220Y-113189220D01*
X106656040Y-112060020D02*
X106681440Y-112085420D01*
X102401440Y-115171440D02*
X102401440Y-115020000D01*
X114176860Y-113776140D02*
X114176860Y-114060682D01*
X105570000Y-108575820D02*
X105861240Y-108575820D01*
X98746580Y-114943420D02*
X98096240Y-114943420D01*
X105438450Y-113715420D02*
X105078450Y-113355420D01*
X108048640Y-113011360D02*
X108048640Y-112034620D01*
X97952640Y-110180420D02*
X97952640Y-110734820D01*
X106651640Y-112060020D02*
X106656040Y-112060020D01*
X114176860Y-114060682D02*
X114692178Y-114576000D01*
X102554640Y-114039420D02*
X103054640Y-114039420D01*
X106107440Y-115348220D02*
X106775640Y-115348220D01*
X97952640Y-110734820D02*
X97948240Y-110739220D01*
X97951640Y-111882220D02*
X97951640Y-112441020D01*
X112039360Y-116963640D02*
X112176860Y-117101140D01*
X111710001Y-100147500D02*
X111450000Y-100407501D01*
D36*
X119160000Y-113271000D02*
X118525000Y-113271000D01*
D35*
X111450000Y-100772500D02*
X112012500Y-101335000D01*
X111450000Y-100407501D02*
X111450000Y-100772500D01*
X112147500Y-100147500D02*
X111710001Y-100147500D01*
D36*
X118525000Y-113271000D02*
X118410000Y-113156000D01*
X119550000Y-113271000D02*
X119160000Y-113271000D01*
D35*
X107778820Y-117327620D02*
X107214840Y-117327620D01*
X107168840Y-117327620D02*
X106794040Y-116952820D01*
X107214840Y-117327620D02*
X107168840Y-117327620D01*
X99629040Y-117856420D02*
X99320240Y-117856420D01*
X99320240Y-117856420D02*
X98401640Y-116937820D01*
D36*
X119180000Y-109936000D02*
X119000000Y-110116000D01*
X119475000Y-109936000D02*
X119180000Y-109936000D01*
D35*
X119000000Y-110415500D02*
X119346860Y-110068640D01*
D36*
X104139640Y-111454420D02*
X104988040Y-111454420D01*
X104988040Y-111454420D02*
X105009440Y-111475820D01*
D35*
X113676860Y-117101140D02*
X113721600Y-117101140D01*
X112705000Y-115676000D02*
X113676860Y-116647860D01*
X113676860Y-116647860D02*
X113676860Y-117101140D01*
X99320000Y-114130000D02*
X98172820Y-114130000D01*
X107911640Y-108342224D02*
X107911640Y-109123360D01*
X105389240Y-112454420D02*
X105574040Y-112639220D01*
X107585000Y-112750000D02*
X107576980Y-112758020D01*
X104139640Y-112454420D02*
X105389240Y-112454420D01*
X99025580Y-111454420D02*
X99469640Y-111454420D01*
X99640000Y-114450000D02*
X99320000Y-114130000D01*
X107355000Y-115920000D02*
X107780000Y-115495000D01*
X98501640Y-111882220D02*
X98501640Y-112441020D01*
X104740000Y-115481980D02*
X104740000Y-115285000D01*
X98597780Y-111882220D02*
X99025580Y-111454420D01*
X98501640Y-112999820D02*
X98501640Y-112441020D01*
X98472840Y-111882220D02*
X98597780Y-111882220D01*
X106873020Y-112758020D02*
X106754220Y-112639220D01*
X98501640Y-113388360D02*
X98096240Y-113793760D01*
X106754220Y-112639220D02*
X105574040Y-112639220D01*
X107576980Y-112758020D02*
X106873020Y-112758020D01*
X98096240Y-113793760D02*
X98096240Y-114053420D01*
X107911640Y-109123360D02*
X107300000Y-109735000D01*
X105180000Y-115920000D02*
X105178020Y-115920000D01*
X98501640Y-112999820D02*
X98501640Y-113388360D01*
X99640000Y-114620000D02*
X99640000Y-114450000D01*
X105180000Y-115920000D02*
X107355000Y-115920000D01*
X105178020Y-115920000D02*
X104740000Y-115481980D01*
X98172820Y-114130000D02*
X98096240Y-114053420D01*
D36*
X108430000Y-110990000D02*
X107944180Y-111475820D01*
X107944180Y-111475820D02*
X105559440Y-111475820D01*
D35*
X105381040Y-114798220D02*
X105523240Y-114798220D01*
X105081240Y-114295220D02*
X105081240Y-114498420D01*
X106107440Y-114798220D02*
X105523240Y-114798220D01*
X105081240Y-114498420D02*
X105381040Y-114798220D01*
X104240440Y-113454420D02*
X105081240Y-114295220D01*
X104139640Y-113454420D02*
X104240440Y-113454420D01*
X106112440Y-114274820D02*
X106592240Y-114274820D01*
X106844040Y-114526620D02*
X107778380Y-114526620D01*
X107780000Y-114525000D02*
X107767020Y-114512020D01*
X104670000Y-113121980D02*
X104670000Y-113524756D01*
X105410664Y-114265420D02*
X105538440Y-114265420D01*
X106103040Y-114265420D02*
X106112440Y-114274820D01*
X104139640Y-112954420D02*
X104502440Y-112954420D01*
X107778380Y-114526620D02*
X107780000Y-114525000D01*
X104670000Y-113524756D02*
X105410664Y-114265420D01*
X106592240Y-114274820D02*
X106844040Y-114526620D01*
X105538440Y-114265420D02*
X106103040Y-114265420D01*
X104502440Y-112954420D02*
X104670000Y-113121980D01*
X107252580Y-110752420D02*
X107300000Y-110705000D01*
X104964040Y-110954420D02*
X105015240Y-110903220D01*
X105015240Y-110903220D02*
X105583440Y-110903220D01*
X105583440Y-110903220D02*
X105599440Y-110887220D01*
X106185640Y-110902820D02*
X106336040Y-110752420D01*
X104139640Y-110954420D02*
X104964040Y-110954420D01*
X106336040Y-110752420D02*
X107252580Y-110752420D01*
X105596640Y-110902820D02*
X106185640Y-110902820D01*
X107178640Y-110752420D02*
X107189440Y-110741620D01*
X101054640Y-114039420D02*
X101054634Y-114039414D01*
X100554640Y-114464640D02*
X100554640Y-114039420D01*
X100760000Y-114670000D02*
X100554640Y-114464640D01*
X100358800Y-114628010D02*
X100054640Y-114323850D01*
X100358800Y-114966820D02*
X100358800Y-114628010D01*
X100054640Y-114323850D02*
X100054640Y-114039420D01*
X100500000Y-115108020D02*
X100358800Y-114966820D01*
X112278578Y-112889880D02*
X116343880Y-112889880D01*
X111475938Y-113692520D02*
X112278578Y-112889880D01*
X105410000Y-116820000D02*
X105678380Y-116551620D01*
X102317000Y-116820000D02*
X105410000Y-116820000D01*
X116690000Y-113763000D02*
X116676860Y-113776140D01*
X108085920Y-116551620D02*
X108573740Y-116063800D01*
X111475938Y-113692520D02*
X111475938Y-113692520D01*
X102043400Y-116546400D02*
X102317000Y-116820000D01*
X116690000Y-113236000D02*
X116690000Y-113763000D01*
X116343880Y-112889880D02*
X116690000Y-113236000D01*
X105678380Y-116551620D02*
X108085920Y-116551620D01*
X116814360Y-114688640D02*
X117043420Y-114688640D01*
X102415200Y-116145200D02*
X102710000Y-116440000D01*
X117097360Y-114688640D02*
X116814360Y-114688640D01*
X102710000Y-116440000D02*
X105330000Y-116440000D01*
X101560000Y-115870000D02*
X101835200Y-116145200D01*
X116745900Y-112541900D02*
X112032440Y-112541900D01*
X117440000Y-114346000D02*
X117097360Y-114688640D01*
X117440000Y-113236000D02*
X117440000Y-114346000D01*
X101835200Y-116145200D02*
X102415200Y-116145200D01*
X112032440Y-112541900D02*
X111458400Y-113115940D01*
X111458400Y-113115940D02*
X111458400Y-113115940D01*
X108586440Y-115473560D02*
X108586440Y-114542340D01*
X117440000Y-113236000D02*
X116745900Y-112541900D01*
X105330000Y-116440000D02*
X105510000Y-116260000D01*
X107800000Y-116260000D02*
X108586440Y-115473560D01*
X105510000Y-116260000D02*
X107800000Y-116260000D01*
X103554640Y-114039420D02*
X103554640Y-114159640D01*
X103554640Y-114159640D02*
X104130000Y-114735000D01*
X104130000Y-114735000D02*
X104740000Y-114735000D01*
X99190580Y-109369420D02*
X100054640Y-109369420D01*
X99140000Y-109420000D02*
X99190580Y-109369420D01*
X99469640Y-110454420D02*
X99320840Y-110454420D01*
X99320840Y-110454420D02*
X99315440Y-110459820D01*
D37*
X99298228Y-110987820D02*
X99292828Y-110993220D01*
X99469640Y-110987820D02*
X99298228Y-110987820D01*
D35*
X99469640Y-110954420D02*
X99469642Y-110954420D01*
X99692440Y-111954420D02*
X99696440Y-111958420D01*
X99469640Y-111954420D02*
X99692440Y-111954420D01*
X99734420Y-111954420D02*
X99740000Y-111960000D01*
X99469640Y-111954420D02*
X99734420Y-111954420D01*
X99454440Y-112454420D02*
X99442440Y-112466420D01*
X99469640Y-112454420D02*
X99454440Y-112454420D01*
X99327440Y-112987820D02*
X99315440Y-112999820D01*
X106201240Y-108025820D02*
X106336040Y-108160620D01*
X100458440Y-117017420D02*
X100510000Y-116965860D01*
X100510000Y-116262620D02*
X99911240Y-116262620D01*
X98498240Y-111321820D02*
X98496640Y-111323420D01*
X98498240Y-110739220D02*
X98498240Y-111321820D01*
X99469640Y-109954420D02*
X98728640Y-109954420D01*
X106351240Y-108160620D02*
X107180620Y-108160620D01*
X99911240Y-116262620D02*
X99848840Y-116200220D01*
X105523240Y-115346820D02*
X105513040Y-115336620D01*
X98502640Y-110180420D02*
X98502640Y-110734820D01*
X105570000Y-108025820D02*
X106201240Y-108025820D01*
X99895240Y-115700220D02*
X99629040Y-115966420D01*
X99898840Y-115696620D02*
X99629040Y-115966420D01*
X105661040Y-108046820D02*
X105640040Y-108025820D01*
X98502640Y-110734820D02*
X98498240Y-110739220D01*
X99895240Y-115108020D02*
X99895240Y-115700220D01*
X107180620Y-108160620D02*
X107447038Y-108427038D01*
X107033040Y-117877620D02*
X106108240Y-116952820D01*
X100510000Y-116965860D02*
X100510000Y-116262620D01*
X107214840Y-117877620D02*
X107033040Y-117877620D01*
X105523240Y-115348220D02*
X105523240Y-115346820D01*
X107447038Y-108427038D02*
X107447038Y-108650991D01*
X98498240Y-111302420D02*
X98477240Y-111323420D01*
X98728640Y-109954420D02*
X98502640Y-110180420D01*
X104903840Y-111954420D02*
X105009440Y-112060020D01*
X104139640Y-111954420D02*
X104903840Y-111954420D01*
X117015000Y-99955000D02*
X117030000Y-99970000D01*
X111952500Y-98435000D02*
X112810000Y-98435000D01*
X112810000Y-98435000D02*
X112835000Y-98460000D01*
X112835000Y-101335000D02*
X112835000Y-102115000D01*
X112835000Y-102115000D02*
X112420000Y-102530000D01*
X105559440Y-112060020D02*
X106101640Y-112060020D01*
X111630000Y-102530000D02*
X111140000Y-102040000D01*
X111352500Y-99647500D02*
X112147500Y-99647500D01*
X111140000Y-102040000D02*
X111140000Y-99860000D01*
X111140000Y-99860000D02*
X111352500Y-99647500D01*
X111870000Y-102530000D02*
X111630000Y-102530000D01*
X100510000Y-115712620D02*
X100738820Y-115712620D01*
X100738820Y-115712620D02*
X101431440Y-115020000D01*
X113835000Y-98002500D02*
X113477500Y-97645000D01*
X113835000Y-98460000D02*
X113835000Y-98002500D01*
X113477500Y-97645000D02*
X113312500Y-97645000D01*
X114163902Y-116303640D02*
X114676860Y-116816598D01*
X114676860Y-116816598D02*
X114676860Y-117101140D01*
X114050000Y-116303640D02*
X114163902Y-116303640D01*
X98189040Y-115966420D02*
X98486840Y-115966420D01*
X98486840Y-115966420D02*
X99345240Y-115108020D01*
X114335000Y-97962500D02*
X114335000Y-98460000D01*
X114652500Y-97645000D02*
X114335000Y-97962500D01*
X113340000Y-98770000D02*
X113340000Y-98465000D01*
X113340000Y-98465000D02*
X113335000Y-98460000D01*
X113835000Y-102115000D02*
X113835000Y-101335000D01*
X113830000Y-102120000D02*
X113835000Y-102115000D01*
X115022500Y-99647500D02*
X115370000Y-99647500D01*
X115370000Y-99647500D02*
X115372500Y-99650000D01*
X115022500Y-100147500D02*
X115035000Y-100160000D01*
X115025000Y-100650000D02*
X115022500Y-100647500D01*
X115392500Y-100650000D02*
X115025000Y-100650000D01*
X115402500Y-101350000D02*
X114350000Y-101350000D01*
X114350000Y-101350000D02*
X114335000Y-101335000D01*
M02*
